<svg xmlns="http://www.w3.org/2000/svg" xmlns:xlink="http://www.w3.org/1999/xlink" width="1328" height="446.061" viewBox="0 0 1328 446.061">
  <defs>
    <clipPath id="clip-path">
      <path id="Path_185907" data-name="Path 185907" d="M-772.9,1089.267v386.266c390.952-110.2,814.176,31.479,1328,59.794V1149.061C164.147,1259.266-259.077,1117.582-772.9,1089.267Z" transform="translate(-5345.101 -12369.267)" fill="#a042bf"/>
    </clipPath>
  </defs>
  <g id="bg-curved" transform="translate(6118 11280)" clip-path="url(#clip-path)">
    <rect id="Rectangle_38375" data-name="Rectangle 38375" width="1362.081" height="568" transform="translate(-6135.205 -11336)" fill="#fff7e6"/>
    <path id="Rectangle_38375_-_Outline" data-name="Rectangle 38375 - Outline" d="M1,1V567H1361.081V1H1M0,0H1362.081V568H0Z" transform="translate(-6135.205 -11336)" fill="#707070"/>
    <g id="Group_118544" data-name="Group 118544" transform="translate(-6118 -12141.838)">
      <path id="Path_169427" data-name="Path 169427" d="M-629.8,1138.421A1172.8,1172.8,0,0,0-543.184,922.39q-1.309-.162-2.623-.328a1161.06,1161.06,0,0,1-86.17,215.3c-51.976,100.153-78.158,198.109-77.824,291.153.222,61.793,12.106,120.3,35.3,174.746.858-.083,1.721-.156,2.582-.238C-729.995,1466.467-715.838,1304.209-629.8,1138.421Z" transform="translate(863.644 -922.063)" fill="#fff"/>
      <path id="Path_169428" data-name="Path 169428" d="M-524.991,995.748c9.685-17.755,19.7-36.113,29.225-53.991,2.243-4.21,4.4-8.411,6.5-12.6l-2.543-.347c-1.985,3.948-4.008,7.9-6.122,11.871-9.519,17.863-19.53,36.219-29.215,53.967-85.95,157.564-174.826,320.493-119.035,483.227q19.571,57.091,61.843,109.881,1.551.018,3.1.038-42.97-53.251-62.633-110.659C-699.334,1315.353-610.7,1152.874-524.991,995.748Z" transform="translate(930.133 -912.905)" fill="#fff"/>
      <path id="Path_169429" data-name="Path 169429" d="M-655.52,1296.87c6.083-80.335-5.262-151.591-34.679-217.83-19.145-43.112-46.1-84.579-82.7-126.186v3.635c35.5,40.715,61.734,81.316,80.459,123.48,58.723,132.224,46.695,285-39,495.35-1.548,3.8-3.016,7.6-4.447,11.39.944-.229,1.892-.434,2.838-.658,1.253-3.283,2.536-6.572,3.879-9.867C-685.776,1469.667-661.686,1378.3-655.52,1296.87Z" transform="translate(772.899 -880.27)" fill="#fff"/>
      <path id="Path_169430" data-name="Path 169430" d="M-330.139,1356c-24.775-141.627,22.388-284.213,133.64-409.779q-1.975.3-3.955.587c-45.739,51.815-80.54,106.426-103.913,163.2-33.192,80.626-42.672,163.521-28.176,246.388,16.331,93.369,63.606,184.173,136.712,262.592q19.439,20.855,41.165,40.38l3.3.259C-247.23,1574.049-310.365,1469.038-330.139,1356Z" transform="translate(1396.771 -889.272)" fill="#fff"/>
      <path id="Path_169431" data-name="Path 169431" d="M-269.125,1212.223c-5.869,91.106,27.24,189.055,100.633,296.527v-4.318c-71.65-105.834-103.981-202.328-98.2-292.062,5.437-84.338,43.81-156.058,98.2-220.944v-3.76C-224.164,1053.464-263.586,1126.285-269.125,1212.223Z" transform="translate(1496.492 -833.021)" fill="#fff"/>
      <path id="Path_169432" data-name="Path 169432" d="M-407.392,1302.749c-8.066-85.217,23.527-164.9,93.894-236.846,38.79-39.659,72.169-77.7,100.516-114.605-1.014.054-2.029.1-3.043.151-28.154,36.4-61.119,73.855-99.246,112.835-70.87,72.455-102.682,152.757-94.55,238.677,7.4,78.148,51.715,193.194,203.342,334.366,1.334.151,2.66.307,3.994.457C-355.44,1496.148-399.994,1380.885-407.392,1302.749Z" transform="translate(1293.305 -882.382)" fill="#fff"/>
    </g>
    <g id="Group_118545" data-name="Group 118545" transform="translate(-6200.203 -11254)" style="mix-blend-mode: overlay;isolation: isolate">
      <path id="Path_100738" data-name="Path 100738" d="M575.776,361.821c-5.544,0-11.164-.127-16.78-.379C497.541,358.68,438.118,341.21,375.2,322.715,324.835,307.908,272.75,292.6,214.852,283.2c-14.968-2.43-29.932-4.386-44.476-5.813-15.619-1.533-31.366-2.519-46.8-2.929q-8.472-.225-17.013-.225c-10.814,0-21.658.271-32.408.811-17.274.868-34.88,2.46-52.327,4.732a1.5,1.5,0,0,1-.387-2.975c17.526-2.282,35.211-3.881,52.564-4.753,10.8-.543,21.7-.815,32.562-.815q8.57,0,17.09.226c15.51.412,31.329,1.4,47.018,2.942,14.606,1.434,29.633,3.4,44.663,5.838,26.009,4.222,53.284,10.051,83.383,17.821,26.654,6.881,52.419,14.455,77.335,21.78,68.972,20.276,132.822,39.046,199.731,39.046,55.891,0,113.915-13.1,178.849-49.35,10.2-5.7,20.42-11.778,30.369-18.076,9.449-5.982,18.957-12.349,28.261-18.927,17.094-12.086,33.821-25.059,51.137-39.66,32.023-27,60.128-54.618,87.308-81.323,27.85-27.363,54.155-53.208,81.953-75.694a417.911,417.911,0,0,1,43.124-30.888c7.615-4.71,15.349-9.078,22.987-12.983,7.981-4.08,16.148-7.8,24.272-11.064,8.436-3.386,17.118-6.393,25.806-8.936,8.976-2.628,18.257-4.849,27.585-6.6,9.6-1.8,19.562-3.17,29.611-4.061C1217.349.406,1228.076-.038,1238.925,0c11.1.04,22.672.587,34.4,1.626,11.973,1.06,24.479,2.664,37.172,4.769,12.931,2.145,26.454,4.874,40.193,8.114,13.975,3.295,28.6,7.217,43.468,11.658a1.5,1.5,0,1,1-.859,2.875C1283.205-3.841,1198-5.539,1125.158,23.7c-8.041,3.228-16.123,6.912-24.024,10.951-7.566,3.868-15.229,8.2-22.774,12.863a414.95,414.95,0,0,0-42.815,30.67c-27.686,22.4-53.941,48.191-81.738,75.5-27.22,26.744-55.366,54.4-87.476,81.476-17.381,14.657-34.174,27.681-51.339,39.817-9.345,6.607-18.9,13-28.388,19.012-9.995,6.327-20.26,12.437-30.511,18.161-8.854,4.943-17.793,9.568-26.568,13.747-8.609,4.1-17.316,7.889-25.879,11.266-8.387,3.307-16.885,6.315-25.259,8.941-8.186,2.567-16.5,4.846-24.708,6.773-8.007,1.88-16.158,3.482-24.226,4.762-7.849,1.245-15.86,2.224-23.811,2.909-7.71.664-15.6,1.072-23.463,1.214Q579,361.821,575.776,361.821Z" transform="translate(62.609 -1.499)" fill="#fff"/>
      <path id="Path_100739" data-name="Path 100739" d="M712.082,417.366c-6.826,0-13.742-.123-20.691-.367-21.631-.762-43.036-2.088-63.62-3.942-19.448-1.751-38.751-4.026-57.374-6.761-17.448-2.563-34.849-5.611-51.72-9.06-15.621-3.194-31.319-6.84-46.657-10.837C412.932,371,365.8,352.263,324.22,335.735c-26.565-10.559-51.656-20.533-75.669-27.856-26.523-8.089-49.325-12.227-71.759-13.024-25.668-.911-51.349,2.637-78.51,10.846-7.15,2.161-14.535,4.691-21.95,7.519-7.536,2.875-15.345,6.15-23.211,9.735a560.011,560.011,0,0,0-50.861,26.7,1.5,1.5,0,1,1-1.52-2.587,563.014,563.014,0,0,1,51.137-26.842c7.924-3.611,15.792-6.911,23.386-9.808,7.481-2.854,14.934-5.407,22.151-7.588,27.482-8.307,53.482-11.9,79.485-10.973,22.7.806,45.748,4.985,72.527,13.152,24.131,7.359,49.278,17.355,75.9,27.937,41.5,16.5,88.539,35.193,147.447,50.547C540.837,401.234,612.382,411.212,691.5,414c12.437.438,24.77.483,36.656.132,11.6-.342,23.1-1.07,34.2-2.164,10.807-1.066,21.536-2.509,31.888-4.291,10.067-1.732,20.07-3.834,29.732-6.248,9.376-2.342,18.7-5.046,27.728-8.037,8.734-2.9,17.44-6.145,25.876-9.658,8.142-3.391,16.276-7.13,24.177-11.113,7.6-3.83,15.211-8,22.63-12.4,7.1-4.21,14.245-8.76,21.234-13.523,6.65-4.531,13.375-9.4,19.989-14.479,12.179-9.348,24.23-19.541,36.841-31.163,23.378-21.544,44.7-44.383,65.313-66.47,42.5-45.526,82.634-88.526,134.293-113.641,6.556-3.187,13.274-6.067,19.969-8.559a219.263,219.263,0,0,1,21.207-6.688,223.153,223.153,0,0,1,22.6-4.633,239.016,239.016,0,0,1,24.145-2.395c8.381-.408,17.076-.4,25.844.023,8.969.433,18.288,1.313,27.7,2.618,9.609,1.332,19.605,3.145,29.712,5.39,10.3,2.289,21.03,5.095,31.885,8.34a1.5,1.5,0,1,1-.859,2.874c-10.786-3.225-21.443-6.013-31.676-8.286-10.028-2.228-19.944-4.027-29.474-5.347-9.323-1.292-18.552-2.164-27.432-2.593-8.671-.418-17.269-.426-25.554-.023a236.026,236.026,0,0,0-23.841,2.365,220.2,220.2,0,0,0-22.295,4.57,216.26,216.26,0,0,0-20.916,6.6c-6.605,2.459-13.235,5.3-19.7,8.446-51.157,24.871-91.111,67.674-133.411,112.99-20.655,22.127-42.012,45.008-65.473,66.629-12.678,11.683-24.8,21.933-37.047,31.337-6.659,5.111-13.43,10.016-20.126,14.579-7.041,4.8-14.239,9.382-21.394,13.625-7.477,4.434-15.152,8.639-22.81,12.5-7.966,4.015-16.166,7.785-24.374,11.2-8.5,3.542-17.281,6.818-26.086,9.737-9.094,3.015-18.5,5.74-27.945,8.1-9.734,2.431-19.811,4.549-29.95,6.294-10.423,1.794-21.224,3.247-32.1,4.319-11.161,1.1-22.736,1.833-34.4,2.177C722.933,417.287,717.536,417.366,712.082,417.366Z" transform="translate(63.498 -25.867)" fill="#fff"/>
      <path id="Path_100740" data-name="Path 100740" d="M798.372,270.745c-12.029,0-24.683-.482-37.755-1.441-15.808-1.16-32.846-3.063-50.64-5.657-16.587-2.418-33.833-5.411-52.723-9.149-16.847-3.334-34.643-7.192-54.406-11.8-36.735-8.557-75.122-18.525-112.245-28.163-115.174-29.905-233.2-60.549-338.888-60.549-40.4,0-78.993,4.476-114.948,15.182a1.5,1.5,0,0,1-.856-2.875c8.06-2.4,16.457-4.544,24.96-6.373,8.307-1.787,16.954-3.325,25.7-4.571a450.977,450.977,0,0,1,53.393-4.229c17.55-.386,36.273.117,55.65,1.5,18.075,1.287,37.4,3.385,57.439,6.237,18.628,2.651,37.849,5.921,58.762,10,18.6,3.625,38.1,7.805,59.617,12.779,39.919,9.229,80.59,19.789,119.923,30,37.105,9.634,75.474,19.6,112.172,28.146,19.73,4.6,37.494,8.447,54.308,11.775,18.84,3.728,36.037,6.712,52.574,9.123,17.723,2.584,34.689,4.479,50.426,5.633,16.8,1.233,32.906,1.673,47.864,1.31a351,351,0,0,0,44.887-3.842,260.144,260.144,0,0,0,41.5-9.816c9.34-3.078,18.571-6.4,27.437-9.866,8.432-3.3,16.807-6.841,24.892-10.526A480.481,480.481,0,0,0,990.909,211c26.66-15.574,49.308-32.056,71.21-47.994,20.536-14.945,39.934-29.06,61.935-42.107a378.481,378.481,0,0,1,35.074-18.478,360.35,360.35,0,0,1,40.523-15.766,425.89,425.89,0,0,1,47.994-12.316,568.589,568.589,0,0,1,57.5-8.14c21.354-1.973,44.583-3.065,69.04-3.247,25.537-.19,53.338.605,82.634,2.364a1.5,1.5,0,0,1-.089,3l-.091,0c-26.41-1.585-51.6-2.386-75-2.386q-3.746,0-7.428.027c-24.373.181-47.516,1.269-68.786,3.234a565.577,565.577,0,0,0-57.192,8.1,422.866,422.866,0,0,0-47.655,12.228c-58.1,18.735-96.274,46.513-136.687,75.922-21.962,15.982-44.672,32.509-71.462,48.159A483.475,483.475,0,0,1,948.661,236.3c-8.135,3.708-16.561,7.271-25.043,10.59-8.916,3.489-18.2,6.827-27.591,9.922a263.148,263.148,0,0,1-41.982,9.931,354.007,354.007,0,0,1-45.272,3.877Q803.658,270.745,798.372,270.745Z" transform="translate(-36.339 71.573)" fill="#fff"/>
    </g>
    <g id="Group_118546" data-name="Group 118546" transform="translate(-6150.165 -11452.918)" style="mix-blend-mode: overlay;isolation: isolate">
      <path id="Path_100738-2" data-name="Path 100738" d="M177.767,339.74l-1.331,0c-11.1-.038-22.667-.551-34.394-1.525-11.97-.995-24.475-2.5-37.165-4.475-12.93-2.012-26.451-4.574-40.188-7.613-13.973-3.092-28.6-6.773-43.464-10.94a1.5,1.5,0,1,1,.81-2.889C80.2,328.6,131.44,336.739,177.564,336.739c41.189,0,78.3-6.484,112.668-19.433,8.042-3.03,16.126-6.488,24.028-10.279,7.567-3.63,15.23-7.692,22.776-12.073a415.627,415.627,0,0,0,42.815-28.782c27.685-21.016,53.94-45.224,81.736-70.854,27.22-25.1,55.367-51.051,87.478-76.463,17.381-13.755,34.175-25.978,51.339-37.367,9.345-6.2,18.9-12.2,28.387-17.842,9.994-5.937,20.259-11.671,30.51-17.042,8.853-4.639,17.791-8.979,26.565-12.9,8.608-3.847,17.314-7.4,25.876-10.571,8.386-3.1,16.883-5.926,25.255-8.39,8.185-2.409,16.5-4.547,24.7-6.355,8.005-1.764,16.154-3.267,24.22-4.468,7.846-1.168,15.855-2.087,23.8-2.729A381.549,381.549,0,0,1,856.36.356C917.8,2.948,977.223,19.341,1040.131,36.7c50.372,13.9,102.459,28.267,160.363,37.088,14.97,2.281,29.936,4.116,44.481,5.456,15.621,1.439,31.37,2.364,46.811,2.749,16.393.408,33.023.223,49.429-.55,17.277-.815,34.885-2.309,52.335-4.441a1.5,1.5,0,1,1,.364,2.978c-17.524,2.141-35.206,3.642-52.557,4.46-10.8.509-21.694.764-32.554.764q-8.57,0-17.09-.212c-15.507-.386-31.324-1.315-47.011-2.76-14.6-1.346-29.629-3.189-44.658-5.478-26.006-3.962-53.279-9.432-83.376-16.723-26.653-6.457-52.417-13.565-77.333-20.439C912.729,4.66,803.389-25.505,660.695,49.262c-10.2,5.346-20.421,11.054-30.37,16.964-9.449,5.613-18.958,11.59-28.261,17.762-17.094,11.342-33.821,23.516-51.136,37.219-32.022,25.342-60.127,51.256-87.306,76.316-27.85,25.679-54.156,49.935-81.955,71.038a418.6,418.6,0,0,1-43.123,28.987c-7.614,4.42-15.347,8.519-22.985,12.183-7.98,3.828-16.145,7.321-24.268,10.381-8.434,3.177-17.114,6-25.8,8.384-8.973,2.465-18.252,4.549-27.578,6.193-9.6,1.692-19.557,2.974-29.6,3.81C198.427,339.323,188.158,339.74,177.767,339.74Z" transform="translate(-21.629 39.678)" fill="#fff"/>
      <path id="Path_185908" data-name="Path 185908" d="M177.767,339.74l-1.331,0c-11.1-.038-22.667-.551-34.394-1.525-11.97-.995-24.475-2.5-37.165-4.475-12.93-2.012-26.451-4.574-40.188-7.613-13.973-3.092-28.6-6.773-43.464-10.94a1.5,1.5,0,1,1,.81-2.889C80.2,328.6,131.44,336.739,177.564,336.739c41.189,0,78.3-6.484,112.668-19.433,8.042-3.03,16.126-6.488,24.028-10.279,7.567-3.63,15.23-7.692,22.776-12.073a415.627,415.627,0,0,0,42.815-28.782c27.685-21.016,53.94-45.224,81.736-70.854,27.22-25.1,55.367-51.051,87.478-76.463,17.381-13.755,34.175-25.978,51.339-37.367,9.345-6.2,18.9-12.2,28.387-17.842,9.994-5.937,20.259-11.671,30.51-17.042,8.853-4.639,17.791-8.979,26.565-12.9,8.608-3.847,17.314-7.4,25.876-10.571,8.386-3.1,16.883-5.926,25.255-8.39,8.185-2.409,16.5-4.547,24.7-6.355,8.005-1.764,16.154-3.267,24.22-4.468,7.846-1.168,15.855-2.087,23.8-2.729A381.549,381.549,0,0,1,856.36.356C917.8,2.948,977.223,19.341,1040.131,36.7c50.372,13.9,102.459,28.267,160.363,37.088,14.97,2.281,29.936,4.116,44.481,5.456,15.621,1.439,31.37,2.364,46.811,2.749,16.393.408,33.023.223,49.429-.55,17.277-.815,34.885-2.309,52.335-4.441a1.5,1.5,0,1,1,.364,2.978c-17.524,2.141-35.206,3.642-52.557,4.46-10.8.509-21.694.764-32.554.764q-8.57,0-17.09-.212c-15.507-.386-31.324-1.315-47.011-2.76-14.6-1.346-29.629-3.189-44.658-5.478-26.006-3.962-53.279-9.432-83.376-16.723-26.653-6.457-52.417-13.565-77.333-20.439C912.729,4.66,803.389-25.505,660.695,49.262c-10.2,5.346-20.421,11.054-30.37,16.964-9.449,5.613-18.958,11.59-28.261,17.762-17.094,11.342-33.821,23.516-51.136,37.219-32.022,25.342-60.127,51.256-87.306,76.316-27.85,25.679-54.156,49.935-81.955,71.038a418.6,418.6,0,0,1-43.123,28.987c-7.614,4.42-15.347,8.519-22.985,12.183-7.98,3.828-16.145,7.321-24.268,10.381-8.434,3.177-17.114,6-25.8,8.384-8.973,2.465-18.252,4.549-27.578,6.193-9.6,1.692-19.557,2.974-29.6,3.81C198.427,339.323,188.158,339.74,177.767,339.74Z" transform="translate(613.731 425.678)" fill="#fff"/>
      <path id="Path_100739-2" data-name="Path 100739" d="M103.667,370.916c-4.391,0-8.83-.092-13.29-.275-8.962-.369-18.275-1.12-27.68-2.231-9.6-1.135-19.595-2.681-29.7-4.6C22.7,361.862,11.98,359.47,1.129,356.7a1.5,1.5,0,1,1,.741-2.907c10.79,2.752,21.452,5.131,31.689,7.071,10.033,1.9,19.955,3.437,29.489,4.564,9.329,1.1,18.565,1.847,27.451,2.213,8.679.357,17.283.364,25.575.019,8.081-.336,16.11-1.015,23.863-2.019,7.537-.976,15.045-2.289,22.315-3.9,7.047-1.564,14.09-3.458,20.933-5.631,6.61-2.1,13.243-4.524,19.716-7.209,51.165-21.219,91.117-57.728,133.415-96.381,20.656-18.876,42.015-38.395,65.478-56.839,12.678-9.967,24.8-18.711,37.049-26.732a426.8,426.8,0,0,1,41.516-24.055,406.169,406.169,0,0,1,47.171-20.213c8.5-3.02,17.275-5.814,26.075-8.3,9.09-2.57,18.488-4.894,27.932-6.906,9.729-2.073,19.8-3.879,29.936-5.366,10.418-1.529,21.214-2.768,32.087-3.683,11.157-.938,22.726-1.563,34.387-1.856,11.945-.3,24.339-.263,36.835.113,79.321,2.384,151.064,10.921,219.327,26.1,59.077,13.135,106.2,29.113,147.779,43.21,26.568,9.008,51.662,17.517,75.681,23.765,26.54,6.9,49.358,10.437,71.811,11.117,25.692.778,51.4-2.251,78.578-9.259a404.009,404.009,0,0,0,45.181-14.724c16.026-6.23,33.141-13.894,50.871-22.778a1.5,1.5,0,0,1,1.344,2.682c-17.813,8.926-35.015,16.628-51.128,22.893a407.015,407.015,0,0,1-45.518,14.833c-27.461,7.08-53.439,10.14-79.417,9.353-22.683-.687-45.713-4.249-72.475-11.212-24.124-6.276-49.268-14.8-75.889-23.827-41.505-14.073-88.549-30.023-147.467-43.123-68.077-15.135-139.636-23.649-218.766-26.027-12.442-.374-24.78-.412-36.67-.113-11.6.292-23.113.913-34.211,1.847-10.812.909-21.546,2.141-31.9,3.662-10.072,1.478-20.08,3.272-29.746,5.332-9.38,2-18.714,4.307-27.741,6.859-8.738,2.471-17.448,5.243-25.887,8.242a403.142,403.142,0,0,0-46.821,20.063,423.791,423.791,0,0,0-41.227,23.888c-12.179,7.973-24.229,16.668-36.839,26.581-23.376,18.376-44.693,37.856-65.308,56.7-42.5,38.836-82.638,75.518-134.289,96.938-6.552,2.717-13.267,5.172-19.957,7.3-6.928,2.2-14.057,4.118-21.191,5.7-7.357,1.632-14.954,2.961-22.579,3.948-7.839,1.015-15.955,1.7-24.123,2.041C112.089,370.831,107.9,370.916,103.667,370.916Z" transform="translate(0.72 -99.867)" fill="#fff"/>
      <path id="Path_100740-2" data-name="Path 100740" d="M108.763,289.044c-22.633,0-46.991-.874-72.525-2.606a1.5,1.5,0,1,1,.2-2.993c25.464,1.726,49.754,2.6,72.317,2.6q3.615,0,7.167-.03c23.5-.2,45.813-1.382,66.32-3.522a486.785,486.785,0,0,0,55.134-8.816c8.189-1.826,16.261-3.893,23.993-6.144,7.464-2.172,14.847-4.585,21.944-7.169,56.016-20.4,92.825-50.656,131.795-82.687,21.182-17.411,43.086-35.414,68.926-52.465a449.654,449.654,0,0,1,42.215-24.743c7.848-4.041,15.977-7.923,24.16-11.54,8.6-3.8,17.558-7.439,26.618-10.812,6.368-2.37,13.043-4.489,19.839-6.3,6.648-1.769,13.607-3.293,20.683-4.53a303.485,303.485,0,0,1,43.693-4.226A425.181,425.181,0,0,1,707.714,64.5c15.252,1.264,31.689,3.338,48.856,6.164,16,2.635,32.638,5.9,50.86,9.968,16.25,3.632,33.416,7.836,52.479,12.851,35.432,9.323,72.455,20.18,108.259,30.681,111.066,32.573,224.874,65.949,326.779,65.949,38.943,0,76.143-4.873,110.8-16.527a1.5,1.5,0,1,1,.956,2.843c-7.778,2.616-15.882,4.954-24.088,6.947-8.017,1.948-16.362,3.624-24.8,4.982a386.383,386.383,0,0,1-51.523,4.61,514.455,514.455,0,0,1-53.694-1.631c-17.438-1.4-36.082-3.688-55.413-6.8-17.97-2.889-36.511-6.452-56.684-10.893-17.94-3.949-36.75-8.5-57.5-13.923-38.5-10.054-77.729-21.558-115.664-32.683-35.784-10.495-72.787-21.346-108.178-30.658-19.026-5.006-36.156-9.2-52.37-12.825-18.166-4.06-34.748-7.31-50.693-9.936C739,70.81,722.638,68.746,707.466,67.489a422.156,422.156,0,0,0-46.138-1.426,300.485,300.485,0,0,0-43.259,4.182c-6.99,1.222-13.864,2.727-20.428,4.474-6.7,1.784-13.286,3.873-19.564,6.21-74.085,27.575-118.3,63.918-161.061,99.065-19.807,16.28-38.516,31.658-59.737,45.872A352.748,352.748,0,0,1,323.442,246a324.815,324.815,0,0,1-39.1,17.182c-7.159,2.607-14.605,5.04-22.132,7.231-7.793,2.268-15.928,4.352-24.179,6.191a489.737,489.737,0,0,1-55.476,8.871c-20.6,2.15-43.012,3.34-66.606,3.538Q112.387,289.044,108.763,289.044Z" transform="translate(-34.119 -15.247)" fill="#fff"/>
    </g>
  </g>
</svg>
