<svg id="t1-d1" xmlns="http://www.w3.org/2000/svg" xmlns:xlink="http://www.w3.org/1999/xlink" width="80" height="80" viewBox="0 0 80 80">
  <defs>
    <clipPath id="clip-path">
      <rect id="Rectangle_36721" data-name="Rectangle 36721" width="80" height="80" fill="none"/>
    </clipPath>
  </defs>
  <g id="Group_117218" data-name="Group 117218" transform="translate(0 0)" clip-path="url(#clip-path)">
    <path id="Path_179367" data-name="Path 179367" d="M80,40A40,40,0,1,1,40,0,40,40,0,0,1,80,40" transform="translate(0 0)" fill="#ffd341"/>
    <path id="Path_179368" data-name="Path 179368" d="M72.626,3.7a1.612,1.612,0,0,1,1.9.4q3.2,3.191,6.4,6.4a1.634,1.634,0,0,1,.449,1.8,8.4,8.4,0,0,1-1.407,1.624c-2.082-2.054-4.126-4.144-6.213-6.191-.9-.866-1.768-1.764-2.657-2.641A10.041,10.041,0,0,1,72.626,3.7" transform="translate(-4.784 -0.238)" fill="#582469"/>
    <path id="Path_179369" data-name="Path 179369" d="M28.779,47.177c.325-.326.648-.657.977-.979.9.887,1.784,1.782,2.677,2.673,2.055,2.064,4.128,4.11,6.172,6.184-.7.661-1.384,1.346-2.052,2.041a3.742,3.742,0,0,1-2.308,1.289,3,3,0,0,1-1.892-.464,2.8,2.8,0,0,0-.632-.386c-.766.667-1.432,1.442-2.169,2.142q-2.237-2.192-4.429-4.43c.715-.734,1.458-1.438,2.169-2.176a4.29,4.29,0,0,1-.8-1.518,3.079,3.079,0,0,1,.472-2.46,23.636,23.636,0,0,1,1.817-1.916" transform="translate(-1.69 -3.109)" fill="#582469"/>
    <path id="Path_179370" data-name="Path 179370" d="M65.733,7.74c.914-.8,1.722-1.717,2.606-2.552C69.228,6.067,70.1,6.965,71,7.83Q53.81,25.06,36.59,42.252c-1.278,1.283-2.584,2.538-3.823,3.86-.892-.891-1.78-1.786-2.676-2.673q7.225-7.205,14.431-14.43.579-.569,1.148-1.147,1.177-1.164,2.344-2.34t2.346-2.346q1.174-1.168,2.343-2.343t2.342-2.342c3.521-3.512,7.029-7.038,10.552-10.542.035-.053.1-.157.136-.208" transform="translate(-2.025 -0.349)" fill="#62c065"/>
    <path id="Path_179371" data-name="Path 179371" d="M71.19,8.021c2.086,2.047,4.13,4.138,6.212,6.19-.912.955-1.855,1.879-2.8,2.8q-5.5,5.521-11.014,11.023-1.164,1.17-2.332,2.333Q50.188,41.422,39.133,52.486c-2.045-2.074-4.118-4.12-6.173-6.184,1.24-1.322,2.545-2.577,3.824-3.86Q53.976,25.223,71.19,8.021" transform="translate(-2.218 -0.54)" fill="#95e17a"/>
    <path id="Path_179372" data-name="Path 179372" d="M38.856,13.226a.4.4,0,0,1,.62-.019c.633.625,1.275,1.242,1.879,1.892.284.287-.1.6-.3.8q-2.925,2.913-5.839,5.839-.919.909-1.83,1.828c-2.61,2.595-5.2,5.214-7.815,7.8a.706.706,0,0,1-1.058-.061q-3.331-3.316-6.65-6.644c-.183-.166-.386-.464-.136-.669.6-.647,1.24-1.268,1.877-1.883a.394.394,0,0,1,.617.039c1.52,1.5,3.015,3.027,4.536,4.524a.4.4,0,0,0,.645-.009q3.17-3.152,6.325-6.319.83-.824,1.655-1.653,2.735-2.731,5.47-5.466" transform="translate(-1.185 -0.879)" fill="#a042bf"/>
    <path id="Path_179373" data-name="Path 179373" d="M23.1,57.991a11.531,11.531,0,0,1,1.859-2.09q2.19,2.237,4.429,4.429a10.4,10.4,0,0,1-2.184,1.9,5.68,5.68,0,0,1-2.552.311c-.575-.014-1.153.036-1.725-.031-.31-.264-.146-.738-.187-1.091.065-1.144-.2-2.375.361-3.432" transform="translate(-1.53 -3.761)" fill="#a042bf"/>
    <path id="Path_179374" data-name="Path 179374" d="M22.437,15.016A11.346,11.346,0,0,1,33.086,18.81c-.552.552-1.1,1.1-1.655,1.654a9.1,9.1,0,0,0-5.081-3.089A8.977,8.977,0,1,0,32.9,29.25a8.761,8.761,0,0,0,.187-5.567q.911-.918,1.829-1.828a10.75,10.75,0,0,1,.827,5.393,11.315,11.315,0,1,1-13.31-12.232" transform="translate(-0.885 -0.998)" fill="#fea521"/>
    <path id="Path_179375" data-name="Path 179375" d="M20.571,47.36a11.42,11.42,0,0,1,7.4-.151,23.632,23.632,0,0,0-1.817,1.915,9.446,9.446,0,0,0-5.859.918A8.976,8.976,0,1,0,33.44,58.416a3.747,3.747,0,0,0,2.308-1.289A11.3,11.3,0,1,1,20.571,47.36" transform="translate(-0.885 -3.14)" fill="#fea521"/>
    <path id="Path_179376" data-name="Path 179376" d="M45.559,19.75c0-.336.384-.312.617-.32,3.3.014,6.6-.018,9.907.019q-1.17,1.174-2.342,2.342c-2.71-.064-5.424.056-8.13-.062a8.219,8.219,0,0,1-.053-1.979" transform="translate(-3.063 -1.308)" fill="#fe7f05"/>
    <path id="Path_179377" data-name="Path 179377" d="M45.738,24.492c1.881-.075,3.774-.028,5.66-.021q-1.172,1.175-2.346,2.346c-1.144-.057-2.292.044-3.434-.062a7.167,7.167,0,0,1-.035-2.114l.155-.15" transform="translate(-3.063 -1.645)" fill="#fe7f05"/>
    <path id="Path_179378" data-name="Path 179378" d="M45.634,29.568a2.828,2.828,0,0,1,1.075-.072c-.381.386-.763.767-1.149,1.147a2.3,2.3,0,0,1,.074-1.075" transform="translate(-3.064 -1.984)" fill="#fe7f05"/>
    <path id="Path_179379" data-name="Path 179379" d="M63.3,31.815q1.167-1.165,2.333-2.333c1.572.009,3.145-.011,4.719.007.173,0,.469.057.447.289a12.578,12.578,0,0,1,0,1.749c-.021.3-.373.3-.594.3-2.3-.011-4.6.014-6.906-.014" transform="translate(-4.259 -1.984)" fill="#fe7f05"/>
    <path id="Path_179380" data-name="Path 179380" d="M45.74,51.3a5.24,5.24,0,0,1,1.069-.042q11.093,0,22.185,0c.232,0,.6-.008.616.308a5.88,5.88,0,0,1-.094,1.939,5.4,5.4,0,0,1-1.614.1q-10.861,0-21.724,0c-.234,0-.623.025-.625-.312a10.926,10.926,0,0,1,.03-1.865l.158-.127" transform="translate(-3.063 -3.449)" fill="#fe7f05"/>
    <path id="Path_179381" data-name="Path 179381" d="M45.742,56.321c5.561-.081,11.131-.011,16.7-.035.775.025,1.558-.054,2.328.042.317.307.118.819.176,1.213-.031.374.159,1.141-.449,1.085-6.1.014-12.207,0-18.311.007-.241,0-.611.023-.631-.312a10.308,10.308,0,0,1,.035-1.851l.155-.148" transform="translate(-3.063 -3.787)" fill="#fe7f05"/>
    <path id="Path_179382" data-name="Path 179382" d="M45.73,61.344c2.49-.074,4.989-.009,7.484-.032q7.894,0,15.789,0c.224,0,.588-.009.606.3a11.432,11.432,0,0,1-.028,1.865c-.117.2-.381.175-.578.183q-11.486-.007-22.977,0c-.642.091-.473-.692-.493-1.088.058-.4-.147-.93.2-1.224" transform="translate(-3.063 -4.125)" fill="#fe7f05"/>
  </g>
</svg>
