<svg xmlns="http://www.w3.org/2000/svg" xmlns:xlink="http://www.w3.org/1999/xlink" width="189.999" height="100" viewBox="0 0 189.999 100">
  <defs>
    <linearGradient id="linear-gradient" x1="0.5" x2="0.5" y2="1" gradientUnits="objectBoundingBox">
      <stop offset="0" stop-color="#ffd341"/>
      <stop offset="1" stop-color="#ffbd31"/>
    </linearGradient>
    <linearGradient id="linear-gradient-2" x1="0.5" x2="0.5" y2="1" gradientUnits="objectBoundingBox">
      <stop offset="0" stop-color="#95e17a"/>
      <stop offset="1" stop-color="#3aa255"/>
    </linearGradient>
    <linearGradient id="linear-gradient-5" x1="0.5" x2="0.5" y2="1" gradientUnits="objectBoundingBox">
      <stop offset="0" stop-color="#a042bf"/>
      <stop offset="1" stop-color="#8126b2"/>
    </linearGradient>
  </defs>
  <g id="t1-ic1" transform="translate(-180 -2525)">
    <path id="Path_179383" data-name="Path 179383" d="M22.289,24.943C-1.96,45.272-7.5,10.168,11.007,2.292S42.46,8.032,22.289,24.943" transform="translate(180 2525)" fill="url(#linear-gradient)"/>
    <path id="Path_179384" data-name="Path 179384" d="M41.724,25.739c-5.6,6.076-17.01.9-9.594-7.064,8.854-9.515,15.191.988,9.594,7.064" transform="translate(181.499 2525.749)" fill="url(#linear-gradient-2)"/>
    <path id="Path_179385" data-name="Path 179385" d="M167.906,75.089c25.308-21.217,31.087,15.42,11.775,23.641s-32.827-5.99-11.775-23.641" transform="translate(178.831 2523.878)" fill="url(#linear-gradient-2)"/>
    <path id="Path_179386" data-name="Path 179386" d="M141.738,79.283c4.141-8.157,17.859-6.073,12.349,4.647-6.58,12.8-16.489,3.51-12.349-4.647" transform="translate(178.242 2524.082)" fill="url(#linear-gradient)"/>
    <path id="Path_179387" data-name="Path 179387" d="M181.455,65.306c6.068-.231,8.621-9.082.626-8.736-9.547.412-6.694,8.967-.626,8.736" transform="translate(178.629 2520.772)" fill="url(#linear-gradient-5)"/>
    <g id="worker" transform="translate(235 2533)">
      <path id="Path_155668" data-name="Path 155668" d="M9.069,28.625h2.778A1.617,1.617,0,0,0,13.4,27.419a19.878,19.878,0,0,1,1.936-4.661,1.584,1.584,0,0,0-.241-1.914l-1.984-1.984a1.57,1.57,0,0,1,0-2.221l3.525-3.525a1.57,1.57,0,0,1,2.221,0L20.844,15.1a1.584,1.584,0,0,0,1.914.241A19.867,19.867,0,0,1,27.419,13.4a1.617,1.617,0,0,0,1.206-1.554V9.071A1.571,1.571,0,0,1,30.195,7.5h4.984A1.57,1.57,0,0,1,36.75,9.071v2.778A1.617,1.617,0,0,0,37.955,13.4a19.855,19.855,0,0,1,4.661,1.936,1.584,1.584,0,0,0,1.914-.241l1.984-1.984a1.57,1.57,0,0,1,2.221,0L52.26,16.64a1.57,1.57,0,0,1,0,2.221l-1.984,1.984a1.585,1.585,0,0,0-.241,1.914,19.839,19.839,0,0,1,1.936,4.661,1.617,1.617,0,0,0,1.554,1.206H56.3A1.571,1.571,0,0,1,57.875,30.2V35.18A1.57,1.57,0,0,1,56.3,36.751H53.527a1.617,1.617,0,0,0-1.554,1.206,19.861,19.861,0,0,1-1.936,4.66,1.585,1.585,0,0,0,.241,1.914l1.984,1.984a1.57,1.57,0,0,1,0,2.221l-3.524,3.525a1.57,1.57,0,0,1-2.221,0l-1.984-1.984a1.584,1.584,0,0,0-1.914-.241,19.878,19.878,0,0,1-4.661,1.936,1.618,1.618,0,0,0-1.206,1.555v2.778a1.57,1.57,0,0,1-1.57,1.571H30.195a1.57,1.57,0,0,1-1.57-1.571V53.528a1.619,1.619,0,0,0-1.206-1.555,19.877,19.877,0,0,1-4.661-1.936,1.584,1.584,0,0,0-1.914.241L18.86,52.261a1.57,1.57,0,0,1-2.221,0l-3.525-3.525a1.57,1.57,0,0,1,0-2.221L15.1,44.532a1.585,1.585,0,0,0,.241-1.914A19.866,19.866,0,0,1,13.4,37.957a1.617,1.617,0,0,0-1.554-1.206H9.07A1.57,1.57,0,0,1,7.5,35.18V30.2a1.569,1.569,0,0,1,1.57-1.571ZM32.687,43.178A10.49,10.49,0,1,0,22.2,32.688,10.49,10.49,0,0,0,32.687,43.178Zm0,0" transform="translate(21.627 -6.255)" fill="#a042bf" opacity="0.7"/>
      <path id="Path_155669" data-name="Path 155669" d="M221.211,284.5l4.484-8.882v-9.722h13.833v9.722l4.484,8.882Zm0,0" transform="translate(-199.991 -221.749)" fill="#ffba9a"/>
      <path id="Path_155670" data-name="Path 155670" d="M311.012,265.891v18.6h-9.465l4.484-8.882v-9.722Zm0,0" transform="translate(-280.326 -221.749)" fill="#ffa799"/>
      <path id="Path_155671" data-name="Path 155671" d="M195.323,109.752h.877v-3.5a12,12,0,0,1,4.065-9.122,13.187,13.187,0,0,1,17.624,0,12,12,0,0,1,4.065,9.122v3.5h.877a2.331,2.331,0,0,1,2.331,2.331v2.582A2.331,2.331,0,0,1,222.833,117h-.881a11.983,11.983,0,0,1-4.062,8.849,13.187,13.187,0,0,1-17.624,0A11.978,11.978,0,0,1,196.2,117h-.882a2.331,2.331,0,0,1-2.331-2.331v-2.582a2.332,2.332,0,0,1,2.331-2.331Zm0,0" transform="translate(-176.456 -78.193)" fill="#ffba9a"/>
      <path id="Path_155672" data-name="Path 155672" d="M305.7,122.457h.877v-3.5a12,12,0,0,1,4.065-9.122c.338-.291.7-.575,1.083-.848l0,22.792a11.983,11.983,0,0,0,4.062,8.849,14.827,14.827,0,0,0,1.427,1.085,13.639,13.639,0,0,1-6.574-3.169,11.983,11.983,0,0,1-4.061-8.849H305.7a2.331,2.331,0,0,1-2.331-2.331v-2.582a2.332,2.332,0,0,1,2.331-2.331Zm0,0" transform="translate(-286.831 -90.898)" fill="#ffa799"/>
      <path id="Path_155673" data-name="Path 155673" d="M211.309,70.328h1.348a14.833,14.833,0,0,1,14.833,14.833v4.271H196.476V85.161a14.833,14.833,0,0,1,14.833-14.833Zm0,0" transform="translate(-179.362 -58.653)" fill="#ffd341"/>
      <path id="Path_155674" data-name="Path 155674" d="M289.434,70.328h1.348a14.97,14.97,0,0,1,1.863.118,14.836,14.836,0,0,0-12.953,14.715v4.27H274.6v-4.27a14.833,14.833,0,0,1,14.833-14.833Zm0,0" transform="translate(-257.487 -58.652)" fill="#fea521"/>
      <path id="Path_155675" data-name="Path 155675" d="M182.822,176.891h31.966a2.147,2.147,0,1,0,0-4.294H182.822a2.147,2.147,0,0,0,0,4.294Zm0,0" transform="translate(-166.183 -143.944)" fill="#fea521"/>
      <path id="Path_155676" data-name="Path 155676" d="M110.4,327.359l14.943-2.906c0,3.82,6.917,6.917,6.917,6.917s6.917-3.1,6.917-6.917l14.943,2.906c5.643,1.661,9.517,4.609,9.517,10.491v12.665a3.828,3.828,0,0,1-3.829,3.829h-55.1a3.828,3.828,0,0,1-3.829-3.829V337.85C100.883,331.968,104.757,329.02,110.4,327.359Zm0,0" transform="translate(-99.638 -270.589)" fill="#deecf1"/>
      <path id="Path_155677" data-name="Path 155677" d="M444.794,347.836a9.445,9.445,0,0,0-1.805,5.863v20.146h-1.152a3.828,3.828,0,0,1-3.828-3.829V357.351c0-4.875,2.663-7.733,6.786-9.515Zm0,0" transform="translate(-436.763 -290.09)" fill="#a8d3d8"/>
      <path id="Path_155678" data-name="Path 155678" d="M221.409,324.453l5.6,1.089c-.333,3.1-3.087,5.91-5.927,8.019a2.452,2.452,0,0,1-2.721.128l-3.868-2.32s6.916-3.1,6.916-6.917Zm0,0" transform="translate(-181.871 -270.589)" fill="#8ebac5"/>
      <path id="Path_155679" data-name="Path 155679" d="M295.483,324.453c0,3.82,6.917,6.917,6.917,6.917l-3.868,2.319a2.45,2.45,0,0,1-2.721-.128c-2.84-2.11-5.594-4.916-5.927-8.019Zm0,0" transform="translate(-269.778 -270.589)" fill="#8ebac5"/>
      <path id="Path_155680" data-name="Path 155680" d="M169.7,333.537l-.833,2.787a51.7,51.7,0,0,0-2.05,14.415v9.078H145.773V352.3a10.25,10.25,0,0,1,1.868-5.9c3.489-4.959,10.648-15.383,10.648-15.383l8.012,1.558a20.2,20.2,0,0,1,3.4.964Zm0,0" transform="translate(-113.712 -276.062)" fill="#ffd341"/>
      <path id="Path_155681" data-name="Path 155681" d="M289.883,333.537l.833,2.787a51.7,51.7,0,0,1,2.051,14.415v9.078h21.041V352.3a10.25,10.25,0,0,0-1.868-5.9c-3.49-4.959-10.649-15.383-10.649-15.383l-8.012,1.558a20.213,20.213,0,0,0-3.4.964Zm0,0" transform="translate(-281.747 -276.062)" fill="#fea521"/>
      <path id="Path_155682" data-name="Path 155682" d="M326.329,445.544h7.323a.884.884,0,0,0,.884-.884v-2.495a.884.884,0,0,0-.884-.884h-7.323a.884.884,0,0,0-.884.884v2.495A.884.884,0,0,0,326.329,445.544Zm0,0" transform="translate(-307.818 -368.022)" fill="#95e17a"/>
      <path id="Path_155683" data-name="Path 155683" d="M320.074,440.534H327.4a2.132,2.132,0,0,0,2.129-2.129V435.91a2.132,2.132,0,0,0-2.129-2.129h-7.323a2.132,2.132,0,0,0-2.129,2.129v2.495A2.132,2.132,0,0,0,320.074,440.534Zm6.962-2.49h-6.6v-1.772h6.6Zm0,0" transform="translate(-301.563 -361.767)"/>
      <path id="Path_155684" data-name="Path 155684" d="M15.192,52.867h4.984a2.819,2.819,0,0,0,2.816-2.816V47.273a.373.373,0,0,1,.288-.353,21.1,21.1,0,0,0,4.953-2.058.34.34,0,0,1,.414.041l1.984,1.984a2.817,2.817,0,0,0,3.982,0l3.525-3.525a2.815,2.815,0,0,0,0-3.982L36.154,37.4a.338.338,0,0,1-.041-.414,21.129,21.129,0,0,0,2.057-4.953.373.373,0,0,1,.353-.288H41.3a2.819,2.819,0,0,0,2.816-2.816V23.941A2.819,2.819,0,0,0,41.3,21.125H38.523a.373.373,0,0,1-.353-.288,21.126,21.126,0,0,0-2.058-4.953.34.34,0,0,1,.041-.414l1.984-1.984a2.815,2.815,0,0,0,0-3.982L34.613,5.98a2.817,2.817,0,0,0-3.982,0L28.647,7.964A.339.339,0,0,1,28.233,8,21.126,21.126,0,0,0,23.28,5.947a.372.372,0,0,1-.289-.353V2.816A2.819,2.819,0,0,0,20.176,0H15.191a2.819,2.819,0,0,0-2.816,2.816V5.594a.371.371,0,0,1-.288.353A21.14,21.14,0,0,0,7.135,8a.34.34,0,0,1-.414-.041L4.737,5.98a2.815,2.815,0,0,0-3.982,0l-.373.373A1.245,1.245,0,0,0,2.142,8.114c.23-.2.524-.683.833-.373L4.96,9.725a2.837,2.837,0,0,0,3.414.44,18.661,18.661,0,0,1,4.368-1.815,2.872,2.872,0,0,0,2.124-2.756V2.816a.326.326,0,0,1,.326-.326h4.984a.326.326,0,0,1,.325.326V5.594A2.872,2.872,0,0,0,22.625,8.35a18.652,18.652,0,0,1,4.369,1.814,2.837,2.837,0,0,0,3.414-.44l1.984-1.984a.325.325,0,0,1,.46,0l3.525,3.525a.325.325,0,0,1,0,.46L34.392,13.71a2.837,2.837,0,0,0-.44,3.414,18.665,18.665,0,0,1,1.815,4.369,2.871,2.871,0,0,0,2.755,2.123H41.3a.326.326,0,0,1,.326.326v4.984a.326.326,0,0,1-.326.326H38.523a2.872,2.872,0,0,0-2.756,2.123,18.613,18.613,0,0,1-1.815,4.369,2.837,2.837,0,0,0,.44,3.414l1.984,1.984a.318.318,0,0,1,.1.23.322.322,0,0,1-.1.23l-3.525,3.524a.325.325,0,0,1-.46,0l-1.984-1.984a2.837,2.837,0,0,0-3.414-.44,18.649,18.649,0,0,1-4.368,1.815A2.872,2.872,0,0,0,20.5,47.273v2.778a.326.326,0,0,1-.325.326H15.192a.326.326,0,0,1-.326-.326V47.273a2.872,2.872,0,0,0-2.124-2.756,1.245,1.245,0,0,0-.655,2.4.373.373,0,0,1,.289.354v2.778a2.819,2.819,0,0,0,2.816,2.816Zm0,0" transform="translate(36.63 0)"/>
      <path id="Path_155685" data-name="Path 155685" d="M105.244,100.227A11.75,11.75,0,0,0,89.337,89.257a1.245,1.245,0,0,0,.887,2.327,9.246,9.246,0,1,1,2.733,17.872,1.245,1.245,0,0,0-.147,2.486,11.748,11.748,0,0,0,12.434-11.715Zm0,0" transform="translate(-39.196 -73.794)"/>
      <path id="Path_155686" data-name="Path 155686" d="M105.231,107.689l12.616-2.453v-3.117a13.17,13.17,0,0,1-5.879-9.684,3.58,3.58,0,0,1-3.29-3.564V86.312a3.4,3.4,0,0,1,.578-6.417v-.988a16.079,16.079,0,0,1,16.078-16.079h1.348a16.078,16.078,0,0,1,16.078,16.078v.988a3.4,3.4,0,0,1,.578,6.417v2.559a3.58,3.58,0,0,1-3.29,3.564,13.134,13.134,0,0,1-4.416,8.559,16.364,16.364,0,0,1-1.462,1.125v3.117l12.616,2.453c6.656,1.294,11.844,5.047,11.844,11.97v12.664a5.074,5.074,0,0,1-5.074,5.074H98.46a5.074,5.074,0,0,1-5.074-5.074V119.659c0-6.9,5.156-10.67,11.844-11.97Zm10.364.521c.9,1.314,2.286,3.321,3.779,5.482a1.812,1.812,0,0,0,2.126.738l1.967-1.18c-1.918-1.133-4.573-3.078-5.378-5.525Zm10.414,3.588c1.891-.952,5.661-3.3,5.671-5.527v-2.778a14.3,14.3,0,0,1-11.343,0v2.768C120.337,108.489,124.116,110.846,126.009,111.8ZM140.27,78.907a13.6,13.6,0,0,0-7.01-11.886v1.561a1.245,1.245,0,0,1-2.49,0V65.947a13.5,13.5,0,0,0-3.517-.616v6.157a1.245,1.245,0,0,1-2.49,0V65.331a13.5,13.5,0,0,0-3.517.616v2.634a1.245,1.245,0,0,1-2.49,0V67.02a13.6,13.6,0,0,0-7.01,11.886v.9H140.27Zm1.721,3.39H110.025a.9.9,0,0,0,0,1.8h31.966A.9.9,0,0,0,141.991,82.3Zm-4.354,8.877a1.245,1.245,0,0,1,1.245-1.219c.208-.051,1.967.324,1.967-1.085V86.591H111.168v2.279c0,1.406,1.806,1.045,1.967,1.085a1.246,1.246,0,0,1,1.245,1.219,10.737,10.737,0,0,0,3.629,7.932,11.954,11.954,0,0,0,16,0,10.736,10.736,0,0,0,3.63-7.932Zm-3.709,16.552c-.806,2.447-3.46,4.392-5.379,5.525,1.971,1.056,1.832,1.372,2.728,1.266a1.964,1.964,0,0,0,1.376-.839c1.489-2.156,2.866-4.156,3.769-5.467Zm14.366,27.182h5.262a2.584,2.584,0,0,0,2.584-2.584V119.659c0-3.731-1.7-6.311-5.414-8.093a51.212,51.212,0,0,0-2.432,15.508Zm-21.041,0H145.8v-7.833a52.249,52.249,0,0,1,2.6-16.434c-1.454-.483-.374-.111-9.316-1.911-2.57,3.735-7.366,10.7-10.194,14.722a8.961,8.961,0,0,0-1.641,5.184Zm-1.245-11.48a11.718,11.718,0,0,1,.849-1.409c.956-1.358,2.2-3.14,3.491-5.008a3.732,3.732,0,0,1-1.112-.444l-3.228-1.936-3.228,1.936a3.726,3.726,0,0,1-1.112.444c1.294,1.867,2.535,3.649,3.491,5.008A11.64,11.64,0,0,1,126.009,123.427Zm-30.132,8.9a2.583,2.583,0,0,0,2.584,2.584h5.262v-4.7a1.245,1.245,0,0,1,2.49,0v4.7h18.551v-6.273a8.962,8.962,0,0,0-1.641-5.183c-1.608-2.286-8.23-11.842-10.194-14.722-8.938,1.8-7.86,1.427-9.316,1.911a54.3,54.3,0,0,1,2.565,14.538,1.245,1.245,0,0,1-2.488.09,49.8,49.8,0,0,0-2.4-13.7c-3.718,1.782-5.414,4.362-5.414,8.093Zm0,0" transform="translate(-93.387 -52.398)"/>
    </g>
  </g>
</svg>
