<svg xmlns="http://www.w3.org/2000/svg" xmlns:xlink="http://www.w3.org/1999/xlink" width="400" height="240" viewBox="0 0 400 240">
  <defs>
    <filter id="Ellipse_4900" x="129.5" y="7.5" width="141" height="141" filterUnits="userSpaceOnUse">
      <feOffset dy="5" input="SourceAlpha"/>
      <feGaussianBlur stdDeviation="3.5" result="blur"/>
      <feFlood flood-opacity="0.122"/>
      <feComposite operator="in" in2="blur"/>
      <feComposite in="SourceGraphic"/>
    </filter>
  </defs>
  <g id="t2-card1" transform="translate(2749 8476)">
    <rect id="Rectangle_38395" data-name="Rectangle 38395" width="400" height="240" rx="20" transform="translate(-2749 -8476)" fill="#d4f3ca" opacity="0"/>
    <path id="Path_186221" data-name="Path 186221" d="M89.376,18.1h6.563V21H85.605V5.359h3.771Zm7.53-3.019a6.86,6.86,0,0,1,.677-3.1,4.84,4.84,0,0,1,1.944-2.089,5.856,5.856,0,0,1,2.976-.73,5.344,5.344,0,0,1,4.114,1.617,6.2,6.2,0,0,1,1.5,4.4v.129a6.019,6.019,0,0,1-1.509,4.313,5.359,5.359,0,0,1-4.087,1.6,5.42,5.42,0,0,1-3.985-1.488,5.819,5.819,0,0,1-1.622-4.034Zm3.62.226a4.325,4.325,0,0,0,.5,2.363,1.682,1.682,0,0,0,1.493.752q1.934,0,1.977-2.976v-.365q0-3.126-2-3.126-1.815,0-1.966,2.7ZM115.8,17.734a.836.836,0,0,0-.483-.741,7.353,7.353,0,0,0-1.837-.58,8.376,8.376,0,0,1-2.234-.79,3.743,3.743,0,0,1-1.343-1.187,2.834,2.834,0,0,1-.462-1.6,3.212,3.212,0,0,1,1.321-2.637,5.443,5.443,0,0,1,3.459-1.037,6.03,6.03,0,0,1,3.7,1.042,3.258,3.258,0,0,1,1.4,2.739h-3.631q0-1.4-1.472-1.4a1.459,1.459,0,0,0-.956.317.981.981,0,0,0-.387.79.9.9,0,0,0,.473.784,4.466,4.466,0,0,0,1.509.494,13.043,13.043,0,0,1,1.821.462q2.621.9,2.621,3.233a3.044,3.044,0,0,1-1.413,2.589,6.2,6.2,0,0,1-3.658,1,6.322,6.322,0,0,1-2.664-.537,4.455,4.455,0,0,1-1.826-1.461,3.308,3.308,0,0,1-.655-1.944h3.384A1.4,1.4,0,0,0,113,18.449a2.209,2.209,0,0,0,1.321.371,1.738,1.738,0,0,0,1.112-.3A.962.962,0,0,0,115.8,17.734ZM133.011,21a4.088,4.088,0,0,1-.344-1.042,3.366,3.366,0,0,1-2.793,1.257,4.124,4.124,0,0,1-2.793-.994,3.163,3.163,0,0,1-1.149-2.5,3.251,3.251,0,0,1,1.4-2.857,7.114,7.114,0,0,1,4.061-.967h1.117v-.615q0-1.608-1.386-1.608a1.133,1.133,0,0,0-1.289,1.274h-3.62a3.245,3.245,0,0,1,1.434-2.736A6.027,6.027,0,0,1,131.3,9.162a5.284,5.284,0,0,1,3.513,1.085,3.772,3.772,0,0,1,1.321,2.976v5.146a5.269,5.269,0,0,0,.494,2.449V21Zm-2.267-2.363a2.019,2.019,0,0,0,1.123-.29,1.818,1.818,0,0,0,.639-.655V15.833h-1.053q-1.891,0-1.891,1.7a1.036,1.036,0,0,0,.333.8A1.205,1.205,0,0,0,130.744,18.637Zm12.311-.215a1.61,1.61,0,0,0,1.182-.414,1.517,1.517,0,0,0,.408-1.155h3.395a4.018,4.018,0,0,1-1.37,3.137,5.1,5.1,0,0,1-3.529,1.225,5.158,5.158,0,0,1-4-1.59,6.264,6.264,0,0,1-1.461-4.4v-.15a7.08,7.08,0,0,1,.65-3.11,4.732,4.732,0,0,1,1.875-2.073,5.589,5.589,0,0,1,2.9-.725,5.03,5.03,0,0,1,3.6,1.257,4.458,4.458,0,0,1,1.332,3.405h-3.395a1.987,1.987,0,0,0-.44-1.386,1.52,1.52,0,0,0-1.182-.483q-1.407,0-1.644,1.794a12.659,12.659,0,0,0-.075,1.568,4.972,4.972,0,0,0,.419,2.428A1.45,1.45,0,0,0,143.055,18.422Zm11.43,0a1.61,1.61,0,0,0,1.182-.414,1.517,1.517,0,0,0,.408-1.155h3.395a4.018,4.018,0,0,1-1.37,3.137,5.1,5.1,0,0,1-3.529,1.225,5.158,5.158,0,0,1-4-1.59,6.264,6.264,0,0,1-1.461-4.4v-.15a7.08,7.08,0,0,1,.65-3.11,4.732,4.732,0,0,1,1.875-2.073,5.589,5.589,0,0,1,2.9-.725,5.03,5.03,0,0,1,3.6,1.257,4.458,4.458,0,0,1,1.332,3.405h-3.395a1.987,1.987,0,0,0-.44-1.386,1.52,1.52,0,0,0-1.182-.483q-1.407,0-1.644,1.794a12.659,12.659,0,0,0-.075,1.568,4.972,4.972,0,0,0,.419,2.428A1.45,1.45,0,0,0,154.484,18.422ZM164.818,21h-3.631V9.377h3.631ZM160.973,6.369a1.63,1.63,0,0,1,.559-1.275,2.364,2.364,0,0,1,2.9,0,1.63,1.63,0,0,1,.559,1.275,1.63,1.63,0,0,1-.559,1.275,2.364,2.364,0,0,1-2.9,0A1.63,1.63,0,0,1,160.973,6.369Zm5.618,8.712a6.86,6.86,0,0,1,.677-3.1,4.84,4.84,0,0,1,1.944-2.089,5.856,5.856,0,0,1,2.976-.73,5.344,5.344,0,0,1,4.114,1.617,6.2,6.2,0,0,1,1.5,4.4v.129A6.019,6.019,0,0,1,176.3,19.62a5.359,5.359,0,0,1-4.087,1.6,5.42,5.42,0,0,1-3.985-1.488,5.819,5.819,0,0,1-1.622-4.034Zm3.62.226a4.325,4.325,0,0,0,.5,2.363,1.682,1.682,0,0,0,1.493.752q1.934,0,1.977-2.976v-.365q0-3.126-2-3.126-1.815,0-1.966,2.7Zm12.515-5.93.118,1.364a3.942,3.942,0,0,1,3.319-1.579,3.316,3.316,0,0,1,2.712,1.085,5.165,5.165,0,0,1,.929,3.266V21h-3.631V13.663a1.961,1.961,0,0,0-.354-1.294,1.64,1.64,0,0,0-1.289-.414,1.726,1.726,0,0,0-1.579.838V21h-3.62V9.377ZM198.355,21a4.088,4.088,0,0,1-.344-1.042,3.366,3.366,0,0,1-2.793,1.257,4.124,4.124,0,0,1-2.793-.994,3.163,3.163,0,0,1-1.149-2.5,3.251,3.251,0,0,1,1.4-2.857,7.114,7.114,0,0,1,4.061-.967h1.117v-.615q0-1.608-1.386-1.608a1.133,1.133,0,0,0-1.289,1.274h-3.62a3.245,3.245,0,0,1,1.434-2.736,6.027,6.027,0,0,1,3.658-1.051,5.284,5.284,0,0,1,3.513,1.085,3.772,3.772,0,0,1,1.321,2.976v5.146a5.269,5.269,0,0,0,.494,2.449V21Zm-2.267-2.363a2.019,2.019,0,0,0,1.123-.29,1.818,1.818,0,0,0,.639-.655V15.833H196.8q-1.891,0-1.891,1.7a1.036,1.036,0,0,0,.333.8A1.205,1.205,0,0,0,196.089,18.637Zm6.939-3.534a7.1,7.1,0,0,1,1.192-4.351,3.925,3.925,0,0,1,3.33-1.59,3.338,3.338,0,0,1,2.621,1.225V4.5H213.8V21h-3.255l-.183-1.246a3.428,3.428,0,0,1-2.836,1.461,3.918,3.918,0,0,1-3.287-1.59A7.325,7.325,0,0,1,203.028,15.1Zm3.62.226q0,3.094,1.8,3.094a1.782,1.782,0,0,0,1.719-1.01V12.986a1.734,1.734,0,0,0-1.7-1.031q-1.676,0-1.815,2.707Zm8.755-.247a6.86,6.86,0,0,1,.677-3.1,4.84,4.84,0,0,1,1.944-2.089A5.856,5.856,0,0,1,221,9.162a5.344,5.344,0,0,1,4.114,1.617,6.2,6.2,0,0,1,1.5,4.4v.129a6.019,6.019,0,0,1-1.509,4.313,5.359,5.359,0,0,1-4.087,1.6,5.42,5.42,0,0,1-3.985-1.488,5.819,5.819,0,0,1-1.622-4.034Zm3.62.226a4.325,4.325,0,0,0,.5,2.363,1.682,1.682,0,0,0,1.493.752q1.934,0,1.977-2.976v-.365q0-3.126-2-3.126-1.815,0-1.966,2.7Zm16.221-2.653-1.192-.086a2.142,2.142,0,0,0-2.191,1.074V21h-3.62V9.377h3.395l.118,1.493A2.8,2.8,0,0,1,234.3,9.162a3.53,3.53,0,0,1,1.01.129Zm6.725,8.562a5.975,5.975,0,0,1-4.329-1.6,5.509,5.509,0,0,1-1.654-4.152v-.3a7.138,7.138,0,0,1,.661-3.147,4.834,4.834,0,0,1,1.928-2.111,5.821,5.821,0,0,1,3.008-.747,5.031,5.031,0,0,1,3.867,1.52,5.973,5.973,0,0,1,1.418,4.238v1.407h-7.2a2.609,2.609,0,0,0,.849,1.536,2.525,2.525,0,0,0,1.7.559,3.254,3.254,0,0,0,2.686-1.2l1.654,1.955a4.624,4.624,0,0,1-1.917,1.488A6.48,6.48,0,0,1,241.969,21.215Zm-.408-9.26q-1.59,0-1.891,2.105h3.652v-.279a1.793,1.793,0,0,0-.44-1.348A1.753,1.753,0,0,0,241.561,11.955Zm12.848,5.779a.836.836,0,0,0-.483-.741,7.353,7.353,0,0,0-1.837-.58,8.376,8.376,0,0,1-2.234-.79,3.743,3.743,0,0,1-1.343-1.187,2.835,2.835,0,0,1-.462-1.6A3.212,3.212,0,0,1,249.37,10.2a5.443,5.443,0,0,1,3.459-1.037,6.03,6.03,0,0,1,3.7,1.042,3.258,3.258,0,0,1,1.4,2.739H254.29q0-1.4-1.472-1.4a1.459,1.459,0,0,0-.956.317.981.981,0,0,0-.387.79.9.9,0,0,0,.473.784,4.466,4.466,0,0,0,1.509.494,13.042,13.042,0,0,1,1.821.462q2.621.9,2.621,3.233a3.044,3.044,0,0,1-1.413,2.589,6.2,6.2,0,0,1-3.658,1,6.322,6.322,0,0,1-2.664-.537,4.455,4.455,0,0,1-1.826-1.461,3.308,3.308,0,0,1-.655-1.944h3.384a1.4,1.4,0,0,0,.537,1.176,2.209,2.209,0,0,0,1.321.371,1.738,1.738,0,0,0,1.112-.3A.962.962,0,0,0,254.408,17.734Z" transform="translate(-2720 -8288.256)" fill="#12263f"/>
    <rect id="Rectangle_38392" data-name="Rectangle 38392" width="145" height="2" transform="translate(-2621 -8311.984)" fill="#95e17a"/>
    <g id="Group_118577" data-name="Group 118577" transform="translate(-3134.833 -11379)">
      <g transform="matrix(1, 0, 0, 1, 385.83, 2903)" filter="url(#Ellipse_4900)">
        <circle id="Ellipse_4900-2" data-name="Ellipse 4900" cx="60" cy="60" r="60" transform="translate(140 13)" fill="#fff"/>
      </g>
      <g id="Group_118539" data-name="Group 118539" transform="translate(3312.833 10080.001)">
        <path id="Path_185906" data-name="Path 185906" d="M3.269,0H78.777a3.269,3.269,0,0,1,3.269,3.269V52.627A3.269,3.269,0,0,1,78.777,55.9H3.269A3.269,3.269,0,0,1,0,52.627V3.269A3.269,3.269,0,0,1,3.269,0Z" transform="translate(-2768.183 -7131.915)" fill="#62c065"/>
        <path id="Path_185905" data-name="Path 185905" d="M3.269,0H73.22a3.269,3.269,0,0,1,3.269,3.269V47.234A3.269,3.269,0,0,1,73.22,50.5H3.269A3.269,3.269,0,0,1,0,47.234V3.269A3.269,3.269,0,0,1,3.269,0Z" transform="translate(-2768.183 -7131.915)" fill="#95e17a"/>
        <rect id="Rectangle_38348" data-name="Rectangle 38348" width="5.557" height="42.004" transform="translate(-2748.734 -7124.887)" fill="#a042bf"/>
        <rect id="Rectangle_38349" data-name="Rectangle 38349" width="5.393" height="42.004" transform="translate(-2759.521 -7124.887)" fill="#a042bf"/>
        <rect id="Rectangle_38350" data-name="Rectangle 38350" width="6.538" height="9.316" transform="translate(-2733.043 -7093.016)" fill="#ffbd31"/>
        <rect id="Rectangle_38351" data-name="Rectangle 38351" width="5.557" height="8.499" transform="translate(-2722.91 -7135.02)" fill="#ffbd31"/>
        <rect id="Rectangle_38352" data-name="Rectangle 38352" width="16.344" height="16.507" transform="translate(-2714.085 -7122.108)" fill="#ffbd31"/>
        <rect id="Rectangle_38353" data-name="Rectangle 38353" width="26.477" height="7.845" transform="translate(-2720.622 -7080.268)" fill="#a042bf"/>
        <circle id="Ellipse_5070" data-name="Ellipse 5070" cx="4.658" cy="4.658" r="4.658" transform="translate(-2719.478 -7096.121)" fill="#fe7f05"/>
        <circle id="Ellipse_5071" data-name="Ellipse 5071" cx="4.658" cy="4.658" r="4.658" transform="translate(-2704.932 -7096.121)" fill="#fe7f05"/>
        <rect id="Rectangle_38354" data-name="Rectangle 38354" width="5.557" height="6.864" transform="translate(-2748.734 -7089.748)" fill="#582469"/>
        <rect id="Rectangle_38355" data-name="Rectangle 38355" width="5.393" height="6.864" transform="translate(-2759.521 -7089.748)" fill="#582469"/>
        <rect id="Rectangle_38366" data-name="Rectangle 38366" width="26.477" height="3.596" transform="translate(-2720.622 -7076.019)" fill="#582469"/>
        <circle id="Ellipse_5072" data-name="Ellipse 5072" cx="3.187" cy="3.187" r="3.187" transform="translate(-2719.478 -7096.121)" fill="#ffbd31"/>
        <circle id="Ellipse_5073" data-name="Ellipse 5073" cx="3.187" cy="3.187" r="3.187" transform="translate(-2704.932 -7096.121)" fill="#ffbd31"/>
        <rect id="Rectangle_38367" data-name="Rectangle 38367" width="5.72" height="5.557" transform="translate(-2708.691 -7116.551)" fill="#ffe48a"/>
        <path id="Rectangle_38367_-_Outline" data-name="Rectangle 38367 - Outline" d="M1,1V4.557H4.72V1H1M0,0H5.72V5.557H0Z" transform="translate(-2708.691 -7116.551)" fill="#707070"/>
        <g id="_000000ff" data-name="#000000ff" transform="translate(-2769 -7136)">
          <path id="Path_185867" data-name="Path 185867" d="M45.181,58.465a2.936,2.936,0,0,1,2.7-1.342c1.183.064,2.517-.24,3.548.508A3.1,3.1,0,0,1,52.7,60.266q8.627,0,17.257,0a1.482,1.482,0,0,1,1.085.322,1.232,1.232,0,0,1,.062,1.75,1.471,1.471,0,0,1-1.151.384q-8.644,0-17.287,0c-.018.905.039,1.814-.028,2.72a2.838,2.838,0,0,1-2.649,2.532q-1.285.037-2.571,0a2.837,2.837,0,0,1-2.644-2.535c-.07-.9-.01-1.813-.028-2.718q-19.922,0-39.843,0a2.383,2.383,0,0,0-2.44,2.368q-.029,23.378-.01,46.757a12.032,12.032,0,0,0,.057,1.767A2.352,2.352,0,0,0,4.584,115.5c1.133.082,2.27-.038,3.4.044a1.209,1.209,0,0,1,.021,2.406c-1.03.062-2.064.01-3.1.025a4.851,4.851,0,0,1-3.534-1.451A5.156,5.156,0,0,1,0,113.658V64.62a5.16,5.16,0,0,1,1.133-2.631A4.834,4.834,0,0,1,4.9,60.266q19.9,0,39.81,0a3.66,3.66,0,0,1,.471-1.8m2.269,1.146c-.312.113-.237.5-.26.76.018,1.58-.016,3.163.016,4.741a.374.374,0,0,0,.371.405c.753.025,1.51.026,2.264,0,.3,0,.4-.327.369-.57,0-1.584,0-3.167,0-4.75.02-.248-.056-.611-.373-.6A22.408,22.408,0,0,0,47.449,59.611Z" transform="translate(0 -57.114)"/>
          <path id="Path_185868" data-name="Path 185868" d="M138.169,76.866c.368-.579,1.121-.531,1.719-.525,1.407.059,2.9-.194,4.218.451a4.976,4.976,0,0,1,2.8,3.885v48.943a4.927,4.927,0,0,1-2.71,3.941c-1.59.789-3.416.4-5.121.489a4.775,4.775,0,0,1-.374,2.175,3.534,3.534,0,0,1-3.231,1.969q-10.954,0-21.909,0a3.5,3.5,0,0,1-2.739-1.314,4.049,4.049,0,0,1-.786-2.824q-16.543,0-33.083,0a1.232,1.232,0,1,1-.007-2.448q16.543-.007,33.087,0a6.6,6.6,0,0,1,.147-1.533,3.53,3.53,0,0,1,2.429-2.429,8.165,8.165,0,0,1,2.094-.137q10.39.007,20.778,0a3.54,3.54,0,0,1,2.6,1.079,3.951,3.951,0,0,1,1,3.017c1.023-.015,2.048.025,3.071-.01a2.367,2.367,0,0,0,2.188-1.651,8.1,8.1,0,0,0,.118-2.018q0-23.29,0-46.58a2.4,2.4,0,0,0-1.945-2.492c-1.195-.15-2.407.046-3.6-.093a1.217,1.217,0,0,1-.745-1.891M113.3,130a1.042,1.042,0,0,0-.794,1.018c-.008,1.25-.021,2.5.007,3.756a1.073,1.073,0,0,0,1.206.971q10.794,0,21.587,0a1.221,1.221,0,0,0,1.053-.379,1.821,1.821,0,0,0,.257-1.229c-.02-1.038.016-2.077-.013-3.114a1.065,1.065,0,0,0-1.129-1.064c-5.4-.008-10.8,0-16.193,0C117.291,129.984,115.294,129.9,113.3,130Z" transform="translate(-63.23 -73.196)"/>
          <path id="Path_185869" data-name="Path 185869" d="M50.346,116.4c1.118-.088,2.242-.033,3.364-.034a2.862,2.862,0,0,1,2.728,2.857q.01,19.377,0,38.758a2.9,2.9,0,0,1-1.535,2.679,5.642,5.642,0,0,1-2.692.327,5.682,5.682,0,0,1-2.707-.327,2.9,2.9,0,0,1-1.536-2.693q.007-19.372,0-38.743a2.864,2.864,0,0,1,2.37-2.823m.322,2.448c-.224.08-.247.337-.242.539q-.01,19.213,0,38.426c0,.252-.021.668.327.7.92.054,1.845.023,2.767.016.329.051.508-.263.471-.548q.007-18.723,0-37.444a12.643,12.643,0,0,0-.029-1.43c-.065-.35-.489-.286-.749-.3C52.364,118.839,51.51,118.757,50.668,118.852Z" transform="translate(-40.128 -106.671)"/>
          <path id="Path_185870" data-name="Path 185870" d="M116.355,116.392c1.061-.042,2.126-.02,3.187-.013a2.868,2.868,0,0,1,2.726,2.86q0,19.456,0,38.911a2.865,2.865,0,0,1-2.72,2.842c-1.03.016-2.059.023-3.087,0a2.858,2.858,0,0,1-2.653-2.844q-.01-19.448,0-38.9a2.861,2.861,0,0,1,2.55-2.854m.152,2.466c-.226.08-.261.335-.25.543q-.01,19.206,0,38.411c0,.261-.021.7.346.716.928.047,1.86.026,2.79.011.314.039.458-.288.428-.549q0-19.3,0-38.594c.034-.273-.116-.6-.438-.564C118.423,118.827,117.46,118.784,116.507,118.858Z" transform="translate(-95.203 -106.682)"/>
          <path id="Path_185871" data-name="Path 185871" d="M315.966,117.336a1.234,1.234,0,0,1,2.206.026,9.845,9.845,0,0,1,.116,2.355q1.157,0,2.314,0a10.062,10.062,0,0,1,.114-2.35,1.234,1.234,0,0,1,2.206-.038,9.026,9.026,0,0,1,.131,2.388q1.157,0,2.314,0a10.487,10.487,0,0,1,.106-2.334,1.233,1.233,0,0,1,2.2-.075,9.071,9.071,0,0,1,.154,2.4,3.336,3.336,0,0,1,3.037,1.412,3.669,3.669,0,0,1,.562,2.188,8.972,8.972,0,0,1,2.372.131,1.235,1.235,0,0,1-.031,2.206,9.92,9.92,0,0,1-2.354.114q0,1.155,0,2.309a8.484,8.484,0,0,1,2.4.144,1.235,1.235,0,0,1-.033,2.19,9.7,9.7,0,0,1-2.368.118q0,1.162,0,2.322c.639.008,1.28-.026,1.919.011a1.214,1.214,0,0,1,.013,2.424c-.639.041-1.28.007-1.919.016a3.5,3.5,0,0,1-.84,2.541,3.456,3.456,0,0,1-2.772,1.067,8.124,8.124,0,0,1-.147,2.4,1.233,1.233,0,0,1-2.195-.078,10.31,10.31,0,0,1-.108-2.336q-1.157,0-2.314,0a8.649,8.649,0,0,1-.139,2.4,1.233,1.233,0,0,1-2.2-.051,9.79,9.79,0,0,1-.114-2.349q-1.157,0-2.314,0a12.372,12.372,0,0,1-.087,2.283,1.233,1.233,0,0,1-2.226.113,8.406,8.406,0,0,1-.137-2.383,3.3,3.3,0,0,1-3.612-3.61,8.13,8.13,0,0,1-2.394-.145,1.235,1.235,0,0,1,.025-2.18,9.276,9.276,0,0,1,2.383-.123q0-1.165,0-2.326c-.646-.008-1.291.029-1.935-.01a1.214,1.214,0,0,1-.1-2.411c.677-.065,1.357-.015,2.035-.028,0-.771,0-1.541,0-2.313-.65-.008-1.3.031-1.951-.015a1.214,1.214,0,0,1,.02-2.421c.639-.039,1.28,0,1.919-.013a3.3,3.3,0,0,1,3.612-3.61,9.02,9.02,0,0,1,.127-2.368m-.716,4.864a.776.776,0,0,0-.557.887q0,5.8,0,11.6a6.217,6.217,0,0,0,.057,1.293.858.858,0,0,0,.927.463c4.145-.007,8.29,0,12.436,0a.749.749,0,0,0,.843-.757c.023-4.14,0-8.283.013-12.423a1.251,1.251,0,0,0-.194-.848c-.245-.289-.657-.234-.992-.248C323.6,122.2,319.423,122.125,315.25,122.2Z" transform="translate(-258.645 -106.934)"/>
          <path id="Path_185872" data-name="Path 185872" d="M180.406,123.913c.757-.154,1.824-.271,2.3.5a1.224,1.224,0,0,1-.865,1.837c-.634.041-1.419.149-1.886-.389A1.233,1.233,0,0,1,180.406,123.913Z" transform="translate(-150.284 -112.901)"/>
          <path id="Path_185873" data-name="Path 185873" d="M214.272,123.906c.76-.139,1.829-.25,2.278.543a1.223,1.223,0,0,1-.869,1.806c-.66.051-1.5.15-1.951-.448A1.232,1.232,0,0,1,214.272,123.906Z" transform="translate(-178.583 -112.907)"/>
          <path id="Path_185874" data-name="Path 185874" d="M248.12,123.945a3.957,3.957,0,0,1,1.455-.042,1.216,1.216,0,0,1-.165,2.406c-.624.036-1.406.11-1.831-.454A1.231,1.231,0,0,1,248.12,123.945Z" transform="translate(-206.896 -112.948)"/>
          <path id="Path_185875" data-name="Path 185875" d="M180.417,150.908c.755-.147,1.817-.265,2.285.507a1.224,1.224,0,0,1-.869,1.837c-.633.039-1.412.145-1.88-.387A1.234,1.234,0,0,1,180.417,150.908Z" transform="translate(-150.284 -135.489)"/>
          <path id="Path_185876" data-name="Path 185876" d="M214.262,150.907c.76-.141,1.831-.253,2.282.538a1.224,1.224,0,0,1-.868,1.809c-.664.051-1.5.15-1.958-.456A1.232,1.232,0,0,1,214.262,150.907Z" transform="translate(-178.578 -135.494)"/>
          <path id="Path_185877" data-name="Path 185877" d="M248.127,150.905c.734-.121,1.731-.25,2.215.464a1.223,1.223,0,0,1-.771,1.88c-.673.06-1.535.168-2-.443A1.231,1.231,0,0,1,248.127,150.905Z" transform="translate(-206.896 -135.497)"/>
          <path id="Path_185878" data-name="Path 185878" d="M364.438,170.854a4.387,4.387,0,0,1,1.566-.145c1.038.018,2.076-.021,3.112.013a1.86,1.86,0,0,1,1.772,1.819q.024,1.969,0,3.941a1.863,1.863,0,0,1-1.768,1.822c-1.033.038-2.068,0-3.1.015a3.242,3.242,0,0,1-1.875-.306,1.922,1.922,0,0,1-.86-1.7c0-1.252-.011-2.506,0-3.759a1.882,1.882,0,0,1,1.151-1.7m1.291,2.314c.021.883-.026,1.768.018,2.651.887.113,1.8.011,2.7.044v-2.7C367.538,173.163,366.635,173.157,365.729,173.168Z" transform="translate(-303.905 -152.141)"/>
          <path id="Path_185879" data-name="Path 185879" d="M180.413,177.909c.757-.149,1.821-.268,2.29.5a1.224,1.224,0,0,1-.876,1.839c-.628.038-1.4.144-1.866-.381A1.234,1.234,0,0,1,180.413,177.909Z" transform="translate(-150.284 -158.075)"/>
          <path id="Path_185880" data-name="Path 185880" d="M214.345,177.938a3.775,3.775,0,0,1,1.572-.023,1.229,1.229,0,0,1,.641,1.886c-.5.673-1.451.552-2.172.441A1.232,1.232,0,0,1,214.345,177.938Z" transform="translate(-178.663 -158.112)"/>
          <path id="Path_185881" data-name="Path 185881" d="M248.129,177.9c.734-.123,1.729-.25,2.213.463a1.222,1.222,0,0,1-.757,1.878c-.673.062-1.54.177-2.007-.435A1.23,1.23,0,0,1,248.129,177.9Z" transform="translate(-206.898 -158.08)"/>
          <path id="Path_185882" data-name="Path 185882" d="M180.409,204.909c.755-.149,1.819-.268,2.288.5a1.223,1.223,0,0,1-.878,1.84c-.629.039-1.4.142-1.87-.387A1.234,1.234,0,0,1,180.409,204.909Z" transform="translate(-150.28 -180.662)"/>
          <path id="Path_185883" data-name="Path 185883" d="M214.26,204.909c.76-.142,1.835-.257,2.285.539a1.221,1.221,0,0,1-.861,1.8c-.665.052-1.505.154-1.963-.451A1.233,1.233,0,0,1,214.26,204.909Z" transform="translate(-178.58 -180.669)"/>
          <path id="Path_185884" data-name="Path 185884" d="M248.129,204.9c.734-.119,1.728-.247,2.211.464a1.223,1.223,0,0,1-.768,1.88c-.673.062-1.536.172-2-.443A1.23,1.23,0,0,1,248.129,204.9Z" transform="translate(-206.895 -180.671)"/>
          <path id="Path_185885" data-name="Path 185885" d="M180.41,231.908c.757-.152,1.819-.27,2.291.5a1.226,1.226,0,0,1-.866,1.842c-.631.038-1.407.145-1.876-.382A1.234,1.234,0,0,1,180.41,231.908Z" transform="translate(-150.285 -203.247)"/>
          <path id="Path_185886" data-name="Path 185886" d="M214.254,231.909c.76-.144,1.832-.26,2.286.53a1.223,1.223,0,0,1-.865,1.814c-.662.051-1.5.15-1.956-.454A1.231,1.231,0,0,1,214.254,231.909Z" transform="translate(-178.579 -203.254)"/>
          <path id="Path_185887" data-name="Path 185887" d="M248.118,231.906c.739-.127,1.744-.253,2.229.466a1.223,1.223,0,0,1-.775,1.873c-.672.062-1.531.172-2-.438A1.231,1.231,0,0,1,248.118,231.906Z" transform="translate(-206.897 -203.256)"/>
          <path id="Path_185888" data-name="Path 185888" d="M180.413,258.91c.758-.15,1.826-.266,2.291.51a1.224,1.224,0,0,1-.865,1.831c-.634.039-1.415.149-1.886-.384A1.233,1.233,0,0,1,180.413,258.91Z" transform="translate(-150.283 -225.837)"/>
          <path id="Path_185889" data-name="Path 185889" d="M214.259,258.909c.762-.142,1.839-.257,2.29.539a1.223,1.223,0,0,1-.863,1.8c-.664.052-1.5.154-1.96-.449A1.232,1.232,0,0,1,214.259,258.909Z" transform="translate(-178.582 -225.843)"/>
          <path id="Path_185890" data-name="Path 185890" d="M248.118,258.907c.737-.129,1.742-.257,2.229.461a1.224,1.224,0,0,1-.763,1.876c-.675.062-1.54.173-2.005-.44A1.23,1.23,0,0,1,248.118,258.907Z" transform="translate(-206.9 -225.842)"/>
          <path id="Path_185891" data-name="Path 185891" d="M180.415,285.912c.757-.149,1.821-.266,2.288.505a1.223,1.223,0,0,1-.861,1.835c-.633.039-1.412.149-1.883-.381A1.233,1.233,0,0,1,180.415,285.912Z" transform="translate(-150.285 -248.426)"/>
          <path id="Path_185892" data-name="Path 185892" d="M214.267,285.9c.763-.142,1.834-.253,2.283.543a1.224,1.224,0,0,1-.865,1.8c-.665.052-1.512.154-1.968-.458A1.233,1.233,0,0,1,214.267,285.9Z" transform="translate(-178.581 -248.427)"/>
          <path id="Path_185893" data-name="Path 185893" d="M248.122,285.906c.737-.124,1.739-.252,2.224.466a1.225,1.225,0,0,1-.765,1.875c-.67.06-1.53.173-2-.43A1.231,1.231,0,0,1,248.122,285.906Z" transform="translate(-206.898 -248.432)"/>
          <path id="Path_185894" data-name="Path 185894" d="M298.727,294.11a5.831,5.831,0,1,1-4.164,2.522,5.854,5.854,0,0,1,4.164-2.522m.172,2.448a3.374,3.374,0,1,0,3.184,1.319A3.388,3.388,0,0,0,298.9,296.559Z" transform="translate(-245.578 -255.337)"/>
          <path id="Path_185895" data-name="Path 185895" d="M390.817,294.11a5.825,5.825,0,1,1-4.584,3.244,5.855,5.855,0,0,1,4.584-3.244m.162,2.448a3.376,3.376,0,1,0,2.625.724A3.394,3.394,0,0,0,390.979,296.558Z" transform="translate(-322.619 -255.337)"/>
          <path id="Path_185896" data-name="Path 185896" d="M180.406,312.911c.758-.15,1.824-.271,2.295.5a1.225,1.225,0,0,1-.86,1.837c-.633.039-1.412.149-1.884-.381A1.234,1.234,0,0,1,180.406,312.911Z" transform="translate(-150.282 -271.01)"/>
          <path id="Path_185897" data-name="Path 185897" d="M215.24,312.985a15.993,15.993,0,0,1,2.868-.106,5.892,5.892,0,0,1,2.79.319,2.561,2.561,0,0,1,1.314,2.3c0,2.072.013,4.146-.008,6.217a2.54,2.54,0,0,1-2.45,2.437c-1.262.015-2.527.008-3.788,0a2.55,2.55,0,0,1-2.52-2.429c-.016-2.076,0-4.151-.007-6.227a2.579,2.579,0,0,1,1.8-2.51m.647,2.36c.01,2.117,0,4.233,0,6.35,1.288.016,2.576.008,3.865,0q.012-3.185,0-6.368C218.466,315.335,217.177,315.311,215.887,315.345Z" transform="translate(-178.553 -271.067)"/>
          <path id="Path_185898" data-name="Path 185898" d="M180.4,339.91c.758-.152,1.824-.27,2.293.5a1.222,1.222,0,0,1-.868,1.835c-.664.049-1.51.145-1.953-.474A1.233,1.233,0,0,1,180.4,339.91Z" transform="translate(-150.271 -293.597)"/>
          <path id="Path_185899" data-name="Path 185899" d="M180.394,366.911c.758-.154,1.829-.273,2.3.5a1.224,1.224,0,0,1-.869,1.835c-.662.049-1.5.145-1.947-.466A1.233,1.233,0,0,1,180.394,366.911Z" transform="translate(-150.274 -316.184)"/>
        </g>
      </g>
    </g>
  </g>
</svg>
