<svg id="t2-ict1" xmlns="http://www.w3.org/2000/svg" xmlns:xlink="http://www.w3.org/1999/xlink" width="30.214" height="50" viewBox="0 0 30.214 50">
  <defs>
    <clipPath id="clip-path">
      <rect id="Rectangle_36707" data-name="Rectangle 36707" width="30.214" height="50" fill="#a042bf"/>
    </clipPath>
  </defs>
  <g id="Group_117208" data-name="Group 117208" clip-path="url(#clip-path)">
    <path id="Path_179359" data-name="Path 179359" d="M47.574,60.389a1.684,1.684,0,0,0,1.766,1.667H63.65A1.68,1.68,0,0,0,65.4,60.4c.01-1.913,0-3.828.007-5.741a1.406,1.406,0,0,0-.3-1.082l-.049-.044a.974.974,0,0,0-1.371.126,1.49,1.49,0,0,0-.233,1c.007,1.816,0,3.632,0,5.447h-7.98c-.005-1.687.01-3.374-.007-5.061,0,0,0-.006,0-.009a.977.977,0,0,0-.947-1.007c-1.667-.033-3.335.005-5-.017q0-4.095,0-8.188,6.966,0,13.933,0c.009.905-.018,1.811.01,2.716a.971.971,0,0,0,1.223.93,1.008,1.008,0,0,0,.717-1.047c0-1,.013-2.006-.008-3.007a1.678,1.678,0,0,0-1.749-1.543q-7.162,0-14.321,0a1.68,1.68,0,0,0-1.753,1.669q-.008,7.425,0,14.849m5.951-4.421q0,2.068,0,4.136-2,0-4,0,0-2.068,0-4.136,2,0,4,0" transform="translate(-41.383 -38.162)" fill="#a042bf"/>
    <path id="Path_179360" data-name="Path 179360" d="M30.211,26.081V25.76q0-.632,0-1.263V5.116q0-.632,0-1.264V3.82c0-.721.005-1.442,0-2.163A1.681,1.681,0,0,0,28.511,0l-.519,0H5.118Q4.629,0,4.14,0H2.33c-.248,0-.5,0-.743.007A1.671,1.671,0,0,0,.007,1.656C0,2.022,0,2.387,0,2.752H0V3.861Q0,4.4,0,4.942V9.159q0,.905,0,1.81H0v13.7q0,.519,0,1.038v0c0,.746-.006,1.493,0,2.239A1.672,1.672,0,0,0,1.587,29.6c.276,0,.552.007.828.008H3.872c.547,0,1.093,0,1.64,0H9.16V42.232h-1.3a1.605,1.605,0,0,0-1.605,1.605v4.557A1.605,1.605,0,0,0,7.857,50h4.557a1.605,1.605,0,0,0,1.605-1.605V43.838a1.605,1.605,0,0,0-1.605-1.605h-1.3V29.608h2.168q1.727,0,3.456,0H19.1V36.44H17.8a1.605,1.605,0,0,0-1.605,1.605V42.6A1.605,1.605,0,0,0,17.8,44.208h4.557A1.605,1.605,0,0,0,23.961,42.6V38.045a1.605,1.605,0,0,0-1.605-1.605h-1.3V29.608H24.7c.573,0,1.145,0,1.718,0h1.356c.288,0,.576,0,.864-.009a1.669,1.669,0,0,0,1.569-1.651c.009-.623.008-1.245.006-1.868Zm-18.145,21.9H8.205V44.249h3.86Zm9.942-5.792h-3.86V38.457h3.86Zm6.251-14.535H1.954q0-12.853,0-25.7H28.259Z" transform="translate(0)" fill="#a042bf"/>
  </g>
</svg>
