<svg xmlns="http://www.w3.org/2000/svg" width="51.177" height="45" viewBox="0 0 51.177 45">
  <g id="t2-ic1" transform="translate(0 -30.892)">
    <g id="_1e0478ff" data-name="#1e0478ff" transform="translate(0 30.892)">
      <path id="Path_183943" data-name="Path 183943" d="M15.565,31.99a22.638,22.638,0,0,1,11.959-.542A22.253,22.253,0,0,1,36,35.386a1.364,1.364,0,0,1-.34,2.373,1.412,1.412,0,0,1-1.381-.247,19.557,19.557,0,0,0-8.241-3.575A19.76,19.76,0,1,0,42.241,52.3a1.963,1.963,0,0,1,.088-.948,1.364,1.364,0,0,1,2.62.43A22.5,22.5,0,1,1,0,53.755v-.724A22.567,22.567,0,0,1,15.565,31.99Z" transform="translate(0 -30.892)" fill="#582469"/>
      <path id="Path_183944" data-name="Path 183944" d="M101.7,46.249a5.333,5.333,0,0,1,6.089,5.152v.238a5.421,5.421,0,0,1-1.617,3.713Q93.851,67.672,81.53,79.992a3.545,3.545,0,0,1-5.079.016q-6.017-6.023-12.038-12.043A5.336,5.336,0,1,1,72.2,60.672q3.388,3.388,6.78,6.776,9.857-9.836,19.7-19.688a5.347,5.347,0,0,1,3.02-1.511m.023,2.745-.008.079a2.058,2.058,0,0,0-1.1.624q-9.923,9.92-19.841,19.841a2.543,2.543,0,0,1-1.052.658l-.186-.02-.023.084a4.092,4.092,0,0,1-1.137,0l-.011-.08-.177,0a4.4,4.4,0,0,1-1.578-1.231Q73.335,65.677,70.06,62.4a2.611,2.611,0,0,0-2.35-.709l-.188-.021-.024.082-.078.02-.176.019-.007.077a2.238,2.238,0,0,0-1.426,1.517l-.08.008c0,.044-.008.133-.011.178a2.66,2.66,0,0,0,.01,1.377c0,.046-.007.138-.01.184l.086.017a2.756,2.756,0,0,0,.787,1.12Q72.517,72.2,78.442,78.121a.791.791,0,0,0,1.038.034c.21-.078.336-.276.5-.42Q91.992,65.715,104.012,53.7a1.912,1.912,0,0,0,.463-.552l.156-.212.021-.032a1.9,1.9,0,0,0,.242-.526l.085-.016-.008-.188a2.869,2.869,0,0,0,0-1.306c0-.047.007-.142.009-.189l-.084-.018a2.512,2.512,0,0,0-1.045-1.324l-.034-.022c-.2-.095-.414-.27-.638-.247l-.011-.08-.177,0a2.667,2.667,0,0,0-1.09,0Z" transform="translate(-56.611 -44.664)" fill="#582469"/>
    </g>
    <g id="_6b9dbde5" data-name="#6b9dbde5" transform="translate(9.109 35.213)">
      <path id="Path_183945" data-name="Path 183945" d="M451.238,74.174l.179,0-.187.083Z" transform="translate(-415.236 -74.165)" fill="#6b9dbd" opacity="0.9"/>
      <path id="Path_183946" data-name="Path 183946" d="M464,74.12l.177,0,.011.08Z" transform="translate(-426.73 -74.12)" fill="#6b9dbd" opacity="0.9"/>
      <path id="Path_183947" data-name="Path 183947" d="M106.317,202.119l.176-.019-.183.1Z" transform="translate(-104.793 -189.308)" fill="#6b9dbd" opacity="0.9"/>
      <path id="Path_183948" data-name="Path 183948" d="M91.141,218.248l.08-.008c-.023.047-.068.14-.091.186C91.133,218.381,91.138,218.292,91.141,218.248Z" transform="translate(-91.13 -203.835)" fill="#6b9dbd" opacity="0.9"/>
      <path id="Path_183949" data-name="Path 183949" d="M215.85,286.19l.177,0,.011.08Z" transform="translate(-203.384 -264.993)" fill="#6b9dbd" opacity="0.9"/>
    </g>
    <g id="_94e7efff" data-name="#94e7efff" transform="translate(9.023 35.159)">
      <path id="Path_183950" data-name="Path 183950" d="M126.537,73.641a2.667,2.667,0,0,1,1.09,0l.188.082c.224-.023.437.152.638.247l.034.022a2.512,2.512,0,0,1,1.045,1.324l.075.207a2.87,2.87,0,0,1,0,1.306l-.077.2a1.9,1.9,0,0,1-.242.526l-.021.032-.156.212q-12.073,12.07-24.143,24.143c-.285.289-.581.566-.853.866a.791.791,0,0,1-1.038-.034q-5.925-5.922-11.849-11.847a2.755,2.755,0,0,1-.787-1.12l-.076-.2a2.66,2.66,0,0,1-.01-1.377c.023-.046.068-.139.091-.186a2.238,2.238,0,0,1,1.426-1.517l.183-.1.078-.02.212-.061a2.611,2.611,0,0,1,2.35.709q3.276,3.272,6.548,6.546a4.4,4.4,0,0,0,1.578,1.231l.188.082a4.092,4.092,0,0,0,1.137,0l.209-.064a2.543,2.543,0,0,0,1.052-.658q9.921-9.921,19.841-19.841a2.058,2.058,0,0,1,1.1-.624Z" transform="translate(-90.271 -73.582)" fill="#95e17a"/>
    </g>
    <g id="_465698e4" data-name="#465698e4" transform="translate(9.109 35.541)">
      <path id="Path_183951" data-name="Path 183951" d="M472.26,77.41l.034.022Z" transform="translate(-434.164 -77.41)" fill="#465698" opacity="0.89"/>
      <path id="Path_183952" data-name="Path 183952" d="M483.05,90.88l.084.018c0,.047-.007.142-.009.189Z" transform="translate(-443.876 -89.534)" fill="#465698" opacity="0.89"/>
      <path id="Path_183953" data-name="Path 183953" d="M483.04,106.224l.077-.2c0,.047.006.141.008.188Z" transform="translate(-443.867 -103.16)" fill="#465698" opacity="0.89"/>
      <path id="Path_183954" data-name="Path 183954" d="M480.41,113.352l.021-.032Z" transform="translate(-441.5 -109.731)" fill="#465698" opacity="0.89"/>
      <path id="Path_183955" data-name="Path 183955" d="M229.633,139.9q12.071-12.073,24.143-24.143a1.911,1.911,0,0,1-.463.552q-12.019,12.019-24.035,24.037c-.162.144-.288.342-.5.42C229.052,140.469,229.348,140.192,229.633,139.9Z" transform="translate(-215.021 -111.927)" fill="#465698" opacity="0.89"/>
      <path id="Path_183956" data-name="Path 183956" d="M108.944,201.08l.188.021-.212.061Z" transform="translate(-107.142 -188.719)" fill="#465698" opacity="0.89"/>
      <path id="Path_183957" data-name="Path 183957" d="M91.14,233.88l.076.2-.086-.017C91.133,234.018,91.137,233.926,91.14,233.88Z" transform="translate(-91.13 -218.24)" fill="#465698" opacity="0.89"/>
      <path id="Path_183958" data-name="Path 183958" d="M229.133,286.12l.186.02-.209.064Z" transform="translate(-215.318 -265.258)" fill="#465698" opacity="0.89"/>
    </g>
  </g>
</svg>
