<svg id="circle1" xmlns="http://www.w3.org/2000/svg" width="288.26" height="288.264" viewBox="0 0 288.26 288.264">
  <path id="Path_185912" data-name="Path 185912" d="M429,243.5a144.871,144.871,0,0,0,16.343,53.6l13.936-7.438a128.787,128.787,0,0,0,32.331,39.181l-10,12.275a142.971,142.971,0,0,0,49.407,26.364l4.609-15.152a128.553,128.553,0,0,0,50.562,4.952l1.236,12.236.382,3.5a144.51,144.51,0,0,0,53.56-16.363l-7.438-13.932A129.906,129.906,0,0,0,673.166,310.4l12.272,10a143.638,143.638,0,0,0,22.313-37.984q2.218-5.585,4-11.44l-4-1.213-11.166-3.393a130.132,130.132,0,0,0,4.531-21.05,127.992,127.992,0,0,0,1.011-20.225q-.137-4.648-.61-9.241l5.249-.545,10.36-1.057.134-.02a144.137,144.137,0,0,0-13.29-47.561q-1.455-3.053-3.06-6.041L689.6,166.677l-2.61,1.4q-.375-.7-.76-1.4a128.458,128.458,0,0,0-31.515-37.772l10-12.275a142.63,142.63,0,0,0-40.156-23.21q-4.567-1.739-9.3-3.174l-4.609,15.165a129.427,129.427,0,0,0-21.425-4.6,127.875,127.875,0,0,0-29.085-.326L558.5,84.75a144.907,144.907,0,0,0-53.6,16.343l7.437,13.932A128.68,128.68,0,0,0,473.169,147.3l-12.269-10a143.313,143.313,0,0,0-26.39,49.463l15.165,4.609a128.373,128.373,0,0,0-4.932,50.52l-11.137,1.135-4.544.5Zm77.089-35a70.014,70.014,0,1,1,5.214,53.379A69.965,69.965,0,0,1,506.089,208.5ZM429,243.5a144.871,144.871,0,0,0,16.343,53.6l13.936-7.438a128.787,128.787,0,0,0,32.331,39.181l-10,12.275a142.971,142.971,0,0,0,49.407,26.364l4.609-15.152a128.553,128.553,0,0,0,50.562,4.952l1.236,12.236.382,3.5a144.51,144.51,0,0,0,53.56-16.363l-7.438-13.932A129.906,129.906,0,0,0,673.166,310.4l12.272,10a143.638,143.638,0,0,0,22.313-37.984q2.218-5.585,4-11.44l-4-1.213-11.166-3.393a130.132,130.132,0,0,0,4.531-21.05,127.992,127.992,0,0,0,1.011-20.225q-.137-4.648-.61-9.241l5.249-.545,10.36-1.057.134-.02a144.137,144.137,0,0,0-13.29-47.561q-1.455-3.053-3.06-6.041L689.6,166.677l-2.61,1.4q-.375-.7-.76-1.4a128.458,128.458,0,0,0-31.515-37.772l10-12.275a142.63,142.63,0,0,0-40.156-23.21q-4.567-1.739-9.3-3.174l-4.609,15.165a129.427,129.427,0,0,0-21.425-4.6,127.875,127.875,0,0,0-29.085-.326L558.5,84.75a144.907,144.907,0,0,0-53.6,16.343l7.437,13.932A128.68,128.68,0,0,0,473.169,147.3l-12.269-10a143.313,143.313,0,0,0-26.39,49.463l15.165,4.609a128.373,128.373,0,0,0-4.932,50.52l-11.137,1.135-4.544.5Zm77.089-35a70.014,70.014,0,1,1,5.214,53.379A69.965,69.965,0,0,1,506.089,208.5Z" transform="translate(-429 -84.75)" fill="#95e17a"/>
  <path id="Path_185913" data-name="Path 185913" d="M604.85,379.333l-1.585-15.658-5.33.548a122.419,122.419,0,0,1-12.445.636,123.8,123.8,0,0,1-36.03-5.376l-5.122-1.556L539.772,373l-.4-.14A137.4,137.4,0,0,1,501.8,352.829l-.326-.258,9.943-12.223-4.169-3.376a122.818,122.818,0,0,1-30.99-37.566l-2.525-4.7L459.9,302.091l-.183-.385a138.7,138.7,0,0,1-12.428-40.753l-.059-.421,15.658-1.592-.545-5.327a121.644,121.644,0,0,1-.652-12.481,123.65,123.65,0,0,1,5.373-35.938l1.553-5.118-15.068-4.567.137-.4A137.451,137.451,0,0,1,473.738,157.5l.258-.326,12.22,9.969,3.38-4.175a122.729,122.729,0,0,1,37.563-30.944l4.7-2.525-7.392-13.841.382-.183a138.638,138.638,0,0,1,40.743-12.432l.421-.059,1.608,15.658,5.324-.548a122.4,122.4,0,0,1,27.839.326h.046a124.694,124.694,0,0,1,20.531,4.4l5.118,1.556,4.567-15.068.4.14c1.142.395,2.31.822,3.477,1.262.418.157.835.326,1.249.48a137.7,137.7,0,0,1,32.885,18.307l.326.254-9.962,12.22,4.172,3.38a122.154,122.154,0,0,1,28.608,33.41c.783,1.334,1.562,2.727,2.319,4.136l2.528,4.7,13.838-7.389.186.382a137.951,137.951,0,0,1,12.419,40.753l.059.421-5.079.515L707.9,223.36l.545,5.324c.3,2.874.489,5.793.577,8.684.042,1.285.062,2.567.062,3.8a123.7,123.7,0,0,1-1.021,15.759,125.286,125.286,0,0,1-4.345,20.179l-1.556,5.118,15.068,4.567-.137.4c-.652,1.824-1.331,3.686-2.062,5.546a138.587,138.587,0,0,1-17.941,32.027l-.254.326-12.2-9.943-3.376,4.146a123.907,123.907,0,0,1-37.635,30.99l-4.662,2.528,7.385,13.834-.382.186a138.638,138.638,0,0,1-40.7,12.451Zm-.858-16.542,1.582,15.616a137.81,137.81,0,0,0,39.66-12.125l-7.369-13.8,5.418-2.91a123.075,123.075,0,0,0,37.387-30.778l3.892-4.779,12.174,9.92a137.722,137.722,0,0,0,17.583-31.5c.675-1.7,1.3-3.412,1.908-5.1L701.2,282.766l1.788-5.9a122.846,122.846,0,0,0,5.333-35.7c0-1.227-.02-2.5-.059-3.777-.091-2.867-.284-5.767-.574-8.625l-.633-6.133,15.619-1.6a137.047,137.047,0,0,0-12.1-39.712l-13.808,7.372-2.91-5.418c-.753-1.4-1.53-2.783-2.306-4.107A121.349,121.349,0,0,0,663.1,145.977l-4.812-3.892,9.946-12.2a136.978,136.978,0,0,0-32.35-17.941l-1.243-.476c-1.021-.388-2.049-.763-3.053-1.116l-4.567,15.035-5.9-1.791a124,124,0,0,0-20.378-4.368H600.7a122.5,122.5,0,0,0-15.283-.979,120.9,120.9,0,0,0-12.4.652l-6.133.63-1.6-15.619a137.9,137.9,0,0,0-39.7,12.122l7.356,13.782-5.418,2.91a121.859,121.859,0,0,0-37.3,30.725l-3.882,4.808-12.2-9.949a136.6,136.6,0,0,0-19.537,36.666l15.051,4.567-1.791,5.9a121.824,121.824,0,0,0-4.7,48.1l.62,6.126-15.619,1.589a137.984,137.984,0,0,0,12.109,39.713l13.8-7.366L477,299.018a121.9,121.9,0,0,0,30.778,37.321l4.805,3.892-9.946,12.2a136.61,136.61,0,0,0,36.594,19.52l4.567-15.041,5.9,1.794a122.979,122.979,0,0,0,35.795,5.35,120.922,120.922,0,0,0,12.4-.636Z" transform="translate(-441.283 -97.033)" fill="#3aa255"/>
  <path id="Path_185914" data-name="Path 185914" d="M713.327,445.407a76.378,76.378,0,0,1-71.019-48.465c-.3-.78-.561-1.471-.789-2.111h0a75.934,75.934,0,0,1-1.142-47.838A76.812,76.812,0,0,1,666.8,308.771c1.266-.979,2.587-1.925,3.914-2.825a76.591,76.591,0,0,1,34.921-12.611c2.284-.228,4.635-.356,6.945-.375h.652a76.3,76.3,0,0,1,76.277,76.166c0,1.171-.029,2.342-.082,3.481-.039.878-.095,1.788-.173,2.7A76.751,76.751,0,0,1,786.2,391.3,75.779,75.779,0,0,1,713.327,445.407Zm-.1-151.634h-.62c-2.284.02-4.6.147-6.87.372a75.772,75.772,0,0,0-34.545,12.474c-1.328.894-2.636,1.833-3.888,2.8a75.341,75.341,0,0,0-25,85.157l-.006-.017c.222.63.476,1.3.78,2.084a75.417,75.417,0,0,0,145.371-21.4c.075-.907.134-1.8.17-2.672.055-1.129.082-2.283.082-3.445a75.492,75.492,0,0,0-75.462-75.351Z" transform="translate(-569.189 -225.04)" fill="#3aa255"/>
</svg>
