<svg xmlns="http://www.w3.org/2000/svg" xmlns:xlink="http://www.w3.org/1999/xlink" width="189.999" height="100" viewBox="0 0 189.999 100">
  <defs>
    <linearGradient id="linear-gradient" x1="0.5" x2="0.5" y2="1" gradientUnits="objectBoundingBox">
      <stop offset="0" stop-color="#ffd341"/>
      <stop offset="1" stop-color="#ffbd31"/>
    </linearGradient>
    <linearGradient id="linear-gradient-2" x1="0.5" x2="0.5" y2="1" gradientUnits="objectBoundingBox">
      <stop offset="0" stop-color="#95e17a"/>
      <stop offset="1" stop-color="#3aa255"/>
    </linearGradient>
    <linearGradient id="linear-gradient-5" x1="0.5" x2="0.5" y2="1" gradientUnits="objectBoundingBox">
      <stop offset="0" stop-color="#a042bf"/>
      <stop offset="1" stop-color="#8126b2"/>
    </linearGradient>
  </defs>
  <g id="t1-ic2" transform="translate(-180 -3518)">
    <g id="Group_117222" data-name="Group 117222">
      <path id="Path_179383" data-name="Path 179383" d="M22.289,24.943C-1.96,45.272-7.5,10.168,11.007,2.292S42.46,8.032,22.289,24.943" transform="translate(180 3518)" fill="url(#linear-gradient)"/>
      <path id="Path_179384" data-name="Path 179384" d="M41.724,25.739c-5.6,6.076-17.01.9-9.594-7.064,8.854-9.515,15.191.988,9.594,7.064" transform="translate(181.499 3518.749)" fill="url(#linear-gradient-2)"/>
      <path id="Path_179385" data-name="Path 179385" d="M167.906,75.089c25.308-21.217,31.087,15.42,11.775,23.641s-32.827-5.99-11.775-23.641" transform="translate(178.831 3516.878)" fill="url(#linear-gradient-2)"/>
      <path id="Path_179386" data-name="Path 179386" d="M141.738,79.283c4.141-8.157,17.859-6.073,12.349,4.647-6.58,12.8-16.489,3.51-12.349-4.647" transform="translate(178.242 3517.082)" fill="url(#linear-gradient)"/>
      <path id="Path_179387" data-name="Path 179387" d="M181.455,65.306c6.068-.231,8.621-9.082.626-8.736-9.547.412-6.694,8.967-.626,8.736" transform="translate(178.629 3513.772)" fill="url(#linear-gradient-5)"/>
    </g>
    <g id="literature" transform="translate(228 3500)">
      <g id="Group_97196" data-name="Group 97196" transform="translate(1.848 27.848)">
        <path id="Path_151987" data-name="Path 151987" d="M10,116v59.13H48.065c0,2.042,3.309,3.7,7.391,3.7s7.391-1.654,7.391-3.7h38.065V116Z" transform="translate(-10 -101.217)" fill="#95e17a"/>
        <path id="Path_151988" data-name="Path 151988" d="M369.087,410.783l-5.466-3.7-5.621,3.7V396h11.087Z" transform="translate(-293.696 -329.478)" fill="#ffd341"/>
        <path id="Path_151989" data-name="Path 151989" d="M118,43.391V36a64.027,64.027,0,0,0-29.935,7.391H50v59.13h75.761V43.391Z" transform="translate(-42.609 -36)" fill="#eefaff"/>
      </g>
      <g id="Group_97197" data-name="Group 97197" transform="translate(0 26)">
        <path id="Path_151990" data-name="Path 151990" d="M92.761,40.783H86.848V35.239A1.848,1.848,0,0,0,85,33.391H79.087V27.848A1.848,1.848,0,0,0,77.239,26a65.9,65.9,0,0,0-30.37,7.391H9.239a1.848,1.848,0,0,0-1.848,1.848v5.543H1.848A1.848,1.848,0,0,0,0,42.63v59.13a1.848,1.848,0,0,0,1.848,1.848H12.565a1.848,1.848,0,0,0,0-3.7H3.7V44.478h3.7V94.369a1.848,1.848,0,0,0,1.848,1.848H64.3v3.7H54.7a1.848,1.848,0,0,0-1.848,1.848c0,.064-.2.489-1.143.961a11.355,11.355,0,0,1-8.8,0c-.945-.472-1.143-.9-1.143-.961a1.848,1.848,0,0,0-1.848-1.848H29.2a1.848,1.848,0,1,0,0,3.7h9.356c1.213,2.2,4.575,3.7,8.753,3.7s7.54-1.5,8.753-3.7H64.3v5.543a1.848,1.848,0,0,0,2.863,1.544l4.592-3.019,4.445,3.006a1.848,1.848,0,0,0,2.883-1.531v-5.543H92.761a1.848,1.848,0,0,0,1.848-1.848V42.63a1.848,1.848,0,0,0-1.848-1.848Zm-47.3,51.739H11.087V37.087H45.456Zm3.7-56.14a63.193,63.193,0,0,1,26.239-6.658V85.156a65.588,65.588,0,0,0-26.239,6.238Zm26.239,69.29-2.583-1.747a1.848,1.848,0,0,0-2.05-.013L68,105.726V96.217h7.391ZM56.077,92.522a63.42,63.42,0,0,1,21.162-3.7,1.848,1.848,0,0,0,1.848-1.848V37.087h4.065V92.522Zm34.836,7.391H79.087v-3.7H85a1.848,1.848,0,0,0,1.848-1.848V44.478h4.065Z" transform="translate(0 -26)"/>
        <path id="Path_151991" data-name="Path 151991" d="M81.848,129.7H97.739a1.848,1.848,0,0,0,0-3.7H81.848a1.848,1.848,0,0,0,0,3.7Z" transform="translate(-65.217 -107.522)"/>
        <path id="Path_151992" data-name="Path 151992" d="M81.848,169.7H105.13a1.848,1.848,0,1,0,0-3.7H81.848a1.848,1.848,0,1,0,0,3.7Z" transform="translate(-65.217 -140.13)"/>
        <path id="Path_151993" data-name="Path 151993" d="M81.848,209.7H105.13a1.848,1.848,0,1,0,0-3.7H81.848a1.848,1.848,0,1,0,0,3.7Z" transform="translate(-65.217 -172.739)"/>
        <path id="Path_151994" data-name="Path 151994" d="M81.848,249.7H105.13a1.848,1.848,0,1,0,0-3.7H81.848a1.848,1.848,0,1,0,0,3.7Z" transform="translate(-65.217 -205.348)"/>
        <path id="Path_151995" data-name="Path 151995" d="M81.848,289.7H105.13a1.848,1.848,0,0,0,0-3.7H81.848a1.848,1.848,0,0,0,0,3.7Z" transform="translate(-65.217 -237.957)"/>
        <path id="Path_151996" data-name="Path 151996" d="M81.848,329.7H105.13a1.848,1.848,0,1,0,0-3.7H81.848a1.848,1.848,0,1,0,0,3.7Z" transform="translate(-65.217 -270.565)"/>
        <circle id="Ellipse_4413" data-name="Ellipse 4413" cx="1.979" cy="1.979" r="1.979" transform="translate(19.001 73.915)"/>
      </g>
    </g>
  </g>
</svg>
