<svg xmlns="http://www.w3.org/2000/svg" xmlns:xlink="http://www.w3.org/1999/xlink" width="400" height="240" viewBox="0 0 400 240">
  <defs>
    <filter id="Ellipse_4900" x="129.5" y="7.491" width="141" height="141" filterUnits="userSpaceOnUse">
      <feOffset dy="5" input="SourceAlpha"/>
      <feGaussianBlur stdDeviation="3.5" result="blur"/>
      <feFlood flood-opacity="0.122"/>
      <feComposite operator="in" in2="blur"/>
      <feComposite in="SourceGraphic"/>
    </filter>
  </defs>
  <g id="t2-card2" transform="translate(2323 8476)">
    <rect id="Rectangle_38396" data-name="Rectangle 38396" width="400" height="240" rx="20" transform="translate(-2323 -8476)" fill="none"/>
    <path id="Path_186222" data-name="Path 186222" d="M73.128,18.1h6.563V21H69.358V5.359h3.771Zm7.53-3.019a6.86,6.86,0,0,1,.677-3.1A4.84,4.84,0,0,1,83.28,9.893a5.856,5.856,0,0,1,2.976-.73,5.344,5.344,0,0,1,4.114,1.617,6.2,6.2,0,0,1,1.5,4.4v.129a6.019,6.019,0,0,1-1.509,4.313,5.359,5.359,0,0,1-4.087,1.6,5.42,5.42,0,0,1-3.985-1.488,5.819,5.819,0,0,1-1.622-4.034Zm3.62.226a4.325,4.325,0,0,0,.5,2.363,1.682,1.682,0,0,0,1.493.752q1.934,0,1.977-2.976v-.365q0-3.126-2-3.126-1.815,0-1.966,2.7Zm15.275,2.428a.836.836,0,0,0-.483-.741,7.353,7.353,0,0,0-1.837-.58A8.376,8.376,0,0,1,95,15.624a3.743,3.743,0,0,1-1.343-1.187,2.834,2.834,0,0,1-.462-1.6A3.212,3.212,0,0,1,94.516,10.2a5.443,5.443,0,0,1,3.459-1.037,6.03,6.03,0,0,1,3.7,1.042,3.258,3.258,0,0,1,1.4,2.739H99.436q0-1.4-1.472-1.4a1.459,1.459,0,0,0-.956.317.981.981,0,0,0-.387.79.9.9,0,0,0,.473.784,4.466,4.466,0,0,0,1.509.494,13.043,13.043,0,0,1,1.821.462q2.621.9,2.621,3.233a3.044,3.044,0,0,1-1.413,2.589,6.2,6.2,0,0,1-3.658,1,6.322,6.322,0,0,1-2.664-.537,4.455,4.455,0,0,1-1.826-1.461,3.308,3.308,0,0,1-.655-1.944h3.384a1.4,1.4,0,0,0,.537,1.176,2.209,2.209,0,0,0,1.321.371,1.738,1.738,0,0,0,1.112-.3A.962.962,0,0,0,99.554,17.734Zm21.452-2.46a7.009,7.009,0,0,1-1.219,4.324,3.909,3.909,0,0,1-3.292,1.617,3.351,3.351,0,0,1-2.632-1.171v5.425h-3.62V9.377h3.384l.107,1.074a3.351,3.351,0,0,1,2.739-1.289,3.941,3.941,0,0,1,3.341,1.584,7.1,7.1,0,0,1,1.192,4.356Zm-3.62-.226q0-3.094-1.8-3.094a1.7,1.7,0,0,0-1.719.924v4.576a1.759,1.759,0,0,0,1.74.967q1.729,0,1.783-2.986Zm12.246-2.4-1.192-.086a2.142,2.142,0,0,0-2.191,1.074V21h-3.62V9.377h3.395l.118,1.493a2.8,2.8,0,0,1,2.546-1.708,3.53,3.53,0,0,1,1.01.129Zm6.725,8.562a5.975,5.975,0,0,1-4.329-1.6,5.509,5.509,0,0,1-1.654-4.152v-.3a7.138,7.138,0,0,1,.661-3.147,4.834,4.834,0,0,1,1.928-2.111,5.821,5.821,0,0,1,3.008-.747,5.031,5.031,0,0,1,3.867,1.52,5.973,5.973,0,0,1,1.418,4.238v1.407h-7.2a2.609,2.609,0,0,0,.849,1.536,2.525,2.525,0,0,0,1.7.559,3.254,3.254,0,0,0,2.686-1.2l1.654,1.955a4.624,4.624,0,0,1-1.917,1.488A6.48,6.48,0,0,1,136.357,21.215Zm-.408-9.26q-1.59,0-1.891,2.105h3.652v-.279a1.793,1.793,0,0,0-.44-1.348A1.753,1.753,0,0,0,135.949,11.955ZM149.258,21a4.088,4.088,0,0,1-.344-1.042,3.366,3.366,0,0,1-2.793,1.257,4.124,4.124,0,0,1-2.793-.994,3.163,3.163,0,0,1-1.149-2.5,3.251,3.251,0,0,1,1.4-2.857,7.114,7.114,0,0,1,4.061-.967h1.117v-.615q0-1.608-1.386-1.608a1.133,1.133,0,0,0-1.289,1.274h-3.62a3.245,3.245,0,0,1,1.434-2.736,6.027,6.027,0,0,1,3.658-1.051,5.284,5.284,0,0,1,3.513,1.085,3.772,3.772,0,0,1,1.321,2.976v5.146a5.269,5.269,0,0,0,.494,2.449V21Zm-2.267-2.363a2.019,2.019,0,0,0,1.123-.29,1.818,1.818,0,0,0,.639-.655V15.833H147.7q-1.891,0-1.891,1.7a1.036,1.036,0,0,0,.333.8A1.205,1.205,0,0,0,146.992,18.637Zm12.311-.215a1.61,1.61,0,0,0,1.182-.414,1.517,1.517,0,0,0,.408-1.155h3.395a4.018,4.018,0,0,1-1.37,3.137,5.1,5.1,0,0,1-3.529,1.225,5.158,5.158,0,0,1-4-1.59,6.264,6.264,0,0,1-1.461-4.4v-.15a7.08,7.08,0,0,1,.65-3.11,4.732,4.732,0,0,1,1.875-2.073,5.589,5.589,0,0,1,2.9-.725,5.03,5.03,0,0,1,3.6,1.257,4.458,4.458,0,0,1,1.332,3.405h-3.395a1.987,1.987,0,0,0-.44-1.386,1.52,1.52,0,0,0-1.182-.483q-1.407,0-1.644,1.794a12.659,12.659,0,0,0-.075,1.568,4.972,4.972,0,0,0,.419,2.428A1.45,1.45,0,0,0,159.3,18.422Zm11.43,0a1.61,1.61,0,0,0,1.182-.414,1.517,1.517,0,0,0,.408-1.155h3.395a4.018,4.018,0,0,1-1.37,3.137,5.1,5.1,0,0,1-3.529,1.225,5.158,5.158,0,0,1-4-1.59,6.264,6.264,0,0,1-1.461-4.4v-.15a7.08,7.08,0,0,1,.65-3.11,4.732,4.732,0,0,1,1.875-2.073,5.589,5.589,0,0,1,2.9-.725,5.03,5.03,0,0,1,3.6,1.257,4.458,4.458,0,0,1,1.332,3.405h-3.395a1.987,1.987,0,0,0-.44-1.386,1.52,1.52,0,0,0-1.182-.483q-1.407,0-1.644,1.794a12.659,12.659,0,0,0-.075,1.568,4.972,4.972,0,0,0,.419,2.428A1.45,1.45,0,0,0,170.732,18.422ZM181.066,21h-3.631V9.377h3.631ZM177.22,6.369a1.63,1.63,0,0,1,.559-1.275,2.364,2.364,0,0,1,2.9,0,1.63,1.63,0,0,1,.559,1.275,1.63,1.63,0,0,1-.559,1.275,2.364,2.364,0,0,1-2.9,0A1.63,1.63,0,0,1,177.22,6.369Zm5.618,8.712a6.86,6.86,0,0,1,.677-3.1,4.84,4.84,0,0,1,1.944-2.089,5.856,5.856,0,0,1,2.976-.73,5.344,5.344,0,0,1,4.114,1.617,6.2,6.2,0,0,1,1.5,4.4v.129a6.019,6.019,0,0,1-1.509,4.313,5.359,5.359,0,0,1-4.087,1.6,5.42,5.42,0,0,1-3.985-1.488,5.819,5.819,0,0,1-1.622-4.034Zm3.62.226a4.325,4.325,0,0,0,.5,2.363,1.682,1.682,0,0,0,1.493.752q1.934,0,1.977-2.976v-.365q0-3.126-2-3.126-1.815,0-1.966,2.7Zm12.515-5.93.118,1.364a3.942,3.942,0,0,1,3.319-1.579,3.316,3.316,0,0,1,2.712,1.085,5.165,5.165,0,0,1,.929,3.266V21h-3.631V13.663a1.961,1.961,0,0,0-.354-1.294,1.64,1.64,0,0,0-1.289-.414,1.726,1.726,0,0,0-1.579.838V21h-3.62V9.377ZM214.6,21a4.088,4.088,0,0,1-.344-1.042,3.366,3.366,0,0,1-2.793,1.257,4.124,4.124,0,0,1-2.793-.994,3.163,3.163,0,0,1-1.149-2.5,3.251,3.251,0,0,1,1.4-2.857,7.114,7.114,0,0,1,4.061-.967H214.1v-.615q0-1.608-1.386-1.608a1.133,1.133,0,0,0-1.289,1.274H207.8a3.245,3.245,0,0,1,1.434-2.736A6.027,6.027,0,0,1,212.9,9.162a5.284,5.284,0,0,1,3.513,1.085,3.772,3.772,0,0,1,1.321,2.976v5.146a5.269,5.269,0,0,0,.494,2.449V21Zm-2.267-2.363a2.019,2.019,0,0,0,1.123-.29,1.818,1.818,0,0,0,.639-.655V15.833h-1.053q-1.891,0-1.891,1.7a1.036,1.036,0,0,0,.333.8A1.205,1.205,0,0,0,212.336,18.637Zm6.939-3.534a7.1,7.1,0,0,1,1.192-4.351,3.925,3.925,0,0,1,3.33-1.59,3.338,3.338,0,0,1,2.621,1.225V4.5h3.631V21H226.8l-.183-1.246a3.428,3.428,0,0,1-2.836,1.461,3.918,3.918,0,0,1-3.287-1.59A7.325,7.325,0,0,1,219.276,15.1Zm3.62.226q0,3.094,1.8,3.094a1.782,1.782,0,0,0,1.719-1.01V12.986a1.734,1.734,0,0,0-1.7-1.031q-1.676,0-1.815,2.707Zm8.755-.247a6.86,6.86,0,0,1,.677-3.1,4.84,4.84,0,0,1,1.944-2.089,5.856,5.856,0,0,1,2.976-.73,5.344,5.344,0,0,1,4.114,1.617,6.2,6.2,0,0,1,1.5,4.4v.129a6.019,6.019,0,0,1-1.509,4.313,5.359,5.359,0,0,1-4.087,1.6,5.42,5.42,0,0,1-3.985-1.488,5.819,5.819,0,0,1-1.622-4.034Zm3.62.226a4.325,4.325,0,0,0,.5,2.363,1.682,1.682,0,0,0,1.493.752q1.934,0,1.977-2.976v-.365q0-3.126-2-3.126-1.815,0-1.966,2.7Zm16.221-2.653-1.192-.086a2.142,2.142,0,0,0-2.191,1.074V21h-3.62V9.377h3.395L248,10.87a2.8,2.8,0,0,1,2.546-1.708,3.53,3.53,0,0,1,1.01.129Zm6.725,8.562a5.975,5.975,0,0,1-4.329-1.6,5.509,5.509,0,0,1-1.654-4.152v-.3a7.138,7.138,0,0,1,.661-3.147,4.834,4.834,0,0,1,1.928-2.111,5.821,5.821,0,0,1,3.008-.747,5.031,5.031,0,0,1,3.867,1.52,5.973,5.973,0,0,1,1.418,4.238v1.407h-7.2a2.609,2.609,0,0,0,.849,1.536,2.525,2.525,0,0,0,1.7.559,3.254,3.254,0,0,0,2.686-1.2l1.654,1.955a4.624,4.624,0,0,1-1.917,1.488A6.48,6.48,0,0,1,258.216,21.215Zm-.408-9.26q-1.59,0-1.891,2.105h3.652v-.279a1.793,1.793,0,0,0-.44-1.348A1.753,1.753,0,0,0,257.808,11.955Zm12.848,5.779a.836.836,0,0,0-.483-.741,7.353,7.353,0,0,0-1.837-.58,8.376,8.376,0,0,1-2.234-.79,3.743,3.743,0,0,1-1.343-1.187,2.834,2.834,0,0,1-.462-1.6,3.212,3.212,0,0,1,1.321-2.637,5.443,5.443,0,0,1,3.459-1.037,6.03,6.03,0,0,1,3.7,1.042,3.258,3.258,0,0,1,1.4,2.739h-3.631q0-1.4-1.472-1.4a1.459,1.459,0,0,0-.956.317.981.981,0,0,0-.387.79.9.9,0,0,0,.473.784,4.466,4.466,0,0,0,1.509.494,13.043,13.043,0,0,1,1.821.462q2.621.9,2.621,3.233a3.044,3.044,0,0,1-1.413,2.589,6.2,6.2,0,0,1-3.658,1,6.322,6.322,0,0,1-2.664-.537,4.455,4.455,0,0,1-1.826-1.461,3.308,3.308,0,0,1-.655-1.944h3.384a1.4,1.4,0,0,0,.537,1.176,2.209,2.209,0,0,0,1.321.371,1.738,1.738,0,0,0,1.112-.3A.962.962,0,0,0,270.656,17.734Z" transform="translate(-2294 -8288.256)" fill="#12263f"/>
    <rect id="Rectangle_38394" data-name="Rectangle 38394" width="145" height="2" transform="translate(-2195 -8311.984)" fill="#95e17a"/>
    <g id="Group_118578" data-name="Group 118578" transform="translate(11 321)">
      <g transform="matrix(1, 0, 0, 1, -2334, -8797)" filter="url(#Ellipse_4900)">
        <circle id="Ellipse_4900-2" data-name="Ellipse 4900" cx="60" cy="60" r="60" transform="translate(140 12.99)" fill="#fff"/>
      </g>
      <g id="Group_118540" data-name="Group 118540" transform="translate(-270.544 -1772.009)">
        <path id="Path_185904" data-name="Path 185904" d="M-1860.5-6983v7.1s4.919,1.438,4.919,5.161-4.919,6.29-4.919,6.29v58.54h51.364v-58.54s-4.384-1.253-4.677-5.645,4.677-5.806,4.677-5.806v-7.1Z" transform="translate(-26.41 -7.549)" fill="#95e17a"/>
        <path id="Path_185904_-_Outline" data-name="Path 185904 - Outline" d="M-1861-6983.5h52.364v7.973l-.363.1a7.985,7.985,0,0,0-2.308,1.193,4.558,4.558,0,0,0-2.006,4.1,5.434,5.434,0,0,0,2.225,4.084,7.117,7.117,0,0,0,2.091,1.114l.361.1v59.416H-1861v-59.343l.269-.14c.046-.024,4.65-2.473,4.65-5.847,0-3.3-4.514-4.667-4.559-4.681l-.359-.106v-7.969Zm51.364,1H-1860v6.236a10.655,10.655,0,0,1,2.238,1.128,5.3,5.3,0,0,1,2.681,4.392c0,3.5-3.845,5.964-4.919,6.584v57.745h50.364V-6964.1a8.37,8.37,0,0,1-2.031-1.134,6.484,6.484,0,0,1-2.644-4.834,5.579,5.579,0,0,1,2.428-4.983,9.1,9.1,0,0,1,2.248-1.214Z" transform="translate(-26.41 -7.549)" fill="#707070"/>
        <rect id="Rectangle_38368" data-name="Rectangle 38368" width="23.706" height="23.545" transform="translate(-1872.638 -6946.845)" fill="#a042bf"/>
        <rect id="Rectangle_38369" data-name="Rectangle 38369" width="12.74" height="12.579" transform="translate(-1867.155 -6941.362)" fill="#b672cc"/>
        <rect id="Rectangle_38370" data-name="Rectangle 38370" width="7.902" height="5.483" transform="translate(-1890.861 -6946.845)" fill="#ffd341"/>
        <rect id="Rectangle_38371" data-name="Rectangle 38371" width="7.902" height="5.483" transform="translate(-1890.861 -6936.686)" fill="#ffd341"/>
        <rect id="Rectangle_38372" data-name="Rectangle 38372" width="7.902" height="5.483" transform="translate(-1890.861 -6926.525)" fill="#ffd341"/>
        <rect id="Rectangle_38373" data-name="Rectangle 38373" width="5.161" height="5.483" transform="translate(-1850.544 -6985.711)" fill="#fe7f05"/>
        <rect id="Rectangle_38374" data-name="Rectangle 38374" width="5.161" height="5.483" transform="translate(-1850.544 -6975.551)" fill="#fe7f05"/>
        <circle id="Ellipse_5074" data-name="Ellipse 5074" cx="2.983" cy="2.983" r="2.983" transform="translate(-1865.219 -6982.163)" fill="#ffbd31"/>
        <circle id="Ellipse_5075" data-name="Ellipse 5075" cx="2.983" cy="2.983" r="2.983" transform="translate(-1879.411 -6962.972)" fill="#ffbd31"/>
        <circle id="Ellipse_5076" data-name="Ellipse 5076" cx="2.983" cy="2.983" r="2.983" transform="translate(-1861.188 -6968.938)" fill="#ffbd31"/>
        <circle id="Ellipse_5077" data-name="Ellipse 5077" cx="2.983" cy="2.983" r="2.983" transform="translate(-1845.867 -6962.972)" fill="#ffbd31"/>
        <g id="_000000ff" data-name="#000000ff" transform="translate(-1891.988 -6912) rotate(-90)">
          <path id="Path_185900" data-name="Path 185900" d="M7.751,1.279A1.275,1.275,0,0,1,9.012.008q2.6-.017,5.2,0a1.279,1.279,0,0,1,1.266,1.266c.024.864,0,1.732.008,2.6h2.58c.008-.866-.015-1.73.006-2.595A1.277,1.277,0,0,1,19.341.008q2.593-.017,5.186,0A1.281,1.281,0,0,1,25.8,1.282c.021.863,0,1.726.006,2.59h2.58c.008-.864-.015-1.73.006-2.593A1.276,1.276,0,0,1,29.661.008q2.6-.017,5.194,0A1.277,1.277,0,0,1,36.12,1.273c.024.866,0,1.732.008,2.6H60.49a1.306,1.306,0,0,1,1.393.982,7.681,7.681,0,0,0,.25,1.545,3.87,3.87,0,0,0,6.243,1.648,3.96,3.96,0,0,0,1.3-2.9A1.274,1.274,0,0,1,70.95,3.879q3.883-.017,7.767,0a1.309,1.309,0,0,1,1.276,1.439v51.29a1.312,1.312,0,0,1-1.269,1.443q-3.887.019-7.778,0a1.281,1.281,0,0,1-1.268-1.276A3.93,3.93,0,0,0,68.1,53.654a3.86,3.86,0,0,0-6.141,2.774,1.732,1.732,0,0,1-.408,1.253c-.44.469-1.129.371-1.709.379q-29.19,0-58.382,0a1.359,1.359,0,0,1-1.218-.553A2.663,2.663,0,0,1,0,55.967q0-25,0-50A2.688,2.688,0,0,1,.238,4.422a1.351,1.351,0,0,1,1.2-.55q3.152,0,6.3,0c.008-.864-.015-1.729.006-2.593m2.574,1.3V7.743h2.58V2.582h-2.58m10.321,0V7.743h2.58V2.582h-2.58m10.321,0V7.743h2.58V2.582h-2.58M2.584,6.453V55.478q28.448,0,56.892,0a6.455,6.455,0,0,1,12.648,0c1.763.006,3.525,0,5.288,0V6.453q-2.644,0-5.286,0a6.457,6.457,0,0,1-12.65,0c-.9,0-1.8,0-2.706,0q0,5.54,0,11.079,4.332,4.323,8.657,8.65a3.913,3.913,0,0,1,2.9-.166,3.863,3.863,0,1,1-5,4.562,3.942,3.942,0,0,1,.264-2.566q-4.224-4.245-8.467-8.475c-.4-.408-.951-.814-.935-1.451-.016-3.877,0-7.755-.006-11.634H49.029c.01,1.8-.019,3.6.016,5.406a3.868,3.868,0,1,1-4.775,1.924,3.993,3.993,0,0,1,2.179-1.945V6.453H36.128c-.008.864.016,1.729-.008,2.593a1.28,1.28,0,0,1-1.263,1.271q-2.6.017-5.193,0a1.28,1.28,0,0,1-1.271-1.272c-.021-.863,0-1.727-.006-2.592h-2.58c-.008.868.016,1.734-.008,2.6a1.28,1.28,0,0,1-1.266,1.264q-2.6.017-5.193,0a1.28,1.28,0,0,1-1.268-1.264c-.021-.866,0-1.734-.006-2.6h-2.58c-.008.866.016,1.732-.008,2.6a1.281,1.281,0,0,1-1.266,1.266q-2.6.017-5.193,0A1.28,1.28,0,0,1,7.751,9.051c-.021-.866,0-1.732-.006-2.6H2.584m44.724,7.815a1.289,1.289,0,1,0,1.68,1.526,1.3,1.3,0,0,0-1.68-1.526M66.662,28.461a1.288,1.288,0,1,0,1.679,1.527A1.3,1.3,0,0,0,66.662,28.461Z" transform="translate(0)"/>
          <path id="Path_185901" data-name="Path 185901" d="M9.031,0h2.58c0,1.721,0,3.44,0,5.161h2.58c0-1.721,0-3.44,0-5.161h2.58c0,1.721,0,3.44,0,5.161h2.58c0-1.721,0-3.44,0-5.161h2.58c0,1.721,0,3.44,0,5.161h2.58c0-1.721,0-3.44,0-5.161h2.58c0,1.721,0,3.44,0,5.161.863.008,1.726-.015,2.588.006a1.279,1.279,0,0,1,1.276,1.268c.021.864,0,1.73.006,2.6,1.721,0,3.44,0,5.161,0v2.58c-1.721,0-3.44,0-5.161,0v2.58c1.721,0,3.44,0,5.161,0v2.58c-1.721,0-3.44,0-5.161,0v2.58c4.8,0,9.6-.01,14.4.008a4.09,4.09,0,0,1,1.847-2.13,3.869,3.869,0,1,1,.343,6.985,3.961,3.961,0,0,1-2.175-2.282H30.963v2.58c3.874,0,7.749-.01,11.621.006a1.281,1.281,0,0,1,1.274,1.272c.019,2.23,0,4.461.01,6.693a3.963,3.963,0,0,1,2.174,1.937A3.872,3.872,0,1,1,41.267,32.5c.042-1.8.006-3.606.018-5.409H30.963c-.01.866.016,1.734-.008,2.6a1.283,1.283,0,0,1-1.266,1.264c-.866.021-1.73,0-2.6.006,0,1.721,0,3.44,0,5.161h-2.58c0-1.721,0-3.44,0-5.161h-2.58c0,1.721,0,3.44,0,5.161h-2.58c0-1.721,0-3.44,0-5.161h-2.58c0,1.721,0,3.44,0,5.161h-2.58c0-1.721,0-3.44,0-5.161h-2.58c0,1.721,0,3.44,0,5.161H9.031c0-1.721,0-3.44,0-5.161-.866-.01-1.732.015-2.6-.006a1.279,1.279,0,0,1-1.268-1.268c-.021-.866,0-1.73-.006-2.6-1.721,0-3.44,0-5.161,0v-2.58c1.721,0,3.44,0,5.161,0v-2.58c-1.721,0-3.44,0-5.161,0v-2.58c1.721,0,3.44,0,5.161,0v-2.58c-1.721,0-3.44,0-5.161,0v-2.58c1.721,0,3.44,0,5.161,0v-2.58c-1.721,0-3.44,0-5.161,0V9.031c1.721,0,3.44,0,5.161,0,.008-.866-.015-1.732.006-2.6A1.275,1.275,0,0,1,6.433,5.167c.864-.021,1.732,0,2.6-.006,0-1.721,0-3.44,0-5.161M7.741,7.741V28.383H28.383V7.741H7.741M48.592,19.43A1.288,1.288,0,1,0,50.3,20.478a1.3,1.3,0,0,0-1.711-1.048M42.142,34.908a1.289,1.289,0,1,0,1.68,1.527A1.3,1.3,0,0,0,42.142,34.908Z" transform="translate(5.164 12.903)"/>
          <path id="Path_185902" data-name="Path 185902" d="M.864.079A2.516,2.516,0,0,1,1.617,0c4.2.011,8.4-.008,12.6.01a1.309,1.309,0,0,1,1.269,1.44c0,4.254.01,8.508-.008,12.761a1.31,1.31,0,0,1-1.437,1.274c-4.256,0-8.512.01-12.766-.006A1.281,1.281,0,0,1,.011,14.211C-.005,9.953.009,5.7,0,1.44A1.323,1.323,0,0,1,.864.079m1.721,2.5V12.9H12.906V2.584Z" transform="translate(15.481 23.221)"/>
          <path id="Path_185903" data-name="Path 185903" d="M.009,1.279A1.277,1.277,0,0,1,1.278.008q2.593-.017,5.188,0A1.272,1.272,0,0,1,7.722,1.12c.044.485.016.974.021,1.463h2.58A8.247,8.247,0,0,1,10.4.865,1.28,1.28,0,0,1,11.6.008q2.591-.017,5.186,0a1.28,1.28,0,0,1,1.268,1.274q.017,2.593,0,5.188a1.281,1.281,0,0,1-1.271,1.266q-2.6.017-5.19,0a1.273,1.273,0,0,1-1.251-1.108c-.044-.487-.018-.977-.021-1.466H7.743a8.052,8.052,0,0,1-.077,1.719A1.329,1.329,0,0,1,6.3,7.743c-1.674,0-3.346.01-5.019-.006A1.277,1.277,0,0,1,.01,6.477q-.022-2.6,0-5.2m2.574,1.3v2.58h2.58V2.582H2.583m10.321,0v2.58h2.58V2.582Z" transform="translate(56.768 39.994)"/>
        </g>
      </g>
    </g>
  </g>
</svg>
