<svg xmlns="http://www.w3.org/2000/svg" xmlns:xlink="http://www.w3.org/1999/xlink" width="400" height="240" viewBox="0 0 400 240">
  <defs>
    <clipPath id="clip-path">
      <rect id="Rectangle_38289" data-name="Rectangle 38289" width="265.043" height="240" transform="translate(462.833 803)" fill="#ffbd31" stroke="#707070" stroke-width="1"/>
    </clipPath>
  </defs>
  <g id="t2-f1" transform="translate(-389.833 -805)">
    <rect id="Rectangle_38285" data-name="Rectangle 38285" width="351.136" height="100" rx="10" transform="translate(414.598 931)" fill="#e2c6ec"/>
    <g id="Group_118495" data-name="Group 118495" transform="translate(389.833 933.938) rotate(-90)">
      <path id="Path_100813" data-name="Path 100813" d="M1.847,3.695A1.847,1.847,0,1,1,3.7,1.847,1.847,1.847,0,0,1,1.847,3.695" transform="translate(25.092 0)" fill="#ffbd31"/>
      <path id="Path_100814" data-name="Path 100814" d="M1.847,3.7A1.848,1.848,0,1,1,3.7,1.848,1.847,1.847,0,0,1,1.847,3.7" transform="translate(25.092 9.033)" fill="#ffbd31"/>
      <path id="Path_100815" data-name="Path 100815" d="M1.847,3.7A1.848,1.848,0,1,1,3.7,1.848,1.848,1.848,0,0,1,1.847,3.7" transform="translate(25.092 18.068)" fill="#ffbd31"/>
      <path id="Path_100816" data-name="Path 100816" d="M1.847,3.7A1.848,1.848,0,1,1,3.7,1.848,1.849,1.849,0,0,1,1.847,3.7" transform="translate(25.092 27.101)" fill="#ffbd31"/>
      <path id="Path_100817" data-name="Path 100817" d="M1.847,3.7A1.848,1.848,0,1,1,3.7,1.847,1.849,1.849,0,0,1,1.847,3.7" transform="translate(25.092 36.134)" fill="#ffbd31"/>
      <path id="Path_100818" data-name="Path 100818" d="M1.847,3.7A1.848,1.848,0,1,1,3.7,1.847,1.849,1.849,0,0,1,1.847,3.7" transform="translate(25.092 45.169)" fill="#ffbd31"/>
      <path id="Path_100819" data-name="Path 100819" d="M1.847,3.7A1.848,1.848,0,1,1,3.7,1.847,1.848,1.848,0,0,1,1.847,3.7" transform="translate(25.092 54.202)" fill="#ffbd31"/>
      <path id="Path_100820" data-name="Path 100820" d="M1.847,3.695A1.847,1.847,0,1,1,3.7,1.847,1.847,1.847,0,0,1,1.847,3.695" transform="translate(25.092 63.238)" fill="#ffbd31"/>
      <path id="Path_100825" data-name="Path 100825" d="M1.849,3.695A1.847,1.847,0,1,1,3.7,1.847,1.848,1.848,0,0,1,1.849,3.695" transform="translate(16.726 0)" fill="#ffbd31"/>
      <path id="Path_100826" data-name="Path 100826" d="M1.849,3.7A1.848,1.848,0,1,1,3.7,1.848,1.848,1.848,0,0,1,1.849,3.7" transform="translate(16.726 9.033)" fill="#ffbd31"/>
      <path id="Path_100827" data-name="Path 100827" d="M1.849,3.7A1.848,1.848,0,1,1,3.7,1.848,1.848,1.848,0,0,1,1.849,3.7" transform="translate(16.726 18.068)" fill="#ffbd31"/>
      <path id="Path_100828" data-name="Path 100828" d="M1.849,3.7A1.848,1.848,0,1,1,3.7,1.848,1.849,1.849,0,0,1,1.849,3.7" transform="translate(16.726 27.101)" fill="#ffbd31"/>
      <path id="Path_100829" data-name="Path 100829" d="M1.849,3.7A1.848,1.848,0,1,1,3.7,1.847,1.849,1.849,0,0,1,1.849,3.7" transform="translate(16.726 36.134)" fill="#ffbd31"/>
      <path id="Path_100830" data-name="Path 100830" d="M1.849,3.7A1.848,1.848,0,1,1,3.7,1.847,1.849,1.849,0,0,1,1.849,3.7" transform="translate(16.726 45.169)" fill="#ffbd31"/>
      <path id="Path_100831" data-name="Path 100831" d="M1.849,3.7A1.848,1.848,0,1,1,3.7,1.847,1.848,1.848,0,0,1,1.849,3.7" transform="translate(16.726 54.202)" fill="#ffbd31"/>
      <path id="Path_100832" data-name="Path 100832" d="M1.849,3.695A1.847,1.847,0,1,1,3.7,1.847,1.848,1.848,0,0,1,1.849,3.695" transform="translate(16.726 63.238)" fill="#ffbd31"/>
      <path id="Path_100837" data-name="Path 100837" d="M1.847,3.695A1.847,1.847,0,1,1,3.7,1.847,1.847,1.847,0,0,1,1.847,3.695" transform="translate(8.364 0)" fill="#ffbd31"/>
      <path id="Path_100838" data-name="Path 100838" d="M1.847,3.7A1.848,1.848,0,1,1,3.7,1.848,1.847,1.847,0,0,1,1.847,3.7" transform="translate(8.364 9.033)" fill="#ffbd31"/>
      <path id="Path_100839" data-name="Path 100839" d="M1.847,3.7A1.848,1.848,0,1,1,3.7,1.848,1.847,1.847,0,0,1,1.847,3.7" transform="translate(8.364 18.068)" fill="#ffbd31"/>
      <path id="Path_100840" data-name="Path 100840" d="M1.847,3.7A1.848,1.848,0,1,1,3.7,1.848,1.848,1.848,0,0,1,1.847,3.7" transform="translate(8.364 27.101)" fill="#ffbd31"/>
      <path id="Path_100841" data-name="Path 100841" d="M1.847,3.7A1.848,1.848,0,1,1,3.7,1.847,1.848,1.848,0,0,1,1.847,3.7" transform="translate(8.364 36.134)" fill="#ffbd31"/>
      <path id="Path_100842" data-name="Path 100842" d="M1.847,3.7A1.848,1.848,0,1,1,3.7,1.847,1.848,1.848,0,0,1,1.847,3.7" transform="translate(8.364 45.169)" fill="#ffbd31"/>
      <path id="Path_100843" data-name="Path 100843" d="M1.847,3.7A1.848,1.848,0,1,1,3.7,1.847,1.848,1.848,0,0,1,1.847,3.7" transform="translate(8.364 54.202)" fill="#ffbd31"/>
      <path id="Path_100844" data-name="Path 100844" d="M1.847,3.695A1.847,1.847,0,1,1,3.7,1.847,1.847,1.847,0,0,1,1.847,3.695" transform="translate(8.364 63.238)" fill="#ffbd31"/>
      <path id="Path_100849" data-name="Path 100849" d="M1.847,3.695A1.847,1.847,0,1,1,3.695,1.847,1.847,1.847,0,0,1,1.847,3.695" transform="translate(0 0)" fill="#ffbd31"/>
      <path id="Path_100850" data-name="Path 100850" d="M1.847,3.7A1.848,1.848,0,1,1,3.695,1.848,1.847,1.847,0,0,1,1.847,3.7" transform="translate(0 9.033)" fill="#ffbd31"/>
      <path id="Path_100851" data-name="Path 100851" d="M1.847,3.7A1.848,1.848,0,1,1,3.695,1.848,1.847,1.847,0,0,1,1.847,3.7" transform="translate(0 18.068)" fill="#ffbd31"/>
      <path id="Path_100852" data-name="Path 100852" d="M1.847,3.7A1.848,1.848,0,1,1,3.695,1.848,1.848,1.848,0,0,1,1.847,3.7" transform="translate(0 27.101)" fill="#ffbd31"/>
      <path id="Path_100853" data-name="Path 100853" d="M1.847,3.7A1.848,1.848,0,1,1,3.695,1.847,1.848,1.848,0,0,1,1.847,3.7" transform="translate(0 36.134)" fill="#ffbd31"/>
      <path id="Path_100854" data-name="Path 100854" d="M1.847,3.7A1.848,1.848,0,1,1,3.695,1.847,1.848,1.848,0,0,1,1.847,3.7" transform="translate(0 45.169)" fill="#ffbd31"/>
      <path id="Path_100855" data-name="Path 100855" d="M1.847,3.7A1.848,1.848,0,1,1,3.695,1.847,1.848,1.848,0,0,1,1.847,3.7" transform="translate(0 54.202)" fill="#ffbd31"/>
      <path id="Path_100856" data-name="Path 100856" d="M1.847,3.695A1.847,1.847,0,1,1,3.695,1.847,1.847,1.847,0,0,1,1.847,3.695" transform="translate(0 63.238)" fill="#ffbd31"/>
    </g>
    <g id="Group_118496" data-name="Group 118496" transform="translate(722.9 1045) rotate(-90)">
      <path id="Path_100811" data-name="Path 100811" d="M1.847,3.7A1.848,1.848,0,1,1,3.7,1.847,1.848,1.848,0,0,1,1.847,3.7" transform="translate(25.092 0)" fill="#a042bf"/>
      <path id="Path_100812" data-name="Path 100812" d="M1.847,3.7A1.848,1.848,0,1,1,3.7,1.847,1.848,1.848,0,0,1,1.847,3.7" transform="translate(25.092 9.034)" fill="#a042bf"/>
      <path id="Path_100813-2" data-name="Path 100813" d="M1.847,3.695A1.847,1.847,0,1,1,3.7,1.847,1.847,1.847,0,0,1,1.847,3.695" transform="translate(25.092 18.068)" fill="#a042bf"/>
      <path id="Path_100814-2" data-name="Path 100814" d="M1.847,3.7A1.848,1.848,0,1,1,3.7,1.848,1.847,1.847,0,0,1,1.847,3.7" transform="translate(25.092 27.102)" fill="#a042bf"/>
      <path id="Path_100815-2" data-name="Path 100815" d="M1.847,3.7A1.848,1.848,0,1,1,3.7,1.848,1.848,1.848,0,0,1,1.847,3.7" transform="translate(25.092 36.136)" fill="#a042bf"/>
      <path id="Path_100816-2" data-name="Path 100816" d="M1.847,3.7A1.848,1.848,0,1,1,3.7,1.848,1.849,1.849,0,0,1,1.847,3.7" transform="translate(25.092 45.169)" fill="#a042bf"/>
      <path id="Path_100817-2" data-name="Path 100817" d="M1.847,3.7A1.848,1.848,0,1,1,3.7,1.847,1.849,1.849,0,0,1,1.847,3.7" transform="translate(25.092 54.203)" fill="#a042bf"/>
      <path id="Path_100818-2" data-name="Path 100818" d="M1.847,3.7A1.848,1.848,0,1,1,3.7,1.847,1.849,1.849,0,0,1,1.847,3.7" transform="translate(25.092 63.237)" fill="#a042bf"/>
      <path id="Path_100823" data-name="Path 100823" d="M1.849,3.7A1.848,1.848,0,1,1,3.7,1.847,1.848,1.848,0,0,1,1.849,3.7" transform="translate(16.726 0)" fill="#a042bf"/>
      <path id="Path_100824" data-name="Path 100824" d="M1.849,3.7A1.848,1.848,0,1,1,3.7,1.847,1.849,1.849,0,0,1,1.849,3.7" transform="translate(16.726 9.034)" fill="#a042bf"/>
      <path id="Path_100825-2" data-name="Path 100825" d="M1.849,3.695A1.847,1.847,0,1,1,3.7,1.847,1.848,1.848,0,0,1,1.849,3.695" transform="translate(16.726 18.068)" fill="#a042bf"/>
      <path id="Path_100826-2" data-name="Path 100826" d="M1.849,3.7A1.848,1.848,0,1,1,3.7,1.848,1.848,1.848,0,0,1,1.849,3.7" transform="translate(16.726 27.102)" fill="#a042bf"/>
      <path id="Path_100827-2" data-name="Path 100827" d="M1.849,3.7A1.848,1.848,0,1,1,3.7,1.848,1.848,1.848,0,0,1,1.849,3.7" transform="translate(16.726 36.136)" fill="#a042bf"/>
      <path id="Path_100828-2" data-name="Path 100828" d="M1.849,3.7A1.848,1.848,0,1,1,3.7,1.848,1.849,1.849,0,0,1,1.849,3.7" transform="translate(16.726 45.169)" fill="#a042bf"/>
      <path id="Path_100829-2" data-name="Path 100829" d="M1.849,3.7A1.848,1.848,0,1,1,3.7,1.847,1.849,1.849,0,0,1,1.849,3.7" transform="translate(16.726 54.203)" fill="#a042bf"/>
      <path id="Path_100830-2" data-name="Path 100830" d="M1.849,3.7A1.848,1.848,0,1,1,3.7,1.847,1.849,1.849,0,0,1,1.849,3.7" transform="translate(16.726 63.237)" fill="#a042bf"/>
      <path id="Path_100835" data-name="Path 100835" d="M1.847,3.7A1.848,1.848,0,1,1,3.7,1.847,1.848,1.848,0,0,1,1.847,3.7" transform="translate(8.364 0)" fill="#a042bf"/>
      <path id="Path_100836" data-name="Path 100836" d="M1.847,3.7A1.848,1.848,0,1,1,3.7,1.847,1.848,1.848,0,0,1,1.847,3.7" transform="translate(8.364 9.034)" fill="#a042bf"/>
      <path id="Path_100837-2" data-name="Path 100837" d="M1.847,3.695A1.847,1.847,0,1,1,3.7,1.847,1.847,1.847,0,0,1,1.847,3.695" transform="translate(8.364 18.068)" fill="#a042bf"/>
      <path id="Path_100838-2" data-name="Path 100838" d="M1.847,3.7A1.848,1.848,0,1,1,3.7,1.848,1.847,1.847,0,0,1,1.847,3.7" transform="translate(8.364 27.102)" fill="#a042bf"/>
      <path id="Path_100839-2" data-name="Path 100839" d="M1.847,3.7A1.848,1.848,0,1,1,3.7,1.848,1.847,1.847,0,0,1,1.847,3.7" transform="translate(8.364 36.136)" fill="#a042bf"/>
      <path id="Path_100840-2" data-name="Path 100840" d="M1.847,3.7A1.848,1.848,0,1,1,3.7,1.848,1.848,1.848,0,0,1,1.847,3.7" transform="translate(8.364 45.169)" fill="#a042bf"/>
      <path id="Path_100841-2" data-name="Path 100841" d="M1.847,3.7A1.848,1.848,0,1,1,3.7,1.847,1.848,1.848,0,0,1,1.847,3.7" transform="translate(8.364 54.203)" fill="#a042bf"/>
      <path id="Path_100842-2" data-name="Path 100842" d="M1.847,3.7A1.848,1.848,0,1,1,3.7,1.847,1.848,1.848,0,0,1,1.847,3.7" transform="translate(8.364 63.237)" fill="#a042bf"/>
      <path id="Path_100847" data-name="Path 100847" d="M1.847,3.7A1.848,1.848,0,1,1,3.695,1.847,1.848,1.848,0,0,1,1.847,3.7" transform="translate(0 0)" fill="#a042bf"/>
      <path id="Path_100848" data-name="Path 100848" d="M1.847,3.7A1.848,1.848,0,1,1,3.695,1.847,1.848,1.848,0,0,1,1.847,3.7" transform="translate(0 9.034)" fill="#a042bf"/>
      <path id="Path_100849-2" data-name="Path 100849" d="M1.847,3.695A1.847,1.847,0,1,1,3.695,1.847,1.847,1.847,0,0,1,1.847,3.695" transform="translate(0 18.068)" fill="#a042bf"/>
      <path id="Path_100850-2" data-name="Path 100850" d="M1.847,3.7A1.848,1.848,0,1,1,3.695,1.848,1.847,1.847,0,0,1,1.847,3.7" transform="translate(0 27.102)" fill="#a042bf"/>
      <path id="Path_100851-2" data-name="Path 100851" d="M1.847,3.7A1.848,1.848,0,1,1,3.695,1.848,1.847,1.847,0,0,1,1.847,3.7" transform="translate(0 36.136)" fill="#a042bf"/>
      <path id="Path_100852-2" data-name="Path 100852" d="M1.847,3.7A1.848,1.848,0,1,1,3.695,1.848,1.848,1.848,0,0,1,1.847,3.7" transform="translate(0 45.169)" fill="#a042bf"/>
      <path id="Path_100853-2" data-name="Path 100853" d="M1.847,3.7A1.848,1.848,0,1,1,3.695,1.847,1.848,1.848,0,0,1,1.847,3.7" transform="translate(0 54.203)" fill="#a042bf"/>
      <path id="Path_100854-2" data-name="Path 100854" d="M1.847,3.7A1.848,1.848,0,1,1,3.695,1.847,1.848,1.848,0,0,1,1.847,3.7" transform="translate(0 63.237)" fill="#a042bf"/>
    </g>
    <g id="Mask_Group_77" data-name="Mask Group 77" transform="translate(-5 2)" clip-path="url(#clip-path)">
      <g id="Recurso_12" data-name="Recurso 12" transform="translate(483.703 813.435)">
        <g id="Capa_2" data-name="Capa 2">
          <g id="Capa_1" data-name="Capa 1">
            <path id="Path_182185" data-name="Path 182185" d="M24.34,85.33v90.513l4.727,2.915V86.165a22.062,22.062,0,0,1-4.727-.835Z" transform="translate(14.014 49.131)" fill="#eaecef"/>
            <path id="Path_182186" data-name="Path 182186" d="M27.3,85.889v92.593l3.609-2.742V85.81a21.241,21.241,0,0,1-3.609.079Z" transform="translate(15.719 49.407)" fill="#898989"/>
            <path id="Path_182187" data-name="Path 182187" d="M24.34,61.15v90.5l4.727,2.931V61.985a22.061,22.061,0,0,1-4.727-.835Z" transform="translate(14.014 35.209)" fill="#eaecef"/>
            <path id="Path_182188" data-name="Path 182188" d="M27.3,61.709V154.3l3.609-2.742V61.63a21.242,21.242,0,0,1-3.609.079Z" transform="translate(15.719 35.485)" fill="#898989"/>
            <g id="Group_118499" data-name="Group 118499" transform="translate(180.237 125.385)">
              <path id="Path_182189" data-name="Path 182189" d="M114.38,79.57h0v0Z" transform="translate(-114.38 -79.57)" fill="#c9c7c8"/>
            </g>
            <path id="Path_182190" data-name="Path 182190" d="M172.744,72.52l-86.6,50-.3-.173L86,226.568l.142.095,86.6-50.015Z" transform="translate(49.425 41.755)" fill="#c9c7c8"/>
            <path id="Path_182191" data-name="Path 182191" d="M18.332,65.15l106.4,61.44.158,104.222-.095-.047L18.332,169.277H18.3V65.15Z" transform="translate(10.537 37.512)" fill="#a4a2a5"/>
            <path id="Path_182192" data-name="Path 182192" d="M101.943,34.56,18.49,82.747l.047.016,106.68,61.613L212.484,94Z" transform="translate(10.646 19.899)" fill="#f4f4f4"/>
            <path id="Path_182193" data-name="Path 182193" d="M149.5,106.672l-1.592.93L48.97,50.464l1.576-.914Z" transform="translate(28.196 28.53)" fill="#a3a3a3"/>
            <path id="Path_182194" data-name="Path 182194" d="M146.769,108.256l-1.623.9L46.25,52.08l1.56-.93Z" transform="translate(26.63 29.451)" fill="#a3a3a3"/>
            <path id="Path_182195" data-name="Path 182195" d="M144.012,109.84l-1.639.914L43.54,53.664l1.56-.914Z" transform="translate(25.069 30.372)" fill="#a3a3a3"/>
            <path id="Path_182196" data-name="Path 182196" d="M141.26,111.415l-1.607.945L40.82,55.285l1.607-.945Z" transform="translate(23.503 31.288)" fill="#a3a3a3"/>
            <path id="Path_182197" data-name="Path 182197" d="M138.487,112.967l-1.623.93L38.11,56.87l1.592-.93Z" transform="translate(21.943 32.209)" fill="#a3a3a3"/>
            <path id="Path_182198" data-name="Path 182198" d="M135.74,114.557l-1.607.9L35.41,58.475,37,57.53Z" transform="translate(20.388 33.124)" fill="#a3a3a3"/>
            <path id="Path_182199" data-name="Path 182199" d="M132.982,116.11l-1.607.945L32.7,60.075l1.576-.945Z" transform="translate(18.828 34.046)" fill="#a3a3a3"/>
            <path id="Path_182200" data-name="Path 182200" d="M130.247,117.71l-1.639.9L29.98,61.675l1.592-.945Z" transform="translate(17.262 34.967)" fill="#a3a3a3"/>
            <g id="Group_118500" data-name="Group 118500" transform="translate(31.516 106.728)" opacity="0.67">
              <path id="Path_182201" data-name="Path 182201" d="M28.667,72.095l-7.2-4.16c-.8-.473-1.465-.095-1.465.835v1.576a3.262,3.262,0,0,0,1.465,2.521l7.2,4.16a.909.909,0,0,0,1.465-.835V74.616a3.152,3.152,0,0,0-1.465-2.521Z" transform="translate(-20 -67.731)" fill="#606060"/>
              <path id="Path_182202" data-name="Path 182202" d="M36.817,76.8l-7.2-4.16c-.8-.473-1.465-.095-1.465.835v1.576a3.152,3.152,0,0,0,1.465,2.521l7.2,4.16c.8.473,1.465.095,1.465-.835V79.326A3.152,3.152,0,0,0,36.817,76.8Z" transform="translate(-15.307 -65.019)" fill="#606060"/>
              <path id="Path_182203" data-name="Path 182203" d="M44.977,81.5l-7.2-4.16a.909.909,0,0,0-1.465.835v1.576a3.151,3.151,0,0,0,1.465,2.521l7.2,4.16c.8.473,1.465.095,1.465-.835V84.017A3.262,3.262,0,0,0,44.977,81.5Z" transform="translate(-10.609 -62.304)" fill="#606060"/>
              <path id="Path_182204" data-name="Path 182204" d="M53.19,86.195l-7.264-4.129a.909.909,0,0,0-1.465.835v1.576A3.262,3.262,0,0,0,45.925,87l7.264,4.176c.8.457,1.465.095,1.465-.835V88.763A3.262,3.262,0,0,0,53.19,86.195Z" transform="translate(-5.916 -59.581)" fill="#606060"/>
              <path id="Path_182205" data-name="Path 182205" d="M61.287,90.925l-7.217-4.16c-.8-.473-1.45-.095-1.45.835v1.576A3.246,3.246,0,0,0,54.07,91.7l7.217,4.16c.8.457,1.45.079,1.45-.835V93.446A3.152,3.152,0,0,0,61.287,90.925Z" transform="translate(-1.218 -56.889)" fill="#606060"/>
              <path id="Path_182206" data-name="Path 182206" d="M69.437,95.572l-7.2-4.1c-.8-.473-1.465-.095-1.465.835v1.576a3.152,3.152,0,0,0,1.465,2.521l7.2,4.16c.8.473,1.465.095,1.465-.835V98.156A3.152,3.152,0,0,0,69.437,95.572Z" transform="translate(3.474 -54.177)" fill="#606060"/>
              <path id="Path_182207" data-name="Path 182207" d="M77.587,100.326l-7.2-4.16A.909.909,0,0,0,68.92,97v1.576a3.152,3.152,0,0,0,1.465,2.521l7.2,4.16c.8.473,1.465.095,1.465-.835v-1.576A3.262,3.262,0,0,0,77.587,100.326Z" transform="translate(8.167 -51.462)" fill="#606060"/>
              <path id="Path_182208" data-name="Path 182208" d="M85.753,105.036l-7.217-4.16a.907.907,0,0,0-1.465.835v1.576a3.152,3.152,0,0,0,1.465,2.616l7.2,4.16c.8.457,1.45.095,1.45-.835v-1.576a3.246,3.246,0,0,0-1.434-2.616Z" transform="translate(12.86 -48.75)" fill="#606060"/>
            </g>
            <path id="Path_182209" data-name="Path 182209" d="M38.486,20.92,34.106,23.6H34.09l.016.016,32.666,17.7-.016-.11,69,37.567,3.719-2.632Z" transform="translate(19.628 12.045)" fill="#ffeb7e"/>
            <path id="Path_182210" data-name="Path 182210" d="M40.855,22.62,22.34,94.1l100.078,57.3,20.107-73.6Z" transform="translate(12.863 13.024)" fill="#ffbd31"/>
            <path id="Path_182211" data-name="Path 182211" d="M38.561,33.914,29.815,67.6a8.1,8.1,0,0,0,3.813,9.061l53.435,30.6a4.885,4.885,0,0,0,7.123-2.947l9.975-36.511a6.161,6.161,0,0,0-2.994-7.012L45.793,30.763a5,5,0,0,0-7.233,3.152Z" transform="translate(17.017 17.361)" fill="#202121"/>
            <path id="Path_182212" data-name="Path 182212" d="M145.682,44.34l-1.812,61.25-58.02,33.3,20.107-73.6Z" transform="translate(49.431 25.53)" fill="#bf5f04"/>
            <path id="Path_182213" data-name="Path 182213" d="M101.5,82.621,76.19,68.25l3.971-16.64L105.8,66Z" transform="translate(43.868 29.716)" fill="#333"/>
            <path id="Path_182214" data-name="Path 182214" d="M80.128,62.73a.772.772,0,0,1-1.135.552,1.324,1.324,0,0,1-.6-1.45.756.756,0,0,1,1.119-.536A1.261,1.261,0,0,1,80.128,62.73Z" transform="translate(45.115 35.236)" fill="#606060"/>
            <path id="Path_182215" data-name="Path 182215" d="M82.423,63.915a.756.756,0,0,1-1.119.536,1.276,1.276,0,0,1-.6-1.434.756.756,0,0,1,1.119-.552A1.292,1.292,0,0,1,82.423,63.915Z" transform="translate(46.444 35.91)" fill="#606060"/>
            <path id="Path_182216" data-name="Path 182216" d="M84.713,65.072a.756.756,0,0,1-1.135.536,1.292,1.292,0,0,1-.567-1.371.772.772,0,0,1,1.135-.552,1.324,1.324,0,0,1,.567,1.387Z" transform="translate(47.778 36.613)" fill="#606060"/>
            <path id="Path_182217" data-name="Path 182217" d="M87.017,66.259a.772.772,0,0,1-1.135.552,1.308,1.308,0,0,1-.6-1.434.772.772,0,0,1,1.135-.552A1.292,1.292,0,0,1,87.017,66.259Z" transform="translate(49.083 37.27)" fill="#606060"/>
            <path id="Path_182218" data-name="Path 182218" d="M89.293,67.439a.772.772,0,0,1-1.119.552,1.308,1.308,0,0,1-.6-1.45.772.772,0,0,1,1.135-.536A1.261,1.261,0,0,1,89.293,67.439Z" transform="translate(50.4 37.949)" fill="#f7c628"/>
            <path id="Path_182219" data-name="Path 182219" d="M91.573,68.622a.772.772,0,0,1-1.135.552,1.324,1.324,0,0,1-.583-1.45.788.788,0,0,1,1.135-.552,1.292,1.292,0,0,1,.583,1.45Z" transform="translate(51.713 38.626)" fill="#ed701b"/>
            <path id="Path_182220" data-name="Path 182220" d="M81.989,57.883,79.09,56.4,79.8,53.66l2.915,1.481Z" transform="translate(45.538 30.896)" fill="#a3a3a3"/>
            <path id="Path_182221" data-name="Path 182221" d="M84.189,58.987l-2.9-1.465L82,54.78l2.915,1.481Z" transform="translate(46.805 31.541)" fill="#a3a3a3"/>
            <path id="Path_182222" data-name="Path 182222" d="M86.4,60.117,83.52,58.652l.709-2.742,2.9,1.481Z" transform="translate(48.089 32.192)" fill="#a3a3a3"/>
            <path id="Path_182223" data-name="Path 182223" d="M81.429,60.037l-2.9-1.481.709-2.726,2.9,1.465Z" transform="translate(45.216 32.146)" fill="#a3a3a3"/>
            <path id="Path_182224" data-name="Path 182224" d="M83.619,61.147l-2.9-1.465.725-2.742,2.9,1.481Z" transform="translate(46.477 32.785)" fill="#a3a3a3"/>
            <path id="Path_182225" data-name="Path 182225" d="M85.839,62.272l-2.9-1.465.725-2.726,2.9,1.465Z" transform="translate(47.755 33.441)" fill="#a3a3a3"/>
            <path id="Path_182226" data-name="Path 182226" d="M88.742,61.173,86.82,60.1l.11-.441,1.922,1.087Z" transform="translate(49.989 34.351)" fill="#f7c628"/>
            <path id="Path_182227" data-name="Path 182227" d="M88.512,62.156,86.59,61.069l.158-.6,1.922,1.087Z" transform="translate(49.857 34.817)" fill="#f7c628"/>
            <path id="Path_182228" data-name="Path 182228" d="M88.282,63.124,86.36,62.036l.189-.756,1.922,1.1Z" transform="translate(49.724 35.284)" fill="#f7c628"/>
            <path id="Path_182229" data-name="Path 182229" d="M88.062,64.085,86.14,63l.221-.9,1.922,1.087Z" transform="translate(49.597 35.756)" fill="#f7c628"/>
            <path id="Path_182230" data-name="Path 182230" d="M87.832,65.053,85.91,63.966l.268-1.056L88.1,64Z" transform="translate(49.465 36.222)" fill="#f7c628"/>
            <path id="Path_182231" data-name="Path 182231" d="M91.148,60.193,89.21,59.105l.11-.425,1.938,1.087Z" transform="translate(51.365 33.787)" fill="#ed701b"/>
            <path id="Path_182232" data-name="Path 182232" d="M90.908,61.183,88.97,60.1l.142-.536,1.922,1.087Z" transform="translate(51.227 34.293)" fill="#ed701b"/>
            <path id="Path_182233" data-name="Path 182233" d="M90.668,62.173,88.73,61.086l.173-.646,1.922,1.087Z" transform="translate(51.089 34.8)" fill="#ed701b"/>
            <path id="Path_182234" data-name="Path 182234" d="M90.422,63.164,88.5,62.076l.173-.756,1.938,1.087Z" transform="translate(50.956 35.307)" fill="#ed701b"/>
            <path id="Path_182235" data-name="Path 182235" d="M90.182,64.154l-1.922-1.1.2-.851,1.922,1.087Z" transform="translate(50.818 35.813)" fill="#ed701b"/>
            <path id="Path_182236" data-name="Path 182236" d="M89.942,65.139,88.02,64.051l.236-.961,1.922,1.087Z" transform="translate(50.68 36.326)" fill="#ed701b"/>
            <path id="Path_182237" data-name="Path 182237" d="M89.7,66.113,87.78,65.026l.268-1.056,1.922,1.087Z" transform="translate(50.542 36.832)" fill="#ed701b"/>
            <path id="Path_182238" data-name="Path 182238" d="M92.162,64.118,90.24,63.031l.11-.441,1.922,1.1Z" transform="translate(51.958 36.038)" fill="#f7c628"/>
            <path id="Path_182239" data-name="Path 182239" d="M91.922,65.108,90,64.02l.173-.63L92.1,64.477Z" transform="translate(51.82 36.499)" fill="#f7c628"/>
            <path id="Path_182240" data-name="Path 182240" d="M91.692,66.124l-1.922-1.1.221-.851L91.9,65.257Z" transform="translate(51.688 36.948)" fill="#f7c628"/>
            <path id="Path_182241" data-name="Path 182241" d="M91.452,67.119,89.53,66.032l.284-1.072,1.907,1.1Z" transform="translate(51.549 37.403)" fill="#f7c628"/>
            <path id="Path_182242" data-name="Path 182242" d="M0,81.57v3.309H.11L0,84.942l57.327,32.9v-3.372Z" transform="translate(0 46.966)" fill="#ffbd31"/>
            <path id="Path_182243" data-name="Path 182243" d="M36.475,109.987l-.095-.063V113.3l.095.047,35.739-20.5V89.47Z" transform="translate(20.947 51.515)" fill="#fe7f05"/>
            <path id="Path_182244" data-name="Path 182244" d="M57.421,122.026,93.16,101.51,35.723,68.56,0,89.061Z" transform="translate(0 39.475)" fill="#ffdc66"/>
            <path id="Path_182245" data-name="Path 182245" d="M34.28,20.92v3.7h.142l-.142.079,64.5,37.015V57.935Z" transform="translate(19.738 12.045)" fill="#fabe39"/>
            <path id="Path_182246" data-name="Path 182246" d="M98.887,66.427l40.182-23.069L74.478,6.28,34.28,29.349Z" transform="translate(19.738 3.616)" fill="#ffeb7e"/>
            <path id="Path_182247" data-name="Path 182247" d="M22.941,75.6,19.38,73.549,22.925,71.5l3.545,2.064Z" transform="translate(11.159 41.168)" fill="#ed912e"/>
            <path id="Path_182248" data-name="Path 182248" d="M25.615,77.147,22.07,75.1,25.6,73.05l3.561,2.064Z" transform="translate(12.707 42.061)" fill="#ed912e"/>
            <path id="Path_182249" data-name="Path 182249" d="M28.311,78.7,24.75,76.633,28.28,74.6l3.561,2.064Z" transform="translate(14.25 42.953)" fill="#ed912e"/>
            <path id="Path_182250" data-name="Path 182250" d="M30.991,80.247,27.43,78.2l3.545-2.049L34.521,78.2Z" transform="translate(15.794 43.845)" fill="#ed912e"/>
            <path id="Path_182251" data-name="Path 182251" d="M33.665,81.8,30.12,79.749,33.65,77.7l3.561,2.049Z" transform="translate(17.342 44.738)" fill="#ed912e"/>
            <path id="Path_182252" data-name="Path 182252" d="M36.361,83.347,32.8,81.283l3.53-2.033L39.891,81.3Z" transform="translate(18.885 45.63)" fill="#fe7f05"/>
            <path id="Path_182253" data-name="Path 182253" d="M39.041,84.9,35.48,82.833,39.025,80.8l3.546,2.049Z" transform="translate(20.429 46.523)" fill="#fe7f05"/>
            <path id="Path_182254" data-name="Path 182254" d="M41.715,86.431,38.17,84.383,41.7,82.35,45.261,84.4Z" transform="translate(21.977 47.415)" fill="#fe7f05"/>
            <path id="Path_182255" data-name="Path 182255" d="M44.411,88,40.85,85.933,44.38,83.9l3.561,2.048Z" transform="translate(23.521 48.308)" fill="#fe7f05"/>
            <path id="Path_182256" data-name="Path 182256" d="M47.091,89.547,43.53,87.483l3.545-2.033L50.621,87.5Z" transform="translate(25.064 49.2)" fill="#fe7f05"/>
            <path id="Path_182257" data-name="Path 182257" d="M49.781,91.1,46.22,89.039l3.53-2.049,3.561,2.064Z" transform="translate(26.612 50.087)" fill="#fe7f05"/>
            <path id="Path_182258" data-name="Path 182258" d="M52.461,92.631,48.9,90.583l3.53-2.033,3.561,2.033Z" transform="translate(28.156 50.985)" fill="#fe7f05"/>
            <path id="Path_182259" data-name="Path 182259" d="M20.081,77.241,16.52,75.193l3.545-2.033,3.545,2.033Z" transform="translate(9.512 42.124)" fill="#ed912e"/>
            <path id="Path_182260" data-name="Path 182260" d="M22.755,78.8,19.21,76.749,22.74,74.7,26.3,76.764Z" transform="translate(11.061 43.011)" fill="#ed912e"/>
            <path id="Path_182261" data-name="Path 182261" d="M25.451,80.347,21.89,78.3l3.53-2.049,3.561,2.064Z" transform="translate(12.604 43.903)" fill="#ed912e"/>
            <path id="Path_182262" data-name="Path 182262" d="M28.131,81.9,24.57,79.849,28.115,77.8l3.545,2.049Z" transform="translate(14.147 44.795)" fill="#ed912e"/>
            <path id="Path_182263" data-name="Path 182263" d="M30.806,83.447,27.26,81.383l3.53-2.033,3.561,2.064Z" transform="translate(15.696 45.688)" fill="#ed912e"/>
            <path id="Path_182264" data-name="Path 182264" d="M33.5,85,29.94,82.948,33.47,80.9l3.561,2.048Z" transform="translate(17.239 46.58)" fill="#fe7f05"/>
            <path id="Path_182265" data-name="Path 182265" d="M36.175,86.547,32.63,84.5l3.53-2.049L39.705,84.5Z" transform="translate(18.788 47.473)" fill="#fe7f05"/>
            <path id="Path_182266" data-name="Path 182266" d="M38.855,88.1,35.31,86.049,38.84,84l3.546,2.049Z" transform="translate(20.331 48.365)" fill="#fe7f05"/>
            <path id="Path_182267" data-name="Path 182267" d="M41.551,89.631,37.99,87.583l3.546-2.033L45.081,87.6Z" transform="translate(21.874 49.258)" fill="#fe7f05"/>
            <path id="Path_182268" data-name="Path 182268" d="M44.231,91.181,40.67,89.133,44.215,87.1l3.546,2.049Z" transform="translate(23.417 50.15)" fill="#fe7f05"/>
            <path id="Path_182269" data-name="Path 182269" d="M46.921,92.753,43.36,90.689l3.53-2.049L50.451,90.7Z" transform="translate(24.966 51.037)" fill="#fe7f05"/>
            <path id="Path_182270" data-name="Path 182270" d="M49.6,94.3,46.04,92.239l3.53-2.049,3.561,2.064Z" transform="translate(26.509 51.929)" fill="#fe7f05"/>
            <path id="Path_182271" data-name="Path 182271" d="M17.121,78.957,13.56,76.909l3.545-2.049,3.545,2.064Z" transform="translate(7.808 43.103)" fill="#ed912e"/>
            <path id="Path_182272" data-name="Path 182272" d="M19.8,80.507,16.25,78.459l3.53-2.049,3.561,2.064Z" transform="translate(9.356 43.995)" fill="#ed912e"/>
            <path id="Path_182273" data-name="Path 182273" d="M22.491,82.057,18.93,80.009l3.53-2.049,3.561,2.064Z" transform="translate(10.899 44.888)" fill="#ed912e"/>
            <path id="Path_182274" data-name="Path 182274" d="M25.171,83.607,21.61,81.559l3.545-2.049L28.7,81.559Z" transform="translate(12.443 45.78)" fill="#ed912e"/>
            <path id="Path_182275" data-name="Path 182275" d="M27.845,85.157,24.3,83.109l3.53-2.049,3.561,2.049Z" transform="translate(13.991 46.673)" fill="#ed912e"/>
            <path id="Path_182276" data-name="Path 182276" d="M30.525,86.707,26.98,84.659l3.53-2.049,3.561,2.049Z" transform="translate(15.534 47.565)" fill="#ed912e"/>
            <path id="Path_182277" data-name="Path 182277" d="M33.215,88.257,29.67,86.193,33.2,84.16l3.545,2.064Z" transform="translate(17.083 48.457)" fill="#fe7f05"/>
            <path id="Path_182278" data-name="Path 182278" d="M35.9,89.807,32.35,87.759l3.53-2.049,3.561,2.049Z" transform="translate(18.626 49.35)" fill="#fe7f05"/>
            <path id="Path_182279" data-name="Path 182279" d="M38.591,91.363,35.03,89.3l3.545-2.049,3.546,2.064Z" transform="translate(20.169 50.237)" fill="#fe7f05"/>
            <path id="Path_182280" data-name="Path 182280" d="M41.266,92.907,37.72,90.843l3.53-2.033,3.561,2.049Z" transform="translate(21.718 51.135)" fill="#fe7f05"/>
            <path id="Path_182281" data-name="Path 182281" d="M43.961,94.441,40.4,92.393l3.53-2.033,3.561,2.049Z" transform="translate(23.261 52.027)" fill="#fe7f05"/>
            <path id="Path_182282" data-name="Path 182282" d="M46.641,95.991,43.08,93.943l3.545-2.033,3.546,2.049Z" transform="translate(24.804 52.92)" fill="#fe7f05"/>
            <path id="Path_182283" data-name="Path 182283" d="M57.32,33.04v3.719h.126l-.126.079,64.5,37V70.055Z" transform="translate(33.004 19.024)" fill="#fabe39"/>
            <path id="Path_182284" data-name="Path 182284" d="M98.345,65l-.095-.063v3.782l.095.063,40.2-23.054v-3.8Z" transform="translate(56.57 24.142)" fill="#fe7f05"/>
            <path id="Path_182285" data-name="Path 182285" d="M122,78.547l40.2-23.069L97.594,18.4,57.16,43.628Z" transform="translate(32.911 10.594)" fill="#ffdc66"/>
            <path id="Path_182286" data-name="Path 182286" d="M74.239,0l36.022,20.8L74,41.727,37.98,20.942Z" transform="translate(21.868)" fill="#333"/>
            <path id="Path_182287" data-name="Path 182287" d="M60.83,26.48h.016l-.016.016Z" transform="translate(35.025 15.247)" fill="#eaecef"/>
            <path id="Path_182288" data-name="Path 182288" d="M62.959,34.126h0L99.2,13.2l-.016,9.329L57.16,46.622Z" transform="translate(32.911 7.6)" fill="#606060"/>
            <path id="Path_182289" data-name="Path 182289" d="M39.863,13.29,75.9,34.09,70.086,46.57,34.71,25.613Z" transform="translate(19.985 7.652)" fill="#202121"/>
            <path id="Path_182290" data-name="Path 182290" d="M69.517,36.826,42.729,21.384A1.97,1.97,0,0,1,41.61,19.7a2.521,2.521,0,0,1,1.481-2.049L69.013,2.726a5.988,5.988,0,0,1,5.531-.2l26.788,15.443a1.97,1.97,0,0,1,1.119,1.686A2.553,2.553,0,0,1,100.97,21.7l-25.906,15a6.3,6.3,0,0,1-3.152.788A4.916,4.916,0,0,1,69.517,36.826ZM69.422,3.609,43.58,18.531c-.63.362-1.008.835-1.008,1.245a1.087,1.087,0,0,0,.646.882L70.006,36.117a5.216,5.216,0,0,0,4.617-.221l25.906-14.954c.63-.362,1.008-.835,1.008-1.245a1.087,1.087,0,0,0-.646-.882L74.1,3.357a4.05,4.05,0,0,0-1.97-.441,5.373,5.373,0,0,0-2.71.693Z" transform="translate(23.958 1.118)" fill="#606060"/>
            <path id="Path_182291" data-name="Path 182291" d="M61.86,35.505l9.612-5.562V23.23L61.86,28.777Z" transform="translate(35.618 13.375)" fill="#333"/>
            <path id="Path_182292" data-name="Path 182292" d="M66.87,27.68c0,.221.142.331.331.236a.693.693,0,0,0,.315-.567c0-.221-.158-.331-.331-.236A.693.693,0,0,0,66.87,27.68Z" transform="translate(38.502 15.591)" fill="#606060"/>
            <path id="Path_182293" data-name="Path 182293" d="M66,28.145c0,.221.142.315.331.221a.693.693,0,0,0,.315-.567c0-.221-.158-.331-.331-.236A.725.725,0,0,0,66,28.145Z" transform="translate(38.001 15.85)" fill="#606060"/>
            <path id="Path_182294" data-name="Path 182294" d="M65.15,28.591c0,.221.158.331.331.236a.725.725,0,0,0,.315-.583c0-.221-.142-.315-.331-.221a.693.693,0,0,0-.315.567Z" transform="translate(37.512 16.114)" fill="#606060"/>
            <path id="Path_182295" data-name="Path 182295" d="M64.29,29.041c0,.221.158.331.331.236a.63.63,0,0,0,.315-.567c0-.236-.142-.331-.331-.236A.693.693,0,0,0,64.29,29.041Z" transform="translate(37.017 16.373)" fill="#606060"/>
            <path id="Path_182296" data-name="Path 182296" d="M63.43,29.49c0,.236.158.331.331.236a.63.63,0,0,0,.315-.567c0-.221-.142-.331-.331-.236a.693.693,0,0,0-.315.567Z" transform="translate(36.522 16.633)" fill="#f7c628"/>
            <path id="Path_182297" data-name="Path 182297" d="M62.57,29.953c0,.221.158.331.331.236a.709.709,0,0,0,.331-.583c0-.221-.158-.315-.331-.236A.709.709,0,0,0,62.57,29.953Z" transform="translate(36.026 16.895)" fill="#ed701b"/>
            <path id="Path_182298" data-name="Path 182298" d="M66.872,25.72l1.072-.567-.016-1.1-1.087.567Z" transform="translate(38.485 13.847)" fill="#a3a3a3"/>
            <path id="Path_182299" data-name="Path 182299" d="M66.046,26.15l1.072-.567-.016-1.1-1.072.567Z" transform="translate(38.019 14.095)" fill="#a3a3a3"/>
            <path id="Path_182300" data-name="Path 182300" d="M65.226,26.58l1.072-.567-.016-1.1-1.072.567Z" transform="translate(37.546 14.343)" fill="#a3a3a3"/>
            <path id="Path_182301" data-name="Path 182301" d="M66.876,26.59l1.072-.567-.016-1.1-1.072.567Z" transform="translate(38.496 14.348)" fill="#a3a3a3"/>
            <path id="Path_182302" data-name="Path 182302" d="M66.066,27.02l1.072-.567-.016-1.1-1.072.567Z" transform="translate(38.03 14.596)" fill="#a3a3a3"/>
            <path id="Path_182303" data-name="Path 182303" d="M65.236,27.445l1.072-.567-.016-1.087-1.072.552Z" transform="translate(37.552 14.849)" fill="#a3a3a3"/>
            <path id="Path_182304" data-name="Path 182304" d="M52.793,11.673v.047L66.14,4.03l13.252,7.643v-.047h1.1v.693h0l-14.45,8.336L51.69,12.366h0v-.693Z" transform="translate(29.762 2.32)" fill="#444"/>
            <path id="Path_182305" data-name="Path 182305" d="M66.045,20.214,80.5,11.879,66.14,3.59,51.69,11.926Z" transform="translate(29.762 2.067)" fill="#757575"/>
            <path id="Path_182306" data-name="Path 182306" d="M61.482,15.834a6.4,6.4,0,0,0,5.783,0l5.578-3.309a1.765,1.765,0,0,0,0-3.341L67.265,6.032a6.4,6.4,0,0,0-5.783,0l-5.61,3.183c-1.576.93-1.576,2.427,0,3.341Z" transform="translate(31.489 3.076)" fill="#444"/>
            <path id="Path_182307" data-name="Path 182307" d="M54.576,11.978,66.032,5.359l-.536-.3L54.04,11.678Z" transform="translate(31.115 2.913)" fill="#333"/>
            <path id="Path_182308" data-name="Path 182308" d="M55.27,12.388,66.742,5.769l-.536-.3L54.75,12.088Z" transform="translate(31.524 3.15)" fill="#333"/>
            <path id="Path_182309" data-name="Path 182309" d="M55.986,12.8,67.442,6.179l-.52-.3-11.472,6.6Z" transform="translate(31.927 3.386)" fill="#333"/>
            <path id="Path_182310" data-name="Path 182310" d="M56.68,13.213,68.152,6.6l-.536-.315L56.16,12.9Z" transform="translate(32.336 3.616)" fill="#333"/>
            <path id="Path_182311" data-name="Path 182311" d="M57.4,13.608,68.852,6.989l-.52-.3L56.86,13.308Z" transform="translate(32.739 3.852)" fill="#333"/>
            <path id="Path_182312" data-name="Path 182312" d="M58.106,14.018,69.562,7.4l-.536-.3L57.57,13.718Z" transform="translate(33.148 4.088)" fill="#333"/>
            <path id="Path_182313" data-name="Path 182313" d="M58.8,14.433,70.272,7.815,69.736,7.5,58.28,14.118Z" transform="translate(33.556 4.318)" fill="#333"/>
            <path id="Path_182314" data-name="Path 182314" d="M59.516,14.843,70.972,8.225l-.536-.315L58.98,14.528Z" transform="translate(33.959 4.554)" fill="#333"/>
            <path id="Path_182315" data-name="Path 182315" d="M60.21,15.238l11.472-6.6-.536-.315L59.69,14.938Z" transform="translate(34.368 4.79)" fill="#333"/>
            <path id="Path_182316" data-name="Path 182316" d="M55.341,12.941l6.177,3.577a7.091,7.091,0,0,0,6.4,0l6.209-3.577c1.765-1.024,1.781-2.679,0-3.687L67.963,5.661a7.044,7.044,0,0,0-6.4,0L55.357,9.253C53.592,10.278,53.576,11.932,55.341,12.941Zm1.387-.268a1.67,1.67,0,0,1,0-3.152l5.295-3.057a6.035,6.035,0,0,1,5.452,0L72.737,9.49a1.67,1.67,0,0,1,0,3.152L67.443,15.7a6.035,6.035,0,0,1-5.452,0Z" transform="translate(31.106 2.817)" fill="#333"/>
            <path id="Path_182317" data-name="Path 182317" d="M65.772,21a1.1,1.1,0,0,1-.945,0,.3.3,0,0,1,0-.552,1.056,1.056,0,0,1,.945,0A.3.3,0,0,1,65.772,21Z" transform="translate(37.221 11.711)" fill="#d1fbf6"/>
            <path id="Path_182318" data-name="Path 182318" d="M64.942,21.48a1.1,1.1,0,0,1-.945,0,.3.3,0,0,1,0-.552,1.1,1.1,0,0,1,.945,0,.3.3,0,0,1,0,.552Z" transform="translate(36.743 11.989)" fill="#606060"/>
            <path id="Path_182319" data-name="Path 182319" d="M64.112,21.96a1.1,1.1,0,0,1-.945,0,.3.3,0,0,1,0-.552,1.1,1.1,0,0,1,.945,0,.3.3,0,0,1,0,.552Z" transform="translate(36.265 12.265)" fill="#606060"/>
            <path id="Path_182320" data-name="Path 182320" d="M63.282,22.44a1.1,1.1,0,0,1-.945,0,.3.3,0,0,1,0-.552,1.1,1.1,0,0,1,.945,0,.3.3,0,0,1,0,.552Z" transform="translate(35.787 12.542)" fill="#606060"/>
            <path id="Path_182321" data-name="Path 182321" d="M62.412,22.92a1.1,1.1,0,0,1-.945,0,.3.3,0,0,1,0-.552,1.1,1.1,0,0,1,.945,0,.3.3,0,0,1,0,.552Z" transform="translate(35.286 12.818)" fill="#606060"/>
            <path id="Path_182322" data-name="Path 182322" d="M61.622,23.4a1.1,1.1,0,0,1-.945,0,.3.3,0,0,1,0-.552,1.1,1.1,0,0,1,.945,0,.3.3,0,0,1,0,.552Z" transform="translate(34.831 13.095)" fill="#606060"/>
            <path id="Path_182323" data-name="Path 182323" d="M58.974,20.6l.221-.11c.662-.378.583-1.04-.173-1.481l-10.889-6.3a2.868,2.868,0,0,0-2.553-.095l-.221.11c-.646.378-.567,1.04.189,1.481l10.873,6.3a2.821,2.821,0,0,0,2.553.095Z" transform="translate(25.866 7.116)" fill="#a4a2a5"/>
            <path id="Path_182324" data-name="Path 182324" d="M50.81,16.609h0V15.9h0a.835.835,0,0,0,.489.678,2.616,2.616,0,0,0,2.348,0,.835.835,0,0,0,.488-.678h0v.709h0a.8.8,0,0,1-.488.678,2.616,2.616,0,0,1-2.348,0A.835.835,0,0,1,50.81,16.609Z" transform="translate(29.255 9.155)" fill="#c9c7c8"/>
            <path id="Path_182325" data-name="Path 182325" d="M53.651,16.927a2.616,2.616,0,0,1-2.348,0,.709.709,0,0,1,0-1.355,2.647,2.647,0,0,1,2.364,0,.8.8,0,0,1,.473.693A.835.835,0,0,1,53.651,16.927Z" transform="translate(29.251 8.806)" fill="#f9f9f9"/>
            <path id="Path_182326" data-name="Path 182326" d="M48.27,15.125h0V14.4h0a.835.835,0,0,0,.488.693,2.616,2.616,0,0,0,2.348,0,.788.788,0,0,0,.488-.678h0v.725h0a.835.835,0,0,1-.488.678,2.616,2.616,0,0,1-2.348,0,.835.835,0,0,1-.489-.693Z" transform="translate(27.793 8.291)" fill="#c9c7c8"/>
            <path id="Path_182327" data-name="Path 182327" d="M51.106,15.427a2.616,2.616,0,0,1-2.348,0,.835.835,0,0,1-.489-.693.819.819,0,0,1,.488-.662,2.647,2.647,0,0,1,2.364,0,.835.835,0,0,1,.473.678.788.788,0,0,1-.488.678Z" transform="translate(27.793 7.942)" fill="#f9f9f9"/>
            <path id="Path_182328" data-name="Path 182328" d="M45.7,13.6h0V12.88h0a.835.835,0,0,0,.488.678,2.569,2.569,0,0,0,2.348,0,.867.867,0,0,0,.488-.678h0V13.6h0a.867.867,0,0,1-.488.678,2.647,2.647,0,0,1-2.364,0A.835.835,0,0,1,45.7,13.6Z" transform="translate(26.313 7.416)" fill="#c9c7c8"/>
            <path id="Path_182329" data-name="Path 182329" d="M48.536,13.909a2.569,2.569,0,0,1-2.348,0,.835.835,0,0,1-.488-.678.8.8,0,0,1,.488-.678,2.569,2.569,0,0,1,2.348,0,.788.788,0,0,1,.488.678.867.867,0,0,1-.488.678Z" transform="translate(26.313 7.065)" fill="#f9f9f9"/>
            <path id="Path_182330" data-name="Path 182330" d="M4.375,41.71S-3.5,51.559,3.54,66.922Z" transform="translate(0.352 24.016)" fill="#b874cf"/>
            <path id="Path_182331" data-name="Path 182331" d="M17.98,67.428c.2.473.394.93.583,1.4,4.034,9.612,2.316,7.564,2.836,8.493C24.33,70.8,25.764,63.426,26.568,48c.41-8.052,8.43-6.792,8,1.292C33.9,62.4,31.689,92.357,23.542,94.122,16.436,95.7,13.205,88.449,10.479,81.957L8.21,76.347A24.771,24.771,0,0,0,17.98,67.428Z" transform="translate(4.727 24.503)" fill="#ffb288"/>
            <path id="Path_182332" data-name="Path 182332" d="M26.082,40.89,21.67,44.735a2.017,2.017,0,0,0-.819,1.576,2.742,2.742,0,0,1-.173.284c-1.7,2.994-.741,5.484,2.143,5.547h.552a6.508,6.508,0,0,0,5.941-.788,2.033,2.033,0,0,0,1.04-.52C31.929,49.825,35,47.178,35.08,41.1h0c0-.41-.362-.646-.882-.583h0c-5.232,3.152-5.767.646-5.767.646h0a.8.8,0,0,0-.173-.8C27.847,39.992,26.855,40.2,26.082,40.89Zm-.3,10.92Z" transform="translate(11.421 23.134)" fill="#ffb288"/>
            <path id="Path_182333" data-name="Path 182333" d="M24.939,46.83a3.971,3.971,0,0,0,1.387,2.931,2.442,2.442,0,0,0,2.332,0c2.789-1.324,5.358-6.87,2.285-9.108C26.341,37.312,24.435,43.442,24.939,46.83Z" transform="translate(14.314 22.851)" fill="#ffb288"/>
            <path id="Path_182334" data-name="Path 182334" d="M28.9,178.051a13.473,13.473,0,0,1-4.727-5.484l1.387.079a5.184,5.184,0,0,1,0-3.766A7.879,7.879,0,0,1,26.9,166.8a22.269,22.269,0,0,1,1.576-2.3c.678-.882,1.875-2.505,3.152-2.521a4.6,4.6,0,0,1,1.2.378,8.145,8.145,0,0,0,2.143.252,23.811,23.811,0,0,0,5.988-.394,17.235,17.235,0,0,0,1.765-.488h.126c1.072-.362,2.143-.772,3.152-1.182a2.316,2.316,0,0,1,1.875-.158,2.064,2.064,0,0,1,.882,1.324,8.036,8.036,0,0,1-.9,6.492,13.6,13.6,0,0,1-5.61,4.507c-.536.284-1.072.536-1.576.788h0a35.291,35.291,0,0,1-3.939,1.576Z" transform="translate(13.917 92.273)" fill="#fe7f05"/>
            <path id="Path_182335" data-name="Path 182335" d="M10.287,171.379a13.441,13.441,0,0,1-4.727-5.468h1.4a5.184,5.184,0,0,1,0-3.766,7.879,7.879,0,0,1,1.339-2.08,18.607,18.607,0,0,1,1.576-2.285c.662-.9,1.859-2.521,3.152-2.537a4.729,4.729,0,0,1,1.182.378,8.146,8.146,0,0,0,2.143.268,24.738,24.738,0,0,0,6-.394c.583-.142,1.182-.315,1.749-.5h.142c1.087-.347,2.143-.772,3.152-1.182a2.411,2.411,0,0,1,1.891-.142,2.08,2.08,0,0,1,.867,1.308,8.021,8.021,0,0,1-.9,6.508,13.851,13.851,0,0,1-5.673,4.507l-1.576.788h0a34.05,34.05,0,0,1-3.939,1.576Z" transform="translate(3.201 88.404)" fill="#fe7f05"/>
            <path id="Path_182336" data-name="Path 182336" d="M37.4,100.041c10.353,34.573,8.84,70.059,6.3,105.577A9.455,9.455,0,0,1,34.53,214.8c-4.727,0-9.549-4.207-9.187-9.187,2.442-33.926,4.255-67.758-5.626-100.724-3.4-11.346,14.324-16.183,17.712-4.885Z" transform="translate(11.104 53.881)" fill="#12263f"/>
            <path id="Path_182337" data-name="Path 182337" d="M28.505,202.245a.5.5,0,0,1-.457-.52l.2-2.9a.5.5,0,0,1,.52-.441.473.473,0,0,1,.441.52l-.2,2.884a.489.489,0,0,1-.473.457Zm.41-5.8a.473.473,0,0,1-.457-.5l.2-2.9a.482.482,0,0,1,.961.063l-.2,2.9a.489.489,0,0,1-.473.457Zm.378-5.783a.473.473,0,0,1-.441-.5c0-.977.126-1.938.173-2.9a.473.473,0,0,1,.52-.457.488.488,0,0,1,.457.52l-.189,2.9a.488.488,0,0,1-.488.441Zm.362-5.783a.489.489,0,0,1-.457-.5c0-.977.11-1.938.158-2.9a.481.481,0,1,1,.961.047c0,.961-.095,1.938-.158,2.9a.489.489,0,0,1-.473.457Zm.315-5.8a.488.488,0,0,1-.473-.5l.142-2.884a.5.5,0,0,1,.5-.473.473.473,0,0,1,.457.5c0,.961-.079,1.938-.126,2.9a.488.488,0,0,1-.488.457Zm.236-5.783a.473.473,0,0,1-.457-.5l.095-2.9a.457.457,0,0,1,.488-.473.488.488,0,0,1,.473.5l-.095,2.9a.488.488,0,0,1-.488.473Zm.173-5.8a.5.5,0,0,1-.473-.5q0-1.45,0-2.884a.5.5,0,0,1,.488-.489h0a.5.5,0,0,1,.488.488v2.915a.5.5,0,0,1-.488.473Zm0-5.8a.473.473,0,0,1-.473-.488v-2.9a.473.473,0,0,1,.473-.488h0a.488.488,0,0,1,.488.488v2.9A.489.489,0,0,1,30.38,161.7Zm-.5-6.3v-2.884a.489.489,0,0,1,.473-.5h0a.473.473,0,0,1,.473.473c0,.977,0,1.938,0,2.9a.5.5,0,0,1-.473.5h0a.488.488,0,0,1-.41-.473Zm-.158-5.783c0-.961-.079-1.922-.126-2.884a.473.473,0,0,1,.457-.5.457.457,0,0,1,.5.457c0,.961.095,1.922.126,2.9a.473.473,0,0,1-.457.5h0a.488.488,0,0,1-.425-.457Zm-.284-5.783c0-.961-.126-1.922-.2-2.884a.5.5,0,0,1,.441-.52.457.457,0,0,1,.52.457c.079.961.142,1.922.2,2.9a.489.489,0,0,1-.457.5h0a.473.473,0,0,1-.425-.441Zm-.441-5.767q-.11-1.45-.284-2.884a.488.488,0,0,1,.441-.52.457.457,0,0,1,.52.425c.11.961.2,1.922.284,2.9a.473.473,0,0,1-.441.52h0a.473.473,0,0,1-.441-.426Zm-.6-5.752c-.11-.961-.236-1.907-.362-2.868a.489.489,0,0,1,.41-.552.5.5,0,0,1,.552.425c.126.961.252,1.922.362,2.884a.473.473,0,0,1-.425.536h0a.473.473,0,0,1-.457-.41Zm-.772-5.736c-.142-.945-.3-1.907-.457-2.852a.457.457,0,0,1,.394-.552.473.473,0,0,1,.552.394c.158.945.315,1.907.457,2.868a.488.488,0,0,1-.394.552H28.1a.473.473,0,0,1-.394-.394Zm-.835-5.689c-.173-.945-.362-1.891-.552-2.836a.473.473,0,0,1,.378-.567.488.488,0,0,1,.567.378c.189.945.378,1.907.552,2.852a.488.488,0,0,1-.378.567H27.26a.488.488,0,0,1-.473-.394Zm-1.15-5.657c-.2-.945-.41-1.891-.63-2.821a.478.478,0,1,1,.93-.221c.221.93.441,1.875.646,2.821a.488.488,0,0,1-.362.583h-.11a.488.488,0,0,1-.52-.362Zm-1.324-5.641c-.236-.93-.473-1.859-.725-2.789a.473.473,0,0,1,.331-.6.5.5,0,0,1,.6.347c.252.93.488,1.875.725,2.8a.457.457,0,0,1-.347.583h-.158a.473.473,0,0,1-.473-.347Zm-1.576-5.578c-.268-.93-.536-1.859-.819-2.773a.473.473,0,0,1,.315-.6.489.489,0,0,1,.615.315c.284.93.552,1.859.819,2.789a.489.489,0,0,1-.331.6h-.126a.488.488,0,0,1-.457-.331Z" transform="translate(12.607 57.932)" fill="#566468"/>
            <path id="Path_182338" data-name="Path 182338" d="M6.068,87.608q1.04,56.728-.646,113.456c-.362,11.8,17.98,12.874,18.326,1.024q1.7-56.728.646-113.456A9.455,9.455,0,0,0,15.791,79c-4.727-.268-9.77,3.672-9.675,8.651Z" transform="translate(3.119 45.482)" fill="#12263f"/>
            <path id="Path_182339" data-name="Path 182339" d="M14.167,198.675a.473.473,0,0,1-.457-.5v-2.884a.488.488,0,0,1,.5-.473h0a.5.5,0,0,1,.457.488l-.095,2.9a.473.473,0,0,1-.488.473Zm.158-5.8a.5.5,0,0,1-.457-.488l.079-2.9a.488.488,0,1,1,.977,0l-.047,2.884a.488.488,0,0,1-.5.473Zm.158-5.8a.5.5,0,0,1-.457-.488l.142-2.884a.488.488,0,0,1,.961,0v2.9a.488.488,0,0,1-.5.473Zm.142-5.8a.488.488,0,0,1-.457-.488v-2.9a.488.488,0,1,1,.961,0v2.9a.473.473,0,0,1-.488.473Zm.126-5.8a.473.473,0,0,1-.457-.488v-2.9a.5.5,0,0,1,.5-.473.489.489,0,0,1,.473.488v2.9a.473.473,0,0,1-.488.473Zm.11-5.8a.457.457,0,0,1-.457-.488v-2.9a.473.473,0,0,1,.488-.473h0a.488.488,0,0,1,.457.488v2.9a.473.473,0,0,1-.488.473Zm.095-5.8a.473.473,0,0,1-.457-.488v-2.9a.488.488,0,1,1,.977,0v2.9a.473.473,0,0,1-.488.473Zm.079-5.8a.473.473,0,0,1-.457-.488v-2.9a.473.473,0,0,1,.488-.473.441.441,0,0,1,.473.488v2.9a.473.473,0,0,1-.488.473Zm0-5.8a.488.488,0,0,1-.457-.488v-2.9a.473.473,0,0,1,.488-.473.457.457,0,0,1,.473.488v2.9a.473.473,0,0,1-.488.473Zm0-5.8a.488.488,0,0,1-.457-.488v-2.9a.488.488,0,0,1,.488-.473.457.457,0,0,1,.488.488v2.9a.457.457,0,0,1-.473.473Zm0-5.8a.457.457,0,0,1-.441-.488v-2.9a.473.473,0,0,1,.488-.473.441.441,0,0,1,.488.488v2.9a.488.488,0,0,1-.488.473Zm0-5.8a.488.488,0,0,1-.457-.488v-2.9a.473.473,0,0,1,.488-.473.457.457,0,0,1,.488.473v2.9a.488.488,0,0,1-.488.488Zm0-5.8a.488.488,0,0,1-.457-.488v-2.884a.473.473,0,0,1,.488-.473h0a.489.489,0,0,1,.457.473v2.9a.488.488,0,0,1-.488.488Zm0-5.8a.488.488,0,0,1-.457-.488v-2.915a.473.473,0,0,1,.488-.473.457.457,0,0,1,.488.473v2.9a.488.488,0,0,1-.473.488Zm0-5.8a.488.488,0,0,1-.457-.488v-2.9a.5.5,0,0,1,.488-.488.457.457,0,0,1,.488.488V117a.488.488,0,0,1-.488.488Zm0-5.8a.488.488,0,0,1-.457-.488v-2.9a.5.5,0,0,1,.488-.489.52.52,0,0,1,.488.489v2.9a.473.473,0,0,1-.473.488Zm0-5.8a.488.488,0,0,1-.457-.488v-2.9a.488.488,0,0,1,.473-.488.52.52,0,0,1,.488.488v2.9a.473.473,0,0,1-.473.489Zm0-5.8a.5.5,0,0,1-.457-.488v-2.9a.488.488,0,0,1,.473-.488.473.473,0,0,1,.488.488v2.9a.5.5,0,0,1-.473.488Zm-.079-5.8a.5.5,0,0,1-.457-.488V90.923a.52.52,0,0,1,.488-.5.488.488,0,0,1,.488.488v2.9a.488.488,0,0,1-.488.488Zm-.095-5.8a.489.489,0,0,1-.457-.473v-2.9a.5.5,0,0,1,.473-.5.488.488,0,0,1,.488.473v2.9a.52.52,0,0,1-.473.5Z" transform="translate(7.894 48.722)" fill="#566468"/>
            <path id="Path_182340" data-name="Path 182340" d="M47.691,56.15a24.74,24.74,0,0,0-5.263-7.564,18.153,18.153,0,0,0-5.767,2.868c-2.379,2.222-2.521,5.988-1.812,9.171s2.064,6.3,2.1,9.549-1.891,6.918-5.137,7.327a9.455,9.455,0,0,1-5.09-1.324c.693.331,1.418.662,2.159.93a34.21,34.21,0,0,1,3.057-23.29c-4.318,3.845-9.2,6.476-14.875,4.349l-.52-.173L14.3,52.651a7.879,7.879,0,0,0-3.467-4.018C11.054,45.718,12.2,40.9,15.45,38.17,2.04,38.17,2.214,46.821,2.1,52.352a16.609,16.609,0,0,0,0,3.482c0,14.5,2.159,28.916,4.239,43.239,1.135,7.784,2.332,15.758,6.161,22.612a32.934,32.934,0,0,0,25.212,16.42c3.262.3,6.965-.095,9.045-2.616a11.566,11.566,0,0,0,2.017-6.067,234.645,234.645,0,0,0,1.2-26.631l.189-27.261C50.259,68.929,50.259,62.153,47.691,56.15Z" transform="translate(1.158 21.977)" fill="#12263f"/>
            <path id="Path_182341" data-name="Path 182341" d="M13.851,58.155c5.673,2.127,10.558-.5,14.875-4.349a21.525,21.525,0,0,1,7.312-7.879,33.958,33.958,0,0,0-10.573-5.279A63.173,63.173,0,0,0,12.243,38.19a22.062,22.062,0,0,0-1.765,1.576C6.539,46.731,5.7,56.122,13.851,58.155Z" transform="translate(4.365 21.989)" fill="#b874cf"/>
            <path id="Path_182342" data-name="Path 182342" d="M32.835,45.759a28.048,28.048,0,0,0-3.152-2.679c-9.455,5.941-12.858,19.571-10.353,31.2a6.429,6.429,0,0,0,2.931.394c3.246-.41,5.169-4.066,5.137-7.327s-1.4-6.3-2.1-9.549-.52-6.965,1.844-9.171A18.153,18.153,0,0,1,32.835,45.759Z" transform="translate(10.672 24.804)" fill="#12263f"/>
            <path id="Path_182343" data-name="Path 182343" d="M24.2,64.189a6.208,6.208,0,0,0-.678,1.8,2.049,2.049,0,0,0,.52,1.8.914.914,0,0,0,1.087.173,1.056,1.056,0,0,0,.378-.741,4.507,4.507,0,0,0-.378-2.758c-.126-.252-.473-.52-.646-.284Z" transform="translate(13.523 36.897)" fill="#ffeb7e"/>
            <path id="Path_182344" data-name="Path 182344" d="M23.4,53.458c1.781-7.879,14.182-5.752,12.37,2.175a52,52,0,0,0-1.056,17.712v.268a25.118,25.118,0,0,1-12.464,1.2A62.385,62.385,0,0,1,23.4,53.458Z" transform="translate(12.559 27.931)" fill="#b874cf"/>
            <path id="Path_182345" data-name="Path 182345" d="M22.08,69.538a25.118,25.118,0,0,0,12.48-1.2c.52,4.365,1.45,11.929,4.838,15C43.7,87.234,59.347,65.5,63.381,60.131c4.869-6.492,9.313,1.166,4.475,7.627-8.241,10.92-22.612,34.777-34.037,26.993-6.776-4.6-9.549-13.268-11.03-20.769C22.474,72.5,22.269,71.02,22.08,69.538Z" transform="translate(12.713 33.202)" fill="#ffb288"/>
            <path id="Path_182346" data-name="Path 182346" d="M53.8,55.251,49.418,59.1a2.033,2.033,0,0,0-.8,1.576,2.742,2.742,0,0,0-.173.284c-1.718,2.994-.756,5.484,2.143,5.547h.552a6.461,6.461,0,0,0,5.925-.788,1.922,1.922,0,0,0,1.04-.52c1.576-1.008,4.727-3.672,4.727-9.738h0c0-.394-.347-.63-.882-.567h0c-5.216,3.152-5.752.646-5.752.646h0a.788.788,0,0,0-.158-.8A2.045,2.045,0,0,0,53.8,55.251Zm-.284,10.9Z" transform="translate(27.401 31.417)" fill="#ffb288"/>
            <path id="Path_182347" data-name="Path 182347" d="M35.657,19.336A28.364,28.364,0,0,1,30.678,46.8s-5.862,6.3-18.248-7.154C12.43,39.648-6.668,5.343,35.657,19.336Z" transform="translate(4.683 9.202)" fill="#ffb288"/>
            <path id="Path_182348" data-name="Path 182348" d="M9.32,18.7c-1.733,7.012,3.971,17.334,3.971,17.334.5.552,1.008,1.056,1.5,1.576l6.9-5.83S18.964,44.133,27.6,44.559a5.752,5.752,0,0,0,3.971-1.45c.567-1.056,1.072-2.112,1.576-3.152a44.122,44.122,0,0,1-2.4,5.358s-5.862,6.3-18.248-7.154C12.409,38.082,5.365,25.476,9.32,18.7Z" transform="translate(4.673 10.767)" fill="#ffb288"/>
            <path id="Path_182349" data-name="Path 182349" d="M37.953,26.04s-7,2.553-6.539,9.66l-1.072.488s.441-5.436-1.576-4.475c0,0-10.306,18.8-16.908,8.43,0,0-14.324-19.366,1.749-23.873,0,0,11.5-14.5,24.755,3.577A4.9,4.9,0,0,1,37.953,26.04Z" transform="translate(3.443 6.201)" fill="#280807"/>
            <path id="Path_182350" data-name="Path 182350" d="M21.363,23a2.238,2.238,0,0,0-1.576.993,5.878,5.878,0,0,0-1.2,4.412c.394,2.427,4.586,5.893,5.074,1.749a26.44,26.44,0,0,0-.2-3.514C23.348,25.49,23.017,23.11,21.363,23Z" transform="translate(10.673 13.243)" fill="#f38c65"/>
            <path id="Path_182351" data-name="Path 182351" d="M11.061,41.332l.662-9.927s9.013-.552,11.519,5.783l-.5,8.919S10.84,45.161,11.061,41.332Z" transform="translate(6.367 18.075)" fill="#f38c65"/>
            <path id="Path_182352" data-name="Path 182352" d="M11,41.436l.678-9.943a16.908,16.908,0,0,1,6.792,1.2,4.129,4.129,0,0,0-2.238,1.844l1.481.725a6.713,6.713,0,0,0,5.153,7.769l-.173,3.152S10.765,45.249,11,41.436Z" transform="translate(6.332 18.128)" fill="#f38c65"/>
            <path id="Path_182353" data-name="Path 182353" d="M9.84,36.441s24.031-3.372,32.4-19.965c0,0-.189-4.207-6.587-1.781Z" transform="translate(5.666 8.027)" fill="#3aa255"/>
            <path id="Path_182354" data-name="Path 182354" d="M10.345,39.38s18.909-3.025,28.364-16.026a4.27,4.27,0,0,0,.126-4.885c-3.073-4.522-10.92-13.11-23.322-6.177C15.577,12.293-3.332,22.315,10.345,39.38Z" transform="translate(3.096 5.577)" fill="#62c065"/>
            <path id="Path_182355" data-name="Path 182355" d="M7.59,20.392S22.544,2.617,36.947,17.115c0,0-4.916-7.059-12.2-7.375C24.75,9.74,12.664,10.26,7.59,20.392Z" transform="translate(4.37 5.608)" fill="#3aa255"/>
            <path id="Path_182356" data-name="Path 182356" d="M34.508,16.19c2.049,3.971.3,5.279-.378,6.146-2.836,3.64-14.576,8.809-16.5,8.84A6.981,6.981,0,0,1,12.589,28.8a11.03,11.03,0,0,1-2.553-5.027C6.759,9.887,32.207,11.746,34.508,16.19Z" transform="translate(5.611 7.447)" fill="#62c065"/>
          </g>
        </g>
      </g>
    </g>
  </g>
</svg>
