<svg xmlns="http://www.w3.org/2000/svg" width="28.617" height="50" viewBox="0 0 28.617 50">
  <g id="t2-ict2" transform="translate(-131.469)">
    <path id="Path_179352" data-name="Path 179352" d="M151.048,0h1.934a26.214,26.214,0,0,1,12.086,3.508,1.033,1.033,0,0,1,.452.974q-.009,11.836-.006,23.672a1.012,1.012,0,0,1-.583.947,26.061,26.061,0,0,1-25.891-.048,1.034,1.034,0,0,1-.515-1.018q0-11.778,0-23.556a1.022,1.022,0,0,1,.445-.965A26.259,26.259,0,0,1,151.048,0M140.427,4.861q-.005,11.4,0,22.8a24.194,24.194,0,0,0,23.188,0q.009-11.406,0-22.811a24.193,24.193,0,0,0-23.189.006Z" transform="translate(-6.243)" fill="#a042bf"/>
    <path id="Path_179353" data-name="Path 179353" d="M246.517,37.041a.953.953,0,0,1,1.085.337,1.585,1.585,0,0,1,.186.987c-.014.725.013,1.451-.012,2.176a.941.941,0,0,1-1.88.015c-.023-.842-.006-1.687-.009-2.53A.967.967,0,0,1,246.517,37.041Z" transform="translate(-101.267 -32.736)" fill="#a042bf"/>
    <path id="Path_179354" data-name="Path 179354" d="M181.848,92.2a16.733,16.733,0,0,1,15.009-.078c.439.247,1.042.424,1.176.977.082.684.013,1.377.037,2.064a1.784,1.784,0,0,1-.216,1.182.944.944,0,0,1-1.679-.609c-.014-.61,0-1.22,0-1.829a14.746,14.746,0,0,0-13.487,0c.007,3.614,0,7.228.007,10.841a14.835,14.835,0,0,0,13.475,0c.014-.856-.015-1.712.013-2.568a.943.943,0,0,1,1.177-.845.954.954,0,0,1,.709.956c0,1.033.018,2.067-.01,3.1-.03.64-.7.871-1.182,1.124a16.692,16.692,0,0,1-15.633-.4,1.011,1.011,0,0,1-.452-.954c.006-3.94-.007-7.883.007-11.823C180.77,92.717,181.378,92.424,181.848,92.2Z" transform="translate(-43.65 -79.997)" fill="#a042bf"/>
    <path id="Path_179355" data-name="Path 179355" d="M315.251,151.132a.944.944,0,0,1,1.217.741,8.105,8.105,0,0,1,0,1.4.951.951,0,0,1-1.492.567c-.541-.4-.353-1.146-.38-1.723A.962.962,0,0,1,315.251,151.132Z" transform="translate(-162.07 -133.723)" fill="#a042bf"/>
    <path id="Path_179356" data-name="Path 179356" d="M176.887,310.261a1.011,1.011,0,0,1,1.02.362,10.183,10.183,0,0,0,14.531.345c.354-.345.727-.847,1.293-.724a.95.95,0,0,1,.558,1.546,12.074,12.074,0,0,1-17.939-.069A.948.948,0,0,1,176.887,310.261Z" transform="translate(-39.567 -274.577)" fill="#a042bf"/>
    <path id="Path_179357" data-name="Path 179357" d="M131.922,367.586a.982.982,0,0,1,1.257.232,17.579,17.579,0,0,0,8.717,5.06,17.032,17.032,0,0,0,10.62-.94,17.9,17.9,0,0,0,5.865-4.122.974.974,0,0,1,1.3-.2.952.952,0,0,1,.152,1.419,19.861,19.861,0,0,1-5.439,4.112,18.937,18.937,0,0,1-18.349-.616,19.993,19.993,0,0,1-4.322-3.492A.947.947,0,0,1,131.922,367.586Z" transform="translate(0 -325.224)" fill="#a042bf"/>
  </g>
</svg>
